<svg width="122" height="32" viewBox="0 0 122 32" fill="none" xmlns="http://www.w3.org/2000/svg">
<g clip-path="url(#clip0_869_10375)">
<path d="M13.3709 0.0114746H0V31.9884L13.3709 0.0114746Z" fill="#FA0C00"/>
<path d="M22.7783 0.0114746H36.1318V31.9884L22.7783 0.0114746Z" fill="#FA0C00"/>
<path d="M18.0748 11.7971L26.5852 31.9885H21.0016L18.4581 25.56H12.23L18.0748 11.7971Z" fill="#FA0C00"/>
<path d="M57.9454 20.3468L59.522 24.8676C59.5743 24.9809 59.6527 25.0331 59.7921 25.0331H62.8234C62.9889 25.0331 63.015 24.9547 62.9889 24.7893L56.7259 7.39402C56.6998 7.25465 56.6736 7.22852 56.5343 7.22852H52.7713C52.6667 7.22852 52.6058 7.30691 52.6058 7.42015C52.5535 8.33477 52.4751 8.61351 52.3619 8.88354L46.7783 24.7631C46.7522 24.9548 46.8132 25.0331 46.97 25.0331H49.679C49.8445 25.0331 49.9229 24.9809 49.9838 24.8154L51.4734 20.3468H57.9454ZM52.3357 17.3939C53.1545 14.92 54.2347 11.7494 54.6702 9.93754H54.6963C55.2364 11.8365 56.5081 15.5995 57.0831 17.3939H52.3357Z" fill="#FA0C00"/>
<path d="M71.0406 25.3032C72.6695 25.3032 74.403 25.007 76.1625 24.2492C76.3019 24.1969 76.328 24.136 76.328 24.0053C76.2757 23.5175 76.2148 22.8119 76.2148 22.2719V5.89581C76.2148 5.79128 76.2148 5.73901 76.0841 5.73901H73.1312C73.018 5.73901 72.9657 5.79128 72.9657 5.93065V11.4794C72.504 11.4271 72.1817 11.401 71.7985 11.401C67.0337 11.401 64.1069 14.5455 64.1069 18.474C64.1069 23.0297 67.1121 25.3032 71.0406 25.3032ZM72.9657 22.2719C72.4779 22.4287 71.9378 22.4897 71.3891 22.4897C69.2288 22.4897 67.4605 21.2702 67.4605 18.3085C67.4605 15.6866 69.2811 14.1361 71.6939 14.1361C72.1817 14.1361 72.6086 14.1884 72.9657 14.3277V22.2719Z" fill="#FA0C00"/>
<path d="M85.7484 11.4009C81.6805 11.4009 79.1631 14.5193 79.1631 18.3694C79.1631 21.8101 81.1665 25.3031 85.6874 25.3031C89.5114 25.3031 92.1943 22.4896 92.1943 18.2823C92.1943 14.5716 89.9208 11.4009 85.7484 11.4009ZM85.5829 14.136C87.8825 14.136 88.8581 16.1134 88.8581 18.3694C88.8581 21.1568 87.4208 22.5418 85.7484 22.5418C83.6839 22.5418 82.4644 20.8084 82.4644 18.3084C82.4644 15.7388 83.7623 14.136 85.5829 14.136Z" fill="#FA0C00"/>
<path d="M95.2468 5.73901C95.1336 5.73901 95.0552 5.79128 95.0552 5.93065V24.467C95.0552 24.5454 95.1336 24.6848 95.2468 24.7109C96.5447 25.1116 97.9036 25.3032 99.306 25.3032C103.322 25.3032 107.224 22.8119 107.224 17.7946C107.224 14.1622 104.733 11.401 100.83 11.401C99.9332 11.401 99.0969 11.5403 98.3652 11.7842L98.3304 5.95678C98.3304 5.76515 98.2781 5.73901 98.0865 5.73901H95.2468ZM103.888 18.1256C103.888 21.1308 101.832 22.5419 99.6109 22.5419C99.1492 22.5419 98.7398 22.5158 98.3652 22.4025V14.4932C98.7921 14.3277 99.306 14.1884 100.255 14.1884C102.398 14.1884 103.888 15.5472 103.888 18.1256Z" fill="#FA0C00"/>
<path d="M118.244 19.1011C119.569 19.1011 120.657 19.075 121.032 18.9879C121.171 18.9617 121.224 18.9095 121.25 18.7962C121.328 18.5001 121.363 17.8816 121.363 17.1238C121.363 14.5454 119.812 11.4009 115.805 11.4009C111.711 11.4009 109.438 14.7371 109.438 18.5001C109.438 21.8363 111.198 25.3031 116.128 25.3031C117.974 25.3031 119.168 25.007 120.196 24.5192C120.3 24.4669 120.352 24.3798 120.352 24.223V21.9669C120.352 21.8363 120.274 21.8101 120.196 21.8624C119.168 22.2979 118.053 22.5157 116.833 22.5157C114.072 22.5157 112.818 20.9913 112.739 19.1011H118.244ZM112.739 16.7667C112.957 15.4426 113.793 14.0054 115.666 14.0054C117.731 14.0054 118.271 15.7388 118.271 16.5228C118.271 16.5489 118.271 16.6621 118.271 16.7405C118.157 16.7667 117.809 16.7667 116.781 16.7667H112.739Z" fill="#FA0C00"/>
</g>
<defs>
<clipPath id="clip0_869_10375">
<rect width="121.363" height="32" fill="white"/>
</clipPath>
</defs>
</svg>
