<svg width="74" height="87" viewBox="0 0 74 87" fill="none" xmlns="http://www.w3.org/2000/svg">
<path d="M50.1138 37.5316C36.707 26.9601 13.8223 28.3373 4.78998 43.8097C-2.21718 55.7989 -2.21718 70.5018 9.36693 79.5341C13.3768 82.6529 17.9942 85.0427 23.0572 86.0148C28.7278 87.0679 34.2768 86.7438 39.9878 86.0552C45.9824 85.2857 51.6934 84.0706 56.3109 79.8582C60.4828 76.0103 62.3865 70.4208 62.8725 64.8717C63.7636 54.6648 57.9715 43.7287 50.1138 37.5316Z" fill="#DE541E"/>
<g clip-path="url(#clip0_620_1629)">
<path d="M14 48V60H26V66H8V48H14ZM68 48V66H50V60H62V48H68ZM24.5 21C24.5001 24.0595 25.5389 27.0284 27.4465 29.4205C29.354 31.8125 32.0172 33.486 35 34.167V51H41L41.003 34.164C43.9847 33.4826 46.6469 31.8092 48.5538 29.4178C50.4607 27.0264 51.4994 24.0586 51.5 21H57.5C57.5007 24.5682 56.5223 28.0681 54.6714 31.1187C52.8205 34.1693 50.1681 36.6536 47.003 38.301L47 57H29V38.304C25.8339 36.6568 23.1805 34.1722 21.3291 31.121C19.4776 28.0698 18.4991 24.569 18.5 21H24.5ZM38 15C39.9891 15 41.8968 15.7902 43.3033 17.1967C44.7098 18.6032 45.5 20.5109 45.5 22.5C45.5 24.4891 44.7098 26.3968 43.3033 27.8033C41.8968 29.2098 39.9891 30 38 30C36.0109 30 34.1032 29.2098 32.6967 27.8033C31.2902 26.3968 30.5 24.4891 30.5 22.5C30.5 20.5109 31.2902 18.6032 32.6967 17.1967C34.1032 15.7902 36.0109 15 38 15ZM26 6V12L14 11.997V24H8V6H26ZM68 6V24H62V12H50V6H68Z" fill="#121212"/>
</g>
<defs>
<clipPath id="clip0_620_1629">
<rect width="72" height="72" fill="white" transform="translate(2)"/>
</clipPath>
</defs>
</svg>
