<svg width="78" height="95" viewBox="0 0 78 95" fill="none" xmlns="http://www.w3.org/2000/svg">
<path d="M53.582 29.3159C51.232 27.708 48.5933 26.4298 45.9958 25.3167C43.5221 24.2447 40.8834 23.7912 38.2035 23.3377C36.843 23.0903 35.4824 22.9666 34.1218 23.0078C31.5244 23.049 28.7621 23.1727 26.1646 23.75C20.7224 25.0281 16.517 27.172 12.0642 30.4291C10.0028 31.9545 8.3536 34.016 6.70443 35.9538C5.75616 37.1082 4.93159 38.3039 4.27193 39.6232C1.92186 44.2409 0.231445 48.8585 0.0252992 54.1359C-0.0983883 57.5166 0.231455 60.6913 1.01481 63.7835C0.973581 64.3607 0.973591 64.9379 0.973591 65.5563C0.932361 72.4828 2.78767 78.626 6.95182 84.1919C10.0852 88.3973 14.8266 91.3246 19.6504 93.1799C28.6384 96.6019 39.1518 94.9115 47.4801 90.5C51.5206 88.3561 55.4786 85.7174 58.9006 82.7077C63.3533 78.7497 66.528 74.2557 68.9605 68.8959C71.1456 64.0721 71.5167 58.6298 70.8983 53.3937C70.2798 47.869 67.3113 42.6741 63.8481 38.4275C60.9208 35.0055 57.2926 31.8721 53.582 29.3159Z" fill="#A2D2FF"/>
<g clip-path="url(#clip0_504_1598)">
<path d="M15 63C14.2044 63 13.4413 62.6839 12.8787 62.1213C12.3161 61.5587 12 60.7956 12 60V12C12 11.2044 12.3161 10.4413 12.8787 9.87868C13.4413 9.31607 14.2044 9 15 9H69C69.7956 9 70.5587 9.31607 71.1213 9.87868C71.6839 10.4413 72 11.2044 72 12V60C72 60.7956 71.6839 61.5587 71.1213 62.1213C70.5587 62.6839 69.7956 63 69 63H15ZM27 30H18V57H27V30ZM66 30H33V57H66V30ZM66 15H18V24H66V15Z" fill="#121212"/>
</g>
<defs>
<clipPath id="clip0_504_1598">
<rect width="72" height="72" fill="white" transform="translate(6)"/>
</clipPath>
</defs>
</svg>
