<svg width="74" height="87" viewBox="0 0 74 87" fill="none" xmlns="http://www.w3.org/2000/svg">
<path d="M50.1138 37.5316C36.707 26.9601 13.8223 28.3373 4.78998 43.8097C-2.21718 55.7989 -2.21718 70.5018 9.36693 79.5341C13.3768 82.6529 17.9942 85.0427 23.0572 86.0148C28.7278 87.0679 34.2768 86.7438 39.9878 86.0552C45.9824 85.2857 51.6934 84.0706 56.3109 79.8582C60.4828 76.0103 62.3865 70.4208 62.8725 64.8717C63.7636 54.6648 57.9715 43.7287 50.1138 37.5316Z" fill="#F49097"/>
<g clip-path="url(#clip0_916_1603)">
<path d="M53 39V42C53 50.31 51.008 58.335 47.255 65.538L46.574 66.798L41.333 63.876C44.813 57.636 46.763 50.646 46.979 43.368L47 42V39H53ZM35 30H41V42L40.985 43.137C40.7582 51.3501 37.9316 59.2795 32.912 65.784L32.219 66.654L27.569 62.862C32.1482 57.2696 34.7539 50.3224 34.982 43.098L35 42V30ZM38 18C41.9782 18 45.7936 19.5804 48.6066 22.3934C51.4196 25.2065 53 29.0218 53 33H47C47 30.6131 46.0518 28.3239 44.364 26.6361C42.6761 24.9482 40.3869 24 38 24C35.613 24 33.3239 24.9482 31.636 26.6361C29.9482 28.3239 29 30.6131 29 33V42C29 48.705 26.54 55.032 22.187 59.931L21.551 60.621L17.207 56.481C20.7169 52.8088 22.7697 47.9844 22.982 42.909L23 42V33C23 29.0218 24.5803 25.2065 27.3934 22.3934C30.2064 19.5804 34.0217 18 38 18ZM38 6.00003C45.1608 6.00003 52.0284 8.84466 57.0919 13.9081C62.1554 18.9716 65 25.8392 65 33V42C65 47.094 64.394 52.11 63.209 56.97L62.792 58.587L57.002 57.009C58.178 52.698 58.841 48.243 58.976 43.704L59 42V33C59 29.1026 57.9154 25.2821 55.8676 21.966C53.8198 18.65 50.8896 15.9692 47.4049 14.2237C43.9202 12.4783 40.0185 11.737 36.1365 12.0828C32.2545 12.4287 28.5453 13.848 25.424 16.182L21.149 11.904C25.9294 8.07387 31.8744 5.99094 38 6.00003ZM16.904 16.149L21.182 20.424C18.609 23.8537 17.1532 27.9918 17.012 32.277L17 33L17.012 39C17.012 42.36 16.22 45.609 14.726 48.531L14.258 49.401L9.047 46.425C10.187 44.43 10.853 42.204 10.985 39.876L11.012 39V33C10.9942 26.875 13.0734 20.9284 16.904 16.149Z" fill="#121212"/>
</g>
<defs>
<clipPath id="clip0_916_1603">
<rect width="72" height="72" fill="white" transform="translate(2)"/>
</clipPath>
</defs>
</svg>
