<svg width="1728" height="110" viewBox="0 0 1728 110" fill="none" xmlns="http://www.w3.org/2000/svg">
<rect x="-6" y="0.8125" width="54.1875" height="54.1875" rx="16" fill="#E8CE6A"/>
<rect x="102.375" y="0.8125" width="54.1875" height="54.1875" rx="16" fill="#E8CE6A"/>
<rect x="210.75" y="0.8125" width="54.1875" height="54.1875" rx="16" fill="#E8CE6A"/>
<rect x="319.125" y="0.8125" width="54.1875" height="54.1875" rx="16" fill="#E8CE6A"/>
<rect x="427.5" y="0.8125" width="54.1875" height="54.1875" rx="16" fill="#E8CE6A"/>
<rect x="535.875" y="0.8125" width="54.1875" height="54.1875" rx="16" fill="#E8CE6A"/>
<rect x="644.25" y="0.8125" width="54.1875" height="54.1875" rx="16" fill="#E8CE6A"/>
<rect x="752.625" y="0.8125" width="54.1875" height="54.1875" rx="16" fill="#E8CE6A"/>
<rect x="861" y="0.8125" width="54.1875" height="54.1875" rx="16" fill="#E8CE6A"/>
<rect x="969.375" y="0.8125" width="54.1875" height="54.1875" rx="16" fill="#E8CE6A"/>
<rect x="1077.75" y="0.8125" width="54.1875" height="54.1875" rx="16" fill="#E8CE6A"/>
<rect x="1186.12" y="0.8125" width="54.1875" height="54.1875" rx="16" fill="#E8CE6A"/>
<rect x="1294.5" y="0.8125" width="54.1875" height="54.1875" rx="16" fill="#E8CE6A"/>
<rect x="1402.88" y="0.8125" width="54.1875" height="54.1875" rx="16" fill="#E8CE6A"/>
<rect x="1511.25" y="0.8125" width="54.1875" height="54.1875" rx="16" fill="#E8CE6A"/>
<rect x="1619.62" y="0.8125" width="54.1875" height="54.1875" rx="16" fill="#E8CE6A"/>
<rect x="48.1875" y="55" width="54.1875" height="54.1875" rx="16" fill="#E8CE6A"/>
<rect x="156.562" y="55" width="54.1875" height="54.1875" rx="16" fill="#E8CE6A"/>
<rect x="264.938" y="55" width="54.1875" height="54.1875" rx="16" fill="#E8CE6A"/>
<rect x="373.312" y="55" width="54.1875" height="54.1875" rx="16" fill="#E8CE6A"/>
<rect x="481.688" y="55" width="54.1875" height="54.1875" rx="16" fill="#E8CE6A"/>
<rect x="590.062" y="55" width="54.1875" height="54.1875" rx="16" fill="#E8CE6A"/>
<rect x="698.438" y="55" width="54.1875" height="54.1875" rx="16" fill="#E8CE6A"/>
<rect x="806.812" y="55" width="54.1875" height="54.1875" rx="16" fill="#E8CE6A"/>
<rect x="915.188" y="55" width="54.1875" height="54.1875" rx="16" fill="#E8CE6A"/>
<rect x="1023.56" y="55" width="54.1875" height="54.1875" rx="16" fill="#E8CE6A"/>
<rect x="1131.94" y="55" width="54.1875" height="54.1875" rx="16" fill="#E8CE6A"/>
<rect x="1240.31" y="55" width="54.1875" height="54.1875" rx="16" fill="#E8CE6A"/>
<rect x="1348.69" y="55" width="54.1875" height="54.1875" rx="16" fill="#E8CE6A"/>
<rect x="1457.06" y="55" width="54.1875" height="54.1875" rx="16" fill="#E8CE6A"/>
<rect x="1565.44" y="55" width="54.1875" height="54.1875" rx="16" fill="#E8CE6A"/>
<rect x="1673.81" y="55" width="54.1875" height="54.1875" rx="16" fill="#E8CE6A"/>
</svg>
