<svg width="40" height="40" viewBox="0 0 40 40" fill="none" xmlns="http://www.w3.org/2000/svg">
<path d="M36.6663 21.665V33.3333C36.6663 33.7754 36.4907 34.1993 36.1782 34.5118C35.8656 34.8244 35.4417 35 34.9997 35H21.6663V21.665H36.6663ZM18.333 21.665V35H4.99967C4.55765 35 4.13372 34.8244 3.82116 34.5118C3.5086 34.1993 3.33301 33.7754 3.33301 33.3333V21.665H18.333V21.665ZM18.333 5V18.3317H3.33301V6.66667C3.33301 6.22464 3.5086 5.80072 3.82116 5.48816C4.13372 5.17559 4.55765 5 4.99967 5H18.333ZM34.9997 5C35.4417 5 35.8656 5.17559 36.1782 5.48816C36.4907 5.80072 36.6663 6.22464 36.6663 6.66667V18.3317H21.6663V5H34.9997Z" fill="#121212"/>
</svg>
