<svg width="229" height="161" viewBox="0 0 229 161" fill="none" xmlns="http://www.w3.org/2000/svg">
<path d="M144.651 128.677C178.376 128.677 205.726 101.332 205.726 67.6003C205.726 33.8689 178.376 6.52544 144.651 6.52544C110.918 6.52544 83.5762 33.8689 83.5762 67.6003C83.5762 101.332 110.918 128.677 144.651 128.677Z" fill="#59CC8D"/>
<path d="M166.84 87.705C166.877 78.9558 161.35 71.1434 153.11 68.2556C152.728 68.1202 152.533 67.6905 152.668 67.3102C152.732 67.0953 152.911 66.9277 153.113 66.859C161.383 64.0099 166.926 56.2211 166.946 47.4654L166.978 29.9047L125.866 29.7929L125.825 47.373C125.814 56.1115 131.323 63.9154 139.555 66.8225C139.937 66.9557 140.133 67.3876 140.017 67.7765C139.952 67.9892 139.774 68.1568 139.57 68.2277C131.302 71.0767 125.756 78.8634 125.728 87.5954L125.688 105.173L166.799 105.285L166.84 87.705Z" fill="white"/>
<path d="M161.25 94.688L161.242 100.107L131.238 100.034L131.258 87.213C131.271 85.6874 131.498 84.164 131.96 82.7137L161.25 94.688Z" fill="#82D9AA"/>
<path opacity="0.2" d="M145.018 88.051L154.218 95.0039L154.214 100.094L161.246 100.107L161.255 94.6881L145.018 88.051Z" fill="#1C7344"/>
<path d="M146.34 62.8432C138.044 62.8174 131.356 56.0814 131.375 47.8049L131.869 39.5842L160.955 51.4769C159.277 58.1441 153.246 62.8475 146.34 62.8432Z" fill="#82D9AA"/>
<path opacity="0.2" d="M160.951 51.4834L154.752 48.9501C153.078 55.6087 147.047 60.3121 140.141 60.3078C139.334 60.3057 138.53 60.239 137.75 60.1166C140.176 61.8312 143.128 62.841 146.34 62.8432C153.246 62.8475 159.277 58.1441 160.951 51.4834Z" fill="#1C7344"/>
<path d="M121.846 105.16L170.536 105.289" stroke="#1C7344" stroke-linecap="round" stroke-linejoin="round"/>
<path d="M122.213 29.7435L170.884 29.8638" stroke="#1C7344" stroke-linecap="round" stroke-linejoin="round"/>
<path d="M143.657 51.5263C152.589 55.179 159.084 53.7953 160.109 51.1374L132.551 39.87C131.786 44.5927 135.323 48.1186 143.657 51.5263Z" fill="#E9ECEF"/>
<path d="M144.246 94.905C152.748 98.3815 161.252 94.688 160.911 94.5591L132.717 83.0317C131.937 82.834 135.557 91.3512 144.246 94.905Z" fill="#E9ECEF"/>
<path d="M204.918 12.1548L204.647 0L211.851 10.5756L222.156 6.64572L214.78 16.2587L219.537 25.1003L210.388 20.9771L199.293 31.2626L203.394 17.8766L192.299 12.9434L204.918 12.1548Z" fill="#82D9AA"/>
<path d="M202.587 14.7353L202.297 2.56116L209.521 13.1367L219.828 9.22622L212.45 18.8199L217.207 27.6808L208.039 23.5382L196.943 33.8452L201.047 20.4571L189.971 15.5067L202.587 14.7353Z" stroke="#1C7344" stroke-linecap="round" stroke-linejoin="round"/>
<path d="M1.3418 87.6792C24.8135 81.9015 47.0862 58.2924 49.8493 39.1029C52.071 23.6049 35.6211 32.0339 29.4588 54.9856C23.8165 75.9649 25.6987 107.505 71.0563 106.325C71.0563 106.325 54.3808 122.049 63.6478 137.727C72.9149 153.406 103.004 144.096 101.825 133.967C100.942 126.468 73.278 136.165 68.1342 160" stroke="#1C7344" stroke-linecap="round" stroke-linejoin="round"/>
<path d="M86.1465 102.634L101.849 99.0519" stroke="#1C7344" stroke-linecap="round" stroke-linejoin="round"/>
<path d="M83.0449 110.358L93.4207 111.469" stroke="#1C7344" stroke-linecap="round" stroke-linejoin="round"/>
<path d="M209.019 139.401L209.23 153.472L215.368 140.183L223.834 146.399L218.4 136.047L228.657 125.809L215.806 131.223L215.865 116.58L210.85 131.509L200.556 123.559L207.934 135.093L195.846 139.515L209.019 139.401Z" fill="#82D9AA"/>
</svg>
