<svg width="78" height="95" viewBox="0 0 78 95" fill="none" xmlns="http://www.w3.org/2000/svg">
<path d="M53.582 29.3159C51.232 27.708 48.5933 26.4298 45.9958 25.3167C43.5221 24.2447 40.8834 23.7912 38.2035 23.3377C36.843 23.0903 35.4824 22.9666 34.1218 23.0078C31.5244 23.049 28.7621 23.1727 26.1646 23.75C20.7224 25.0281 16.517 27.172 12.0642 30.4291C10.0028 31.9545 8.3536 34.016 6.70443 35.9538C5.75616 37.1082 4.93159 38.3039 4.27193 39.6232C1.92186 44.2409 0.231445 48.8585 0.0252992 54.1359C-0.0983883 57.5166 0.231455 60.6913 1.01481 63.7835C0.973581 64.3607 0.973591 64.9379 0.973591 65.5563C0.932361 72.4828 2.78767 78.626 6.95182 84.1919C10.0852 88.3973 14.8266 91.3246 19.6504 93.1799C28.6384 96.6019 39.1518 94.9115 47.4801 90.5C51.5206 88.3561 55.4786 85.7174 58.9006 82.7077C63.3533 78.7497 66.528 74.2557 68.9605 68.8959C71.1456 64.0721 71.5167 58.6298 70.8983 53.3937C70.2798 47.869 67.3113 42.6741 63.8481 38.4275C60.9208 35.0055 57.2926 31.8721 53.582 29.3159Z" fill="#FAEDCD"/>
<g clip-path="url(#clip0_504_1737)">
<path d="M45 24V48C45 50.3869 44.0518 52.6761 42.364 54.364C40.6761 56.0518 38.3869 57 36 57H29.49C28.7823 59.0025 27.3894 60.6903 25.5576 61.7651C23.7258 62.8399 21.5729 63.2325 19.4796 62.8734C17.3863 62.5144 15.4874 61.4269 14.1184 59.8031C12.7494 58.1793 11.9985 56.1239 11.9985 54C11.9985 51.8761 12.7494 49.8207 14.1184 48.1969C15.4874 46.5731 17.3863 45.4856 19.4796 45.1266C21.5729 44.7675 23.7258 45.1601 25.5576 46.2349C27.3894 47.3097 28.7823 48.9975 29.49 51H36C36.7956 51 37.5587 50.6839 38.1213 50.1213C38.6839 49.5587 39 48.7957 39 48V24C39 21.6131 39.9482 19.3239 41.636 17.636C43.3239 15.9482 45.6131 15 48 15H57V6L72 18L57 30V21H48C47.2043 21 46.4413 21.3161 45.8787 21.8787C45.3161 22.4413 45 23.2044 45 24ZM21 57C21.7956 57 22.5587 56.6839 23.1213 56.1213C23.6839 55.5587 24 54.7957 24 54C24 53.2043 23.6839 52.4413 23.1213 51.8787C22.5587 51.3161 21.7956 51 21 51C20.2043 51 19.4413 51.3161 18.8787 51.8787C18.3161 52.4413 18 53.2043 18 54C18 54.7957 18.3161 55.5587 18.8787 56.1213C19.4413 56.6839 20.2043 57 21 57Z" fill="#121212"/>
</g>
<defs>
<clipPath id="clip0_504_1737">
<rect width="72" height="72" fill="white" transform="translate(6)"/>
</clipPath>
</defs>
</svg>
