<svg width="78" height="95" viewBox="0 0 78 95" fill="none" xmlns="http://www.w3.org/2000/svg">
<path d="M53.582 29.3159C51.232 27.708 48.5933 26.4298 45.9958 25.3167C43.5221 24.2447 40.8834 23.7912 38.2035 23.3377C36.843 23.0903 35.4824 22.9666 34.1218 23.0078C31.5244 23.049 28.7621 23.1727 26.1646 23.75C20.7224 25.0281 16.517 27.172 12.0642 30.4291C10.0028 31.9545 8.3536 34.016 6.70443 35.9538C5.75616 37.1082 4.93159 38.3039 4.27193 39.6232C1.92186 44.2409 0.231445 48.8585 0.0252992 54.1359C-0.0983883 57.5166 0.231455 60.6913 1.01481 63.7835C0.973581 64.3607 0.973591 64.9379 0.973591 65.5563C0.932361 72.4828 2.78767 78.626 6.95182 84.1919C10.0852 88.3973 14.8266 91.3246 19.6504 93.1799C28.6384 96.6019 39.1518 94.9115 47.4801 90.5C51.5206 88.3561 55.4786 85.7174 58.9006 82.7077C63.3533 78.7497 66.528 74.2557 68.9605 68.8959C71.1456 64.0721 71.5167 58.6298 70.8983 53.3937C70.2798 47.869 67.3113 42.6741 63.8481 38.4275C60.9208 35.0055 57.2926 31.8721 53.582 29.3159Z" fill="#6564DB"/>
<g clip-path="url(#clip0_620_1647)">
<path d="M18 45V25.5C18 21.9196 19.4223 18.4858 21.9541 15.9541C24.4858 13.4223 27.9196 12 31.5 12C35.0804 12 38.5142 13.4223 41.0459 15.9541C43.5777 18.4858 45 21.9196 45 25.5V46.5C45 48.4891 45.7902 50.3968 47.1967 51.8033C48.6032 53.2098 50.5109 54 52.5 54C54.4891 54 56.3968 53.2098 57.8033 51.8033C59.2098 50.3968 60 48.4891 60 46.5V26.49C57.9975 25.7823 56.3097 24.3894 55.2349 22.5576C54.1601 20.7258 53.7675 18.5729 54.1266 16.4796C54.4856 14.3863 55.5731 12.4874 57.1969 11.1184C58.8207 9.74939 60.8761 8.99854 63 8.99854C65.1239 8.99854 67.1793 9.74939 68.8031 11.1184C70.4269 12.4874 71.5144 14.3863 71.8734 16.4796C72.2325 18.5729 71.8399 20.7258 70.7651 22.5576C69.6903 24.3894 68.0025 25.7823 66 26.49V46.5C66 50.0804 64.5777 53.5142 62.0459 56.0459C59.5142 58.5777 56.0804 60 52.5 60C48.9196 60 45.4858 58.5777 42.9541 56.0459C40.4223 53.5142 39 50.0804 39 46.5V25.5C39 23.5109 38.2098 21.6032 36.8033 20.1967C35.3968 18.7902 33.4891 18 31.5 18C29.5109 18 27.6032 18.7902 26.1967 20.1967C24.7902 21.6032 24 23.5109 24 25.5V45H33L21 60L9 45H18ZM63 21C63.7957 21 64.5587 20.6839 65.1213 20.1213C65.6839 19.5587 66 18.7956 66 18C66 17.2043 65.6839 16.4413 65.1213 15.8787C64.5587 15.3161 63.7957 15 63 15C62.2043 15 61.4413 15.3161 60.8787 15.8787C60.3161 16.4413 60 17.2043 60 18C60 18.7956 60.3161 19.5587 60.8787 20.1213C61.4413 20.6839 62.2043 21 63 21Z" fill="#121212"/>
</g>
<defs>
<clipPath id="clip0_620_1647">
<rect width="72" height="72" fill="white" transform="translate(6)"/>
</clipPath>
</defs>
</svg>
