<svg width="40" height="41" viewBox="0 0 40 41" fill="none" xmlns="http://www.w3.org/2000/svg">
<path d="M40 20.5C40 31.5457 31.0457 40.5 20 40.5C8.9543 40.5 0 31.5457 0 20.5C0 9.4543 8.9543 0.5 20 0.5C31.0457 0.5 40 9.4543 40 20.5ZM3.44695 20.5C3.44695 29.642 10.858 37.0531 20 37.0531C29.142 37.0531 36.5531 29.642 36.5531 20.5C36.5531 11.358 29.142 3.94695 20 3.94695C10.858 3.94695 3.44695 11.358 3.44695 20.5Z" fill="#DDDDDD"/>
<path d="M38.2765 20.5C39.2284 20.5 40.0077 21.2731 39.9258 22.2214C39.6003 25.9893 38.2115 29.6007 35.9041 32.6268C33.2473 36.1112 29.5196 38.6267 25.2941 39.7866C21.0686 40.9465 16.5792 40.6866 12.5157 39.0469C8.4523 37.4071 5.03982 34.4783 2.80279 30.7106C0.565753 26.9428 -0.372023 22.5447 0.133597 18.1922C0.639217 13.8397 2.56025 9.77362 5.60143 6.61904C8.64261 3.46446 12.6356 1.39592 16.9667 0.731357C20.7281 0.154216 24.5637 0.663719 28.0275 2.18172C28.8994 2.56378 29.205 3.61812 28.7494 4.45381C28.2937 5.2895 27.2494 5.58841 26.3709 5.22206C23.5763 4.05666 20.5041 3.67588 17.4895 4.13843C13.9048 4.68846 10.6 6.40049 8.08298 9.01138C5.56594 11.6223 3.976 14.9875 3.55752 18.5899C3.13904 22.1923 3.91519 25.8324 5.76668 28.9508C7.61817 32.0692 10.4425 34.4932 13.8056 35.8503C17.1687 37.2075 20.8845 37.4226 24.3817 36.4626C27.8789 35.5026 30.9641 33.4207 33.1631 30.5368C35.0124 28.1115 36.1488 25.2319 36.4634 22.2204C36.5623 21.2737 37.3247 20.5 38.2765 20.5Z" fill="#2FBF71"/>
</svg>
