<svg width="168" height="32" viewBox="0 0 168 32" fill="none" xmlns="http://www.w3.org/2000/svg">
<path fill-rule="evenodd" clip-rule="evenodd" d="M149.764 24.5702L155.949 16.2496L150.244 8.3877H155.129L158.433 13.2929L161.766 8.3877H166.624L160.834 16.2215L166.934 24.5702H162.134L158.377 19.2906L154.734 24.5702H149.764Z" fill="black"/>
<path fill-rule="evenodd" clip-rule="evenodd" d="M134.213 16.8024C134.213 22.1433 137.13 24.9826 142.297 24.9826C147.133 24.9826 150.411 22.1433 150.411 16.8024V16.3526C150.411 10.9553 147.077 7.97559 142.297 7.97559C137.63 7.97559 134.213 10.8991 134.213 16.3526V16.8024ZM146.2 16.8035C146.2 19.7665 144.723 21.3751 142.297 21.3751C139.901 21.3751 138.424 19.7383 138.424 16.8035V16.4085C138.424 13.2481 139.984 11.5831 142.326 11.5831C144.695 11.5831 146.2 13.361 146.2 16.4085V16.8035Z" fill="black"/>
<path fill-rule="evenodd" clip-rule="evenodd" d="M120.084 21.6108C120.96 23.6902 122.713 24.9827 125.399 24.9827C129.554 24.9827 132.269 21.9479 132.269 16.553V16.0753C132.269 10.6803 129.385 8.01094 125.512 7.98284C122.939 7.98284 121.13 9.13489 120.225 11.2423V2.92505H116.069V24.5612H119.744L120.084 21.6108ZM128.056 16.5917C128.056 19.7993 126.574 21.3751 124.141 21.3751C121.819 21.3751 120.281 19.6305 120.281 16.5917V16.254C120.281 13.4685 121.875 11.5832 124.197 11.5832C126.434 11.5832 128.056 13.2151 128.056 16.1978V16.5917Z" fill="black"/>
<path fill-rule="evenodd" clip-rule="evenodd" d="M97.6025 8.40693V30.1363H101.751V21.9987C102.626 23.8892 104.347 25.046 106.944 25.046C110.782 25.046 113.802 22.2526 113.802 16.8917V16.4403C113.802 10.9664 111.092 7.97559 106.944 7.97559C104.263 7.97559 102.457 9.35815 101.582 11.4461L101.158 8.40693H97.6025ZM109.59 16.7886C109.59 19.7712 108.051 21.3751 105.646 21.3751C103.325 21.3751 101.814 19.5742 101.814 16.7042V16.3946C101.814 13.3839 103.381 11.5831 105.73 11.5831C107.94 11.5831 109.59 13.187 109.59 16.4227V16.7886Z" fill="black"/>
<path fill-rule="evenodd" clip-rule="evenodd" d="M79.1357 16.8024C79.1357 22.1433 82.081 24.9826 87.2491 24.9826C92.0838 24.9826 95.3347 22.1433 95.3347 16.8024V16.3526C95.3347 10.9553 92.0282 7.97559 87.2491 7.97559C82.5811 7.97559 79.1357 10.8991 79.1357 16.3526V16.8024ZM91.1229 16.8035C91.1229 19.7665 89.618 21.3751 87.2212 21.3751C84.8246 21.3751 83.3474 19.7383 83.3474 16.8035V16.4085C83.3474 13.2481 84.9082 11.5831 87.2491 11.5831C89.618 11.5831 91.1229 13.361 91.1229 16.4085V16.8035Z" fill="black"/>
<path fill-rule="evenodd" clip-rule="evenodd" d="M67.7964 24.5705H72.0453V17.1364C72.0453 13.701 72.8951 12.4902 76.4076 12.4902H78.1637V8.18188H77.1157C74.0849 8.18188 72.4136 9.50535 71.7621 12.096L71.2238 8.38708H67.7964V24.5705Z" fill="black"/>
<path fill-rule="evenodd" clip-rule="evenodd" d="M49.0054 4.57397V24.5701H56.7201C61.7453 24.5701 65.5285 21.6511 65.5285 15.1958V13.8205C65.5285 7.39315 61.5195 4.57397 56.6072 4.57397H49.0054ZM53.2172 8.18153H56.431C59.3337 8.18153 61.3167 10.0154 61.3167 14.0501V15.0941C61.3167 19.1286 59.3912 20.9626 56.5748 20.9626H53.2172V8.18153Z" fill="black"/>
<path d="M9.85678 0.409912L0.612305 6.28896L9.85678 12.168L19.1028 6.28896L28.3473 12.168L37.5917 6.28896L28.3473 0.409912L19.1028 6.28896L9.85678 0.409912Z" fill="#0056FE"/>
<path d="M9.85678 23.9265L0.612305 18.0473L9.85678 12.1682L19.1028 18.0473L9.85678 23.9265Z" fill="#0056FE"/>
<path d="M19.103 18.0473L28.3476 12.1682L37.592 18.0473L28.3476 23.9265L19.103 18.0473Z" fill="#0056FE"/>
<path d="M19.1029 31.7649L9.85693 25.8859L19.1029 20.0068L28.3475 25.8859L19.1029 31.7649Z" fill="#0056FE"/>
</svg>
