<svg width="56" height="56" viewBox="0 0 56 56" fill="none" xmlns="http://www.w3.org/2000/svg">
<g clip-path="url(#clip0_372_737)">
<path d="M14 18.6667V16.3334C14 12.6203 15.475 9.05939 18.1005 6.43388C20.726 3.80837 24.287 2.33337 28 2.33337C31.713 2.33337 35.274 3.80837 37.8995 6.43388C40.525 9.05939 42 12.6203 42 16.3334V18.6667H46.6667C47.2855 18.6667 47.879 18.9125 48.3166 19.3501C48.7542 19.7877 49 20.3812 49 21V49C49 49.6189 48.7542 50.2124 48.3166 50.65C47.879 51.0875 47.2855 51.3334 46.6667 51.3334H9.33333C8.71449 51.3334 8.121 51.0875 7.68342 50.65C7.24583 50.2124 7 49.6189 7 49V21C7 20.3812 7.24583 19.7877 7.68342 19.3501C8.121 18.9125 8.71449 18.6667 9.33333 18.6667H14ZM44.3333 23.3334H11.6667V46.6667H44.3333V23.3334ZM25.6667 36.708C24.777 36.1944 24.0817 35.4015 23.6886 34.4524C23.2954 33.5033 23.2265 32.4511 23.4923 31.4588C23.7582 30.4665 24.3441 29.5896 25.1591 28.9643C25.9741 28.3389 26.9727 27.9999 28 27.9999C29.0273 27.9999 30.0259 28.3389 30.8409 28.9643C31.6559 29.5896 32.2418 30.4665 32.5077 31.4588C32.7735 32.4511 32.7046 33.5033 32.3114 34.4524C31.9183 35.4015 31.223 36.1944 30.3333 36.708V42H25.6667V36.708ZM18.6667 18.6667H37.3333V16.3334C37.3333 13.858 36.35 11.484 34.5997 9.73371C32.8493 7.98337 30.4754 7.00004 28 7.00004C25.5246 7.00004 23.1507 7.98337 21.4003 9.73371C19.65 11.484 18.6667 13.858 18.6667 16.3334V18.6667Z" fill="url(#paint0_linear_372_737)"/>
</g>
<defs>
<linearGradient id="paint0_linear_372_737" x1="28" y1="2.33337" x2="28" y2="51.3334" gradientUnits="userSpaceOnUse">
<stop stop-color="#1D68CE"/>
<stop offset="1" stop-color="#CA66EA"/>
</linearGradient>
<clipPath id="clip0_372_737">
<rect width="56" height="56" fill="white"/>
</clipPath>
</defs>
</svg>
