<svg width="78" height="95" viewBox="0 0 78 95" fill="none" xmlns="http://www.w3.org/2000/svg">
<path d="M53.582 29.3159C51.232 27.708 48.5933 26.4298 45.9958 25.3167C43.5221 24.2447 40.8834 23.7912 38.2035 23.3377C36.843 23.0903 35.4824 22.9666 34.1218 23.0078C31.5244 23.049 28.7621 23.1727 26.1646 23.75C20.7224 25.0281 16.517 27.172 12.0642 30.4291C10.0028 31.9545 8.3536 34.016 6.70443 35.9538C5.75616 37.1082 4.93159 38.3039 4.27193 39.6232C1.92186 44.2409 0.231445 48.8585 0.0252992 54.1359C-0.0983883 57.5166 0.231455 60.6913 1.01481 63.7835C0.973581 64.3607 0.973591 64.9379 0.973591 65.5563C0.932361 72.4828 2.78767 78.626 6.95182 84.1919C10.0852 88.3973 14.8266 91.3246 19.6504 93.1799C28.6384 96.6019 39.1518 94.9115 47.4801 90.5C51.5206 88.3561 55.4786 85.7174 58.9006 82.7077C63.3533 78.7497 66.528 74.2557 68.9605 68.8959C71.1456 64.0721 71.5167 58.6298 70.8983 53.3937C70.2798 47.869 67.3113 42.6741 63.8481 38.4275C60.9208 35.0055 57.2926 31.8721 53.582 29.3159Z" fill="#D6D6B1"/>
<g clip-path="url(#clip0_620_1620)">
<path d="M57 39C59.3734 39 61.6935 39.7038 63.6668 41.0224C65.6402 42.3409 67.1783 44.2151 68.0866 46.4078C68.9948 48.6005 69.2324 51.0133 68.7694 53.3411C68.3064 55.6689 67.1635 57.807 65.4853 59.4853C63.807 61.1635 61.6689 62.3064 59.3411 62.7694C57.0133 63.2324 54.6005 62.9948 52.4078 62.0866C50.2151 61.1783 48.3409 59.6402 47.0224 57.6668C45.7038 55.6935 45 53.3734 45 51H39C38.9989 53.9113 37.9394 56.723 36.0189 58.9111C34.0985 61.0992 31.4481 62.5145 28.5615 62.8933C25.6749 63.2721 22.7491 62.5887 20.3291 60.9702C17.909 59.3518 16.1599 56.9087 15.4076 54.0963C14.6553 51.2839 14.951 48.2938 16.2398 45.6833C17.5286 43.0727 19.7224 41.0197 22.4126 39.9068C25.1028 38.7938 28.1059 38.6968 30.8623 39.6339C33.6187 40.5709 35.9405 42.4781 37.395 45H46.605C47.658 43.175 49.1732 41.6595 50.998 40.6062C52.8229 39.5529 54.893 38.9989 57 39V39ZM27 45C25.4087 45 23.8826 45.6321 22.7574 46.7574C21.6321 47.8826 21 49.4087 21 51C21 52.5913 21.6321 54.1174 22.7574 55.2426C23.8826 56.3679 25.4087 57 27 57C28.5913 57 30.1174 56.3679 31.2426 55.2426C32.3679 54.1174 33 52.5913 33 51C33 49.4087 32.3679 47.8826 31.2426 46.7574C30.1174 45.6321 28.5913 45 27 45ZM57 45C55.4087 45 53.8826 45.6321 52.7574 46.7574C51.6321 47.8826 51 49.4087 51 51C51 52.5913 51.6321 54.1174 52.7574 55.2426C53.8826 56.3679 55.4087 57 57 57C58.5913 57 60.1174 56.3679 61.2426 55.2426C62.3679 54.1174 63 52.5913 63 51C63 49.4087 62.3679 47.8826 61.2426 46.7574C60.1174 45.6321 58.5913 45 57 45ZM54 9C57.1826 9 60.2348 10.2643 62.4853 12.5147C64.7357 14.7652 66 17.8174 66 21V30H72V36H12V30H18V21C18 17.8174 19.2643 14.7652 21.5147 12.5147C23.7652 10.2643 26.8174 9 30 9H54ZM54 15H30C26.838 15 24 17.85 24 21V30H60V21C60 17.838 57.15 15 54 15Z" fill="#121212"/>
</g>
<defs>
<clipPath id="clip0_620_1620">
<rect width="72" height="72" fill="white" transform="translate(6)"/>
</clipPath>
</defs>
</svg>
