<svg width="32" height="44" viewBox="0 0 32 44" fill="none" xmlns="http://www.w3.org/2000/svg">
<path fill-rule="evenodd" clip-rule="evenodd" d="M20.5701 2.28406C20.0068 1.62196 19.3064 1.09016 18.5173 0.72546C17.7282 0.360761 16.8693 0.171875 16.0001 0.171875C15.1308 0.171875 14.2719 0.360761 13.4828 0.72546C12.6937 1.09016 11.9933 1.62196 11.4301 2.28406L11.3461 2.38406C11.1405 2.62515 10.8807 2.81398 10.5879 2.93498C10.2952 3.05599 9.97782 3.10571 9.66206 3.08006L9.53206 3.07006C8.66592 3.00065 7.79504 3.12018 6.97963 3.42041C6.16423 3.72064 5.42376 4.19439 4.80944 4.8089C4.19512 5.42341 3.72159 6.16403 3.42162 6.97952C3.12165 7.79502 3.00238 8.66594 3.07206 9.53206L3.08006 9.66206C3.10571 9.97782 3.05599 10.2952 2.93498 10.5879C2.81398 10.8807 2.62515 11.1405 2.38406 11.3461L2.28406 11.4301C1.62196 11.9933 1.09016 12.6937 0.72546 13.4828C0.360761 14.2719 0.171875 15.1308 0.171875 16.0001C0.171875 16.8693 0.360761 17.7282 0.72546 18.5173C1.09016 19.3064 1.62196 20.0068 2.28406 20.5701L2.38406 20.6541C2.62515 20.8596 2.81398 21.1194 2.93498 21.4122C3.05599 21.705 3.10571 22.0223 3.08006 22.3381L3.07006 22.4681C2.95093 23.9553 3.38983 25.4337 4.30124 26.615C5.21264 27.7963 6.53124 28.5959 8.00006 28.8581V42.0001C8.00001 42.3621 8.09825 42.7175 8.28431 43.0281C8.47037 43.3387 8.73727 43.593 9.05653 43.7638C9.37579 43.9346 9.73543 44.0156 10.0971 43.998C10.4588 43.9804 10.8089 43.865 11.1101 43.6641L16.0001 40.4041L20.8901 43.6641C21.1913 43.865 21.5414 43.9804 21.903 43.998C22.2647 44.0156 22.6243 43.9346 22.9436 43.7638C23.2629 43.593 23.5297 43.3387 23.7158 43.0281C23.9019 42.7175 24.0001 42.3621 24.0001 42.0001V28.8601C25.4693 28.5979 26.7881 27.798 27.6996 26.6162C28.611 25.4345 29.0497 23.9557 28.9301 22.4681L28.9201 22.3381C28.8944 22.0223 28.9441 21.705 29.0651 21.4122C29.1861 21.1194 29.375 20.8596 29.6161 20.6541L29.7161 20.5701C30.3782 20.0068 30.91 19.3064 31.2747 18.5173C31.6394 17.7282 31.8282 16.8693 31.8282 16.0001C31.8282 15.1308 31.6394 14.2719 31.2747 13.4828C30.91 12.6937 30.3782 11.9933 29.7161 11.4301L29.6161 11.3461C29.375 11.1405 29.1861 10.8807 29.0651 10.5879C28.9441 10.2952 28.8944 9.97782 28.9201 9.66206L28.9301 9.53206C28.9995 8.66592 28.8799 7.79504 28.5797 6.97963C28.2795 6.16423 27.8057 5.42376 27.1912 4.80944C26.5767 4.19511 25.8361 3.72159 25.0206 3.42162C24.2051 3.12165 23.3342 3.00238 22.4681 3.07206L22.3381 3.08006C22.0223 3.10571 21.705 3.05599 21.4122 2.93498C21.1194 2.81398 20.8596 2.62515 20.6541 2.38406L20.5701 2.28406ZM12.0001 38.2641V30.3001C13.1005 31.2831 14.5244 31.8266 16.0001 31.8266C17.4757 31.8266 18.8996 31.2831 20.0001 30.3001V38.2601L17.1101 36.3341C16.7814 36.1148 16.3952 35.9978 16.0001 35.9978C15.605 35.9978 15.2187 36.1148 14.8901 36.3341L12.0001 38.2641ZM21.4141 15.4141C21.7784 15.0369 21.98 14.5317 21.9754 14.0073C21.9709 13.4829 21.7605 12.9812 21.3897 12.6104C21.0189 12.2396 20.5173 12.0293 19.9929 12.0247C19.4685 12.0202 18.9633 12.2217 18.5861 12.5861L14.0001 17.1721L13.4141 16.5861C13.0369 16.2217 12.5317 16.0202 12.0073 16.0247C11.4829 16.0293 10.9812 16.2396 10.6104 16.6104C10.2396 16.9812 10.0293 17.4829 10.0247 18.0073C10.0202 18.5317 10.2217 19.0369 10.5861 19.4141L12.5861 21.4141C12.9611 21.789 13.4697 21.9996 14.0001 21.9996C14.5304 21.9996 15.039 21.789 15.4141 21.4141L21.4141 15.4141Z" fill="#E8CE6A"/>
</svg>
