<svg width="56" height="56" viewBox="0 0 56 56" fill="none" xmlns="http://www.w3.org/2000/svg">
<g clip-path="url(#clip0_372_711)">
<path d="M14.5483 15.057C11.5734 18.1447 9.75216 22.1624 9.39065 26.4347C9.02915 30.7071 10.1495 34.9737 12.5633 38.5173C14.9771 42.0609 18.5372 44.6656 22.6453 45.8935C26.7533 47.1213 31.1588 46.8975 35.1213 45.2597C35.3897 43.5097 34.8017 41.8297 34.5613 41.2417C34.0247 39.935 32.256 37.702 29.3043 34.6057C28.5157 33.7774 28.567 33.1404 28.8493 31.2527L28.8797 31.0404C29.071 29.7477 29.393 28.9824 33.7447 28.2917C35.9567 27.9417 36.5377 28.8237 37.3427 30.0487L37.6133 30.45C38.3787 31.57 38.9457 31.8267 39.802 32.214C40.187 32.389 40.6653 32.6107 41.307 32.9724C42.8283 33.8427 42.8283 34.825 42.8283 36.9764V37.2214C42.8283 38.1337 42.7397 38.9364 42.5997 39.634C44.3902 37.3868 45.6379 34.7567 46.2457 31.9485C46.8535 29.1402 46.805 26.2295 46.1039 23.4431C45.4028 20.6566 44.0681 18.0696 42.2037 15.8833C40.3393 13.6971 37.9954 11.9706 35.3547 10.8384C34.0643 11.7087 32.2933 12.943 31.675 13.79C31.36 14.2217 30.912 16.4314 29.4583 16.6134C29.0803 16.66 28.5693 16.6274 28.028 16.5924C26.5767 16.499 24.5933 16.3707 23.9587 18.095C23.555 19.187 23.485 22.155 24.7893 23.695C24.9993 23.94 25.039 24.395 24.8967 24.906C24.71 25.5757 24.3343 25.984 24.2153 26.068C23.9913 25.9374 23.5433 25.417 23.2377 25.0647C22.5073 24.213 21.5927 23.1514 20.412 22.8247C19.9827 22.7057 19.5113 22.6077 19.0517 22.5097C17.7707 22.2414 16.3217 21.9357 15.9833 21.217C15.736 20.6897 15.7383 19.964 15.7383 19.1987C15.7383 18.2257 15.7383 17.1267 15.2623 16.0604C15.0968 15.6798 14.8536 15.3381 14.5483 15.057ZM28 51.3334C15.113 51.3334 4.66666 40.887 4.66666 28C4.66666 15.113 15.113 4.66669 28 4.66669C40.887 4.66669 51.3333 15.113 51.3333 28C51.3333 40.887 40.887 51.3334 28 51.3334Z" fill="url(#paint0_linear_372_711)"/>
</g>
<defs>
<linearGradient id="paint0_linear_372_711" x1="28" y1="4.66669" x2="28" y2="51.3334" gradientUnits="userSpaceOnUse">
<stop stop-color="#1D68CE"/>
<stop offset="1" stop-color="#CA66EA"/>
</linearGradient>
<clipPath id="clip0_372_711">
<rect width="56" height="56" fill="white"/>
</clipPath>
</defs>
</svg>
