<svg width="540" height="404" viewBox="0 0 540 404" fill="none" xmlns="http://www.w3.org/2000/svg">
<path d="M164.512 176.832C164.37 172.46 163.798 168.11 162.811 163.85C159.507 150.101 151.728 137.838 140.706 128.987C129.681 120.137 116.021 115.198 101.883 114.943C87.7489 114.693 73.9279 119.145 62.5942 127.599C51.2516 136.061 43.0528 148.033 39.266 161.662C38.614 161.175 37.8861 160.689 37.2341 160.202C33.3357 157.706 28.8076 156.379 24.1767 156.388C18.367 156.388 12.7448 158.456 8.32387 162.216C3.894 165.971 0.94224 171.178 0 176.912H36.993L164.512 176.832Z" fill="white"/>
<path d="M540 350.101C539.536 347.284 538.375 344.627 536.629 342.358C534.887 340.094 532.614 338.299 530.006 337.129C527.398 335.959 524.54 335.45 521.691 335.646C518.842 335.847 516.083 336.745 513.667 338.268C512.751 328.832 508.513 320.03 501.717 313.425C494.92 306.812 485.998 302.829 476.544 302.177C467.082 301.529 457.704 304.253 450.063 309.866C442.432 315.489 437.028 323.629 434.831 332.846C433.746 332.208 432.612 331.641 431.455 331.145C428.691 330.046 425.748 329.484 422.778 329.47C417.067 329.475 411.547 331.569 407.269 335.36C402.991 339.147 400.245 344.372 399.544 350.039H505.861L540 350.101Z" fill="white"/>
<path d="M472.886 302.329C451.067 308.25 443.757 333.038 442.171 339.817C440.251 336.999 437.746 334.619 434.83 332.846C436.871 324.241 441.716 316.551 448.602 310.987C455.479 305.423 464.008 302.297 472.859 302.096C472.881 302.096 472.913 302.11 472.931 302.128C472.957 302.145 472.971 302.172 472.975 302.199C472.975 302.23 472.971 302.257 472.948 302.279C472.939 302.302 472.913 302.32 472.886 302.329Z" fill="#F1F1F1"/>
<path d="M247.289 18.8079C247.289 23.6531 245.418 28.3152 242.069 31.8207C238.719 35.3261 234.142 37.3982 229.301 37.6125V44.0921C229.297 44.2529 229.248 44.4092 229.163 44.5431C229.069 44.6771 228.94 44.7843 228.792 44.8423C228.645 44.9049 228.48 44.9227 228.323 44.8915C228.163 44.8602 228.015 44.7843 227.904 44.6682L216.226 33.1335C213.824 31.0838 211.979 28.4625 210.859 25.5108C209.742 22.559 209.38 19.3706 209.814 16.2447C210.247 13.1143 211.461 10.1491 213.341 7.61267C215.221 5.07621 217.709 3.05329 220.576 1.73148C223.443 0.409662 226.595 -0.170865 229.748 0.0434837C232.896 0.262298 235.942 1.26706 238.599 2.96398C241.26 4.66538 243.448 7.00981 244.971 9.77402C246.485 12.5472 247.284 15.6507 247.289 18.8079Z" fill="#99BED2"/>
<path d="M234.549 17.2182C234.549 17.8523 234.366 18.4685 234.022 18.9999L233.901 19.192L233.875 19.2411L228.627 26.587L223.211 19.4108L223.184 19.384C223.068 19.2589 222.961 19.125 222.871 18.9776C222.519 18.4507 222.335 17.8299 222.34 17.1958C222.34 16.4769 222.577 15.7758 223.01 15.2042C223.447 14.6371 224.059 14.2217 224.751 14.0342C225.448 13.8466 226.18 13.8868 226.846 14.1592C227.511 14.4316 228.069 14.9139 228.435 15.5346C228.721 15.039 229.132 14.6326 229.628 14.3468C230.119 14.0655 230.682 13.9181 231.253 13.9181C232.124 13.9226 232.959 14.2753 233.575 14.8916C234.196 15.5078 234.544 16.3429 234.549 17.2182Z" fill="#F8C364"/>
<path d="M306.327 94.5534C306.327 84.2021 302.219 74.2706 294.895 66.9471C287.572 59.6235 277.645 55.5151 267.289 55.5151C256.933 55.5151 247.002 59.6235 239.683 66.9471C232.359 74.2706 228.246 84.2021 228.246 94.5534L226.281 129.854L262.39 131.595L289.501 132.904C289.501 132.904 306.327 105.208 306.327 94.5534Z" fill="#F8C364"/>
<path d="M283.86 91.2399H293.555" stroke="#EEB44C" stroke-width="3" stroke-linecap="round"/>
<path d="M285.561 114.122L270.829 114.108C269.977 114.108 269.137 113.943 268.356 113.617C267.57 113.291 266.855 112.818 266.257 112.219C265.658 111.616 265.18 110.902 264.854 110.116C264.533 109.334 264.363 108.495 264.363 107.646C264.363 106.798 264.533 105.958 264.854 105.173C265.18 104.387 265.658 103.672 266.257 103.074C266.855 102.475 267.57 101.998 268.356 101.672C269.137 101.35 269.977 101.18 270.829 101.18H285.499C287.209 101.18 288.848 101.855 290.058 103.065C291.273 104.27 291.961 105.909 291.965 107.615C291.974 109.326 291.304 110.973 290.107 112.188C288.906 113.407 287.276 114.099 285.561 114.122Z" fill="#A14A40"/>
<path d="M256.956 48.3256C257.465 50.7191 258.483 52.9787 259.939 54.948L260.332 55.4616C260.493 55.6625 260.653 55.859 260.823 56.051C263.797 59.4761 267.999 61.5928 272.519 61.9501C277.042 62.3073 281.526 60.8783 285.009 57.9668C288.483 55.0552 290.685 50.8933 291.131 46.3786C291.569 41.8638 290.225 37.3536 287.38 33.8213C284.209 29.8871 271.545 27.2167 266.856 29.1682C260.89 31.9011 256.706 47.1556 256.956 48.3256Z" fill="#A14A40"/>
<path d="M257.705 47.1288C257.705 48.3747 256.705 47.1556 256.955 48.3256C257.464 50.7191 258.482 52.9787 259.938 54.948L260.331 55.4616C260.492 55.6625 260.653 55.859 260.822 56.051C263.582 59.235 267.414 61.2981 271.593 61.8563C275.773 62.419 280.011 61.4366 283.521 59.0966C283.525 59.0876 283.525 59.0743 283.512 59.0787C282.414 59.4181 266.029 66.9203 257.705 47.1288Z" fill="#8E2519"/>
<path d="M272.089 43.0873C272.652 43.0873 273.108 42.6318 273.108 42.0692C273.108 41.5065 272.652 41.051 272.089 41.051C271.527 41.051 271.071 41.5065 271.071 42.0692C271.071 42.6318 271.527 43.0873 272.089 43.0873Z" fill="#2E2B28"/>
<path d="M277.881 40.3544C278.444 40.3544 278.9 39.8989 278.9 39.3363C278.9 38.7736 278.444 38.3181 277.881 38.3181C277.319 38.3181 276.863 38.7736 276.863 39.3363C276.863 39.8989 277.319 40.3544 277.881 40.3544Z" fill="#2E2B28"/>
<path d="M280.708 35.0091C282.981 35.0135 285.245 34.6116 287.379 33.8212C285.017 30.8873 281.761 28.8019 278.104 27.8865C274.447 26.971 270.593 27.2702 267.128 28.7394C266.976 28.8019 266.829 28.8734 266.677 28.9403H266.672C263.086 30.5837 260.175 33.397 258.406 36.9248C256.642 40.4482 256.124 44.4672 256.955 48.3255C260.072 46.6955 262.684 44.2439 264.502 41.2341C266.324 38.2288 267.288 34.7769 267.284 31.2624C267.284 30.7087 267.217 29.6638 267.204 29.503C267.204 29.4941 267.213 29.4941 267.217 29.4985C270.816 33.0353 275.661 35.018 280.708 35.0091Z" fill="#2E2B28"/>
<path d="M295.828 67.9204L313.766 87.0242C315.932 89.3017 317.379 92.1597 317.932 95.2454C318.49 98.3356 318.124 101.52 316.887 104.404C315.655 107.289 313.601 109.75 310.979 111.478C308.358 113.202 305.29 114.126 302.146 114.126L285.561 114.117L285.182 101.18L302.057 100.939C303.522 100.939 304.245 99.6708 304.495 99.0947C304.71 98.6392 304.777 98.1302 304.687 97.6345C304.598 97.1343 304.357 96.6788 303.995 96.3305L295.747 87.6628" fill="#F8C364"/>
<path d="M255.924 75.3156L258.326 70.8187C258.969 69.6085 259.255 68.2421 259.144 66.8801C259.032 65.5091 258.532 64.2052 257.697 63.1156L253.517 57.6631C252.977 56.9575 252.584 56.1537 252.356 55.3008C252.128 54.4434 252.07 53.5547 252.186 52.675C252.423 50.8977 253.352 49.2945 254.767 48.2049C256.187 47.1198 257.982 46.642 259.755 46.8742C260.635 46.9903 261.479 47.2806 262.247 47.7226C263.011 48.1692 263.685 48.7587 264.221 49.4598L268.401 54.9167C270.808 58.065 272.259 61.8339 272.581 65.7815C272.902 69.7246 272.085 73.6856 270.223 77.1777L267.82 81.6746L255.924 75.3156Z" fill="#A14A40"/>
<path d="M226.281 129.854L289.501 132.904C253.365 124.674 234.757 104.623 236.03 71.1581C230.97 77.9056 228.237 86.1178 228.251 94.5578L226.281 129.854Z" fill="#E6B04F"/>
<path d="M276.327 50.6968C273.902 51.8802 271.071 50.8174 270.379 48.3256" stroke="#8E2519" stroke-width="3" stroke-linecap="round"/>
<path d="M384.755 181.177L387.523 179.538C387.532 179.529 387.546 179.525 387.559 179.525C387.568 179.525 387.581 179.525 387.59 179.525C387.604 179.529 387.613 179.538 387.626 179.543C387.635 179.547 387.644 179.561 387.648 179.569L489.718 352.044C489.732 352.062 489.754 352.075 489.776 352.084C489.799 352.089 489.826 352.089 489.843 352.071L503.843 343.885C503.856 343.881 503.87 343.872 503.883 343.872C503.897 343.868 503.906 343.872 503.923 343.872C503.937 343.881 503.946 343.885 503.959 343.899C503.964 343.903 503.977 343.912 503.981 343.926L519.714 379.624C520.808 382.102 521.004 384.88 520.285 387.488C519.566 390.095 517.963 392.377 515.753 393.936C513.399 395.606 510.515 396.343 507.652 396.017C504.781 395.695 502.137 394.329 500.213 392.176L473.205 361.94C473.196 361.931 473.187 361.918 473.182 361.909C473.178 361.891 473.178 361.882 473.182 361.868C473.182 361.851 473.187 361.842 473.196 361.828C473.205 361.819 473.214 361.806 473.222 361.801L486.749 353.888C486.758 353.879 486.762 353.871 486.776 353.866C486.78 353.853 486.784 353.839 486.793 353.83C486.793 353.817 486.793 353.808 486.793 353.79C486.793 353.777 486.784 353.768 486.78 353.754L384.728 181.302C384.71 181.284 384.71 181.257 384.714 181.231C384.719 181.208 384.732 181.186 384.755 181.177Z" fill="#F8C364"/>
<path d="M400.741 212.588C401.688 212.588 402.626 212.378 403.479 211.981C407.337 210.194 412.102 204.729 415.768 198.557C417.3 195.976 420.881 193.239 424.079 192.189C425.722 191.644 427.084 190.474 427.861 188.925C428.647 187.384 428.776 185.589 428.236 183.95C427.7 182.307 426.526 180.945 424.981 180.159C423.431 179.382 421.645 179.248 420.002 179.793C413.768 181.838 407.694 186.594 404.546 191.89C401.255 197.427 398.201 200.044 397.982 200.142C396.633 200.763 395.539 201.83 394.883 203.166C394.222 204.496 394.043 206.019 394.365 207.47C394.682 208.922 395.494 210.221 396.651 211.15C397.812 212.083 399.254 212.588 400.741 212.588Z" fill="#CC7F64"/>
<path d="M419.876 233.563L443.691 226.547L455.744 253.077L485.954 269.515C489.004 271.016 491.607 273.298 493.496 276.129C495.394 278.956 496.51 282.229 496.743 285.618L498.855 316.458L491.862 320.218L485.043 316.458L481.202 286.614L416.272 265.447L419.876 233.563Z" fill="#FF4900"/>
<path d="M435.14 241.882L419.876 233.572L413.102 242.624C405.577 252.501 401.621 264.634 401.862 277.053L403.554 363.208L410.856 367.339L419.126 363.208L431.884 266.541" fill="#FF4900"/>
<path d="M466.221 295.318C464.738 296.84 463.095 298.202 461.326 299.386L458.294 301.418C457.584 301.895 456.785 302.226 455.945 302.396C455.097 302.565 454.235 302.565 453.396 302.4C452.556 302.23 451.757 301.9 451.042 301.422C450.328 300.953 449.716 300.341 449.238 299.631C448.76 298.917 448.425 298.117 448.265 297.278C448.09 296.438 448.09 295.577 448.256 294.728C448.421 293.889 448.751 293.089 449.225 292.375C449.703 291.665 450.314 291.053 451.024 290.575L454.061 288.548C455.075 287.864 456.017 287.083 456.874 286.217C463.193 279.567 468.038 271.659 471.084 263.013L479.269 259.383L483.373 267.399C479.689 277.812 473.848 287.329 466.221 295.318Z" fill="#CC7F64"/>
<path d="M445.464 197.718C440.869 194.511 435.68 192.069 430.062 191.519C428.044 191.318 426.007 191.546 424.078 192.18L420.001 179.788C423.654 178.582 427.517 178.158 431.339 178.533C451.671 180.529 465.912 198.16 472.758 206.631C476.87 211.664 480.287 217.223 482.899 223.167L483.069 223.645C483.377 224.609 490.464 247.531 483.372 267.399L471.083 263.009C474.044 254.712 473.767 245.33 472.829 238.305C472.807 238.127 472.735 237.957 472.615 237.814C472.503 237.671 472.347 237.564 472.173 237.506C472.003 237.452 471.815 237.439 471.641 237.479C471.458 237.519 471.297 237.609 471.168 237.738L455.744 253.073L419.876 233.563L445.464 197.718Z" fill="#2E2B28"/>
<path d="M437.653 402.876C437.653 402.876 438.184 400.84 435.617 400.264C434.907 400.103 433.54 400.009 431.879 399.844C429.472 399.612 425.149 398.96 421.764 398.419C420.38 398.196 419.112 397.517 418.174 396.477C417.232 395.441 416.674 394.114 416.589 392.717L419.125 363.208H403.554L404.563 402.876H437.653Z" fill="#A14A40"/>
<path d="M440.654 204.465C440.654 204.465 425.896 230.107 442.668 245.964L419.876 233.572L440.654 204.465Z" fill="#101010"/>
<path d="M519.678 356.134C519.678 356.134 520.469 354.183 517.999 353.281C517.311 353.031 515.972 352.758 514.346 352.383C511.993 351.839 507.737 350.794 504.5 349.664C500.793 348.373 500.623 344.417 500.44 339.643L498.855 316.458H485.043L489.826 352.366L519.678 356.134Z" fill="#A14A40"/>
<path d="M509.002 200.482C508.185 202.549 506.97 204.438 505.425 206.041C503.875 207.64 502.031 208.922 499.99 209.806C497.945 210.69 495.753 211.168 493.52 211.208C491.296 211.248 489.085 210.846 487.013 210.029C478.305 206.595 474.108 196.561 477.546 187.84C487.094 185.125 490.907 184.352 490.907 184.352C490.907 184.352 503.697 180.726 505.309 182.36C507.613 184.7 509.19 187.657 509.846 190.872C510.507 194.087 510.212 197.423 509.002 200.482Z" fill="#CC7F64"/>
<path d="M505.307 182.36C503.142 186.277 499.632 189.264 495.421 190.778C491.21 192.296 486.601 192.225 482.435 190.595C480.671 189.934 479.019 189.01 477.545 187.84C478.608 185.245 480.296 182.95 482.457 181.173C484.623 179.391 487.2 178.167 489.95 177.631C492.701 177.086 495.546 177.234 498.225 178.056C500.904 178.886 503.338 180.36 505.307 182.36Z" fill="#2E2B28"/>
<path d="M505.303 198.111C504.758 198.111 504.316 197.668 504.316 197.124C504.316 196.574 504.758 196.137 505.303 196.137C505.848 196.137 506.29 196.574 506.29 197.124C506.29 197.668 505.848 198.111 505.303 198.111Z" fill="#2E2B28"/>
<path d="M498.819 195.556C498.274 195.556 497.832 195.114 497.832 194.569C497.832 194.02 498.274 193.582 498.819 193.582C499.364 193.582 499.806 194.02 499.806 194.569C499.806 195.114 499.364 195.556 498.819 195.556Z" fill="#2E2B28"/>
<path d="M494.309 201.192C494.827 202.415 495.805 203.384 497.037 203.889C497.332 204.005 497.631 204.09 497.944 204.153" stroke="#74361F" stroke-width="3" stroke-linecap="round" stroke-linejoin="round"/>
<path d="M403.809 196.69C434.474 273.713 397.115 361.105 320.15 392.114C252.889 419.22 177.577 394.311 138.758 336.365C133.037 327.84 133.627 293.603 133.627 293.603C133.627 293.603 115.608 282.457 114.121 269.198C106.726 203.625 143.371 138.544 207.555 112.684C228.757 104.11 251.635 100.493 274.449 102.118C300.64 103.976 330.6 139.111 330.6 139.111L403.809 196.69Z" fill="#99BED2"/>
<path d="M403.566 196.101L403.808 196.69L399.489 201.915C398.788 202.75 398.44 203.826 398.511 204.912L399.646 222.314C399.699 223.153 399.507 223.993 399.083 224.721C398.663 225.453 398.038 226.038 397.288 226.418C396.533 226.788 395.689 226.936 394.85 226.829C394.019 226.726 393.233 226.382 392.594 225.828L370.628 206.934C370.177 206.546 369.815 206.068 369.561 205.532C369.306 204.992 369.163 204.407 369.146 203.809L368.462 178.256C368.444 177.671 368.306 177.091 368.056 176.555C367.801 176.019 367.444 175.546 367.002 175.157L353.561 163.364C353.145 162.993 352.654 162.712 352.118 162.533C351.591 162.35 351.029 162.274 350.47 162.31L321.873 164.181C320.649 164.27 319.51 164.833 318.693 165.748C317.885 166.668 317.465 167.874 317.532 169.093L317.537 169.124C317.63 170.33 318.193 171.446 319.1 172.237C320.015 173.023 321.198 173.425 322.4 173.34L343.2 172.13C343.83 172.089 344.46 172.237 345 172.554C345.549 172.871 345.987 173.344 346.255 173.92C346.527 174.487 346.626 175.122 346.527 175.747C346.434 176.372 346.157 176.952 345.728 177.412L326.557 197.762C325.816 198.575 324.793 199.066 323.699 199.138C322.601 199.213 321.52 198.861 320.68 198.151L305.582 186.326C305.145 185.964 304.645 185.692 304.104 185.522C303.559 185.357 302.988 185.294 302.425 185.357C301.862 185.41 301.313 185.58 300.813 185.848C300.313 186.12 299.88 186.487 299.522 186.929L299.112 187.433C298.415 188.304 298.08 189.411 298.183 190.523C298.29 191.631 298.826 192.653 299.679 193.372L327.312 216.741C328.062 217.375 329.013 217.732 330 217.75C330.983 217.768 331.943 217.442 332.72 216.83L339.168 211.73C339.78 211.248 340.508 210.945 341.285 210.842C342.053 210.748 342.839 210.864 343.553 211.186C344.268 211.503 344.875 212.003 345.322 212.646C345.764 213.285 346.027 214.03 346.076 214.807L346.885 227.15C346.925 227.766 346.835 228.378 346.617 228.945C346.402 229.521 346.067 230.039 345.63 230.468L328.772 247.165C328.339 247.603 328.004 248.121 327.785 248.688C327.566 249.259 327.477 249.876 327.517 250.483L328.562 266.412C328.593 266.983 328.518 267.559 328.326 268.1C328.138 268.64 327.848 269.136 327.464 269.56L312.165 286.48C311.258 287.48 310.74 288.762 310.691 290.097L310.128 305.419C310.061 307.183 309.383 308.853 308.204 310.161L278.874 342.555C278.132 343.381 277.096 343.881 275.984 343.948L269.384 344.385C268.665 344.435 267.942 344.301 267.29 343.992C266.638 343.68 266.071 343.215 265.646 342.63L257.202 330.984C256.729 330.341 256.452 329.564 256.398 328.76L252.732 272.704C252.661 271.578 252.143 270.525 251.294 269.77L243.167 262.647C242.751 262.281 242.403 261.83 242.162 261.33C241.907 260.825 241.764 260.28 241.729 259.718L241.054 249.434C241.023 248.875 240.871 248.331 240.626 247.821C240.376 247.321 240.036 246.87 239.612 246.504C239.188 246.129 238.697 245.852 238.17 245.665C237.634 245.49 237.076 245.414 236.513 245.45L218.231 246.643C217.186 246.714 216.141 246.392 215.319 245.74L194.277 229.164C193.808 228.794 193.42 228.329 193.143 227.798C192.862 227.262 192.697 226.681 192.656 226.083L190.772 197.159C190.732 196.592 190.812 196.025 190.995 195.485C191.183 194.944 191.473 194.444 191.857 194.024L210.546 173.246C211.296 172.42 212.336 171.911 213.453 171.844L247.762 169.598C248.811 169.531 249.847 169.857 250.678 170.495L259.417 177.345C260.248 177.993 261.284 178.314 262.329 178.243L293.726 176.193C294.311 176.158 294.874 176.006 295.396 175.738C295.914 175.47 296.374 175.095 296.74 174.644L302.867 167.231C303.55 166.391 303.899 165.315 303.832 164.226L301.836 134.19C301.8 133.632 301.653 133.087 301.407 132.582C301.157 132.078 300.813 131.627 300.393 131.261C299.969 130.885 299.478 130.609 298.946 130.425C298.415 130.247 297.857 130.171 297.294 130.207L295.41 130.327C294.298 130.412 293.262 130.912 292.516 131.734L275.886 150.163C275.14 150.99 274.1 151.49 272.992 151.566L233.191 154.173C232.637 154.209 232.088 154.357 231.583 154.602C231.078 154.848 230.627 155.192 230.261 155.611L225.755 160.742C225.389 161.167 224.938 161.51 224.438 161.756C223.933 162.002 223.384 162.149 222.826 162.18L211.983 162.899C210.854 162.971 209.737 162.596 208.893 161.841C208.04 161.095 207.522 160.037 207.446 158.903L206.79 148.882C206.75 148.324 206.83 147.761 207.009 147.234C207.187 146.698 207.469 146.207 207.844 145.792C208.21 145.367 208.661 145.019 209.166 144.773C209.666 144.523 210.22 144.38 210.778 144.34L219.7 143.755C220.321 143.715 220.932 143.536 221.482 143.233C222.027 142.929 222.509 142.514 222.875 142.005L240.331 119.248C240.702 118.743 241.175 118.324 241.724 118.024C242.269 117.721 242.881 117.547 243.502 117.511L259.989 116.421C260.547 116.39 261.101 116.243 261.601 116.002C262.101 115.747 262.552 115.408 262.922 114.983L274.448 102.118C330.072 106.066 381.323 140.897 403.566 196.101Z" fill="#235039"/>
<path d="M144.475 289.459L146.766 324.433C146.868 325.876 146.444 327.3 145.573 328.448C145.488 328.555 145.399 328.667 145.305 328.778L138.759 336.365C125.304 316.266 116.859 293.232 114.122 269.198L116.324 271.489C116.931 272.128 117.672 272.628 118.498 272.945C119.316 273.267 120.204 273.401 121.084 273.347L126.612 272.981L127.153 272.945C128.006 272.887 128.867 273.016 129.671 273.325C130.475 273.624 131.203 274.093 131.819 274.7L142.715 285.578C143.751 286.614 144.381 287.999 144.475 289.459Z" fill="#235039"/>
<path d="M403.803 196.69C434.468 273.713 397.109 361.105 320.145 392.114C301.666 399.589 281.888 403.309 261.958 403.055C242.028 402.804 222.348 398.593 204.062 390.654C224.331 390.734 244.422 386.858 263.213 379.257C343.294 346.989 382.167 256.043 350.265 175.903L350.02 175.291C348.278 170.969 346.371 166.78 344.295 162.707L350.466 162.296C351.02 162.265 351.582 162.337 352.114 162.515C352.65 162.698 353.141 162.984 353.556 163.35L366.993 175.144C367.44 175.537 367.797 176.01 368.047 176.546C368.297 177.078 368.44 177.658 368.453 178.243L369.141 203.8C369.159 204.394 369.297 204.979 369.552 205.519C369.811 206.055 370.173 206.537 370.624 206.926L392.59 225.82C393.229 226.373 394.015 226.717 394.845 226.824C395.68 226.923 396.529 226.78 397.283 226.405C398.034 226.025 398.659 225.44 399.083 224.712C399.498 223.98 399.695 223.145 399.637 222.301L398.507 204.903C398.431 203.818 398.779 202.741 399.485 201.902L403.803 196.69Z" fill="#809EAF"/>
<path d="M403.568 196.101L403.809 196.69L399.491 201.915C398.79 202.75 398.442 203.827 398.513 204.912L399.647 222.314C399.701 223.154 399.509 223.993 399.085 224.721C398.665 225.453 398.04 226.038 397.29 226.418C396.535 226.789 395.691 226.936 394.851 226.829C394.021 226.726 393.235 226.382 392.596 225.828L370.63 206.935C370.179 206.546 369.817 206.068 369.563 205.532C369.304 204.992 369.165 204.407 369.147 203.809L368.464 178.257C368.446 177.672 368.308 177.091 368.058 176.555C367.803 176.019 367.446 175.546 367.004 175.157L353.562 163.364C353.147 162.993 352.656 162.712 352.12 162.533C351.593 162.35 351.03 162.274 350.472 162.31L344.301 162.716C332.48 139.415 314.984 119.462 293.429 104.69C317.931 109.585 340.835 120.503 360.064 136.459C379.293 152.423 394.244 172.916 403.568 196.101Z" fill="#0C311E"/>
<path d="M226.237 402.88C226.237 402.88 226.862 400.478 223.835 399.799C222.991 399.611 218.699 398.598 214.091 397.624C210.764 396.919 207.799 394.355 207.986 390.89L208.995 374.783L202.9 370.156L196.277 374.783L197.921 402.889H226.237V402.88Z" fill="#F8C364"/>
<path d="M132.347 402.88C132.347 402.88 131.722 400.478 134.754 399.799C135.594 399.612 145.128 397.615 145.128 397.615C148.048 397.111 150.607 395.128 151.031 392.024L152.844 374.783L160.186 371.072L165.361 374.783L159.887 402.889H132.347V402.88Z" fill="#F8C364"/>
<path d="M225.061 265.09C223.592 265.09 222.15 264.746 220.837 264.085L216.818 262.058L221.1 253.569L214.531 241.159L219.966 236.47L227.406 240.199L233.314 251.363C234.073 252.787 234.443 254.377 234.399 255.994C234.354 257.606 233.894 259.173 233.068 260.562C232.233 261.937 231.063 263.085 229.661 263.875C228.254 264.67 226.678 265.09 225.061 265.09Z" fill="#CC7F64"/>
<path d="M150.759 265.09C149.146 265.09 147.561 264.666 146.163 263.875C144.761 263.076 143.587 261.933 142.756 260.553C141.926 259.169 141.461 257.597 141.425 255.989C141.381 254.377 141.751 252.778 142.506 251.354L148.285 240.444L156.149 237.323L161.288 241.154L154.72 253.56L159.002 262.049L154.979 264.076C153.675 264.746 152.223 265.09 150.759 265.09Z" fill="#CC7F64"/>
<path d="M206.393 183.32C207.245 187.866 206.272 192.555 203.664 196.378C201.061 200.2 197.046 202.826 192.5 203.684C187.959 204.541 183.265 203.558 179.447 200.96C175.625 198.352 172.999 194.337 172.141 189.796L172.079 189.474C171.351 185.183 182.904 181.467 182.904 181.467C182.904 181.467 192.009 169.298 193.255 169.589C196.537 170.357 199.533 172.067 201.864 174.505C204.195 176.939 205.767 180.007 206.393 183.32Z" fill="#CC7F64"/>
<path d="M193.244 169.589C193.512 174.184 192.096 178.712 189.269 182.338C186.429 185.969 182.379 188.438 177.86 189.295C175.953 189.662 174.006 189.72 172.077 189.483C171.318 184.977 172.354 180.36 174.962 176.613C177.574 172.858 181.553 170.29 186.036 169.441C188.425 168.977 190.882 169.031 193.244 169.589Z" fill="#2E2B28"/>
<path d="M160.31 180.44C165.124 180.44 169.018 176.546 169.018 171.732C169.018 166.923 165.124 163.029 160.31 163.029C155.509 163.029 151.606 166.923 151.606 171.732C151.606 176.546 155.509 180.44 160.31 180.44Z" fill="#2E2B28"/>
<path d="M217.248 281.867L216.323 297.238C216.323 297.305 216.319 297.372 216.319 297.439L208.995 374.783H196.277L188.748 278.822C188.726 278.518 188.592 278.228 188.369 278.009C188.15 277.795 187.859 277.67 187.547 277.647C187.243 277.629 186.94 277.719 186.694 277.906C186.444 278.094 186.283 278.366 186.216 278.665L165.362 374.783H152.845L158.592 280.358L158.748 279.036C159.704 271.114 160.016 262.272 163.285 257.186L188.703 250.358L212.648 257.186C216.212 262.272 217.248 272.23 217.248 281.867Z" fill="#2E2B28"/>
<path d="M216.322 297.233C217.939 268.881 202.443 257.186 187.957 257.186H212.647C216.211 262.272 217.247 272.23 217.247 281.867L216.322 297.233Z" fill="#131313"/>
<path d="M227.407 240.199C219.217 221.403 204.377 212.061 187.966 212.061C171.551 212.061 155.426 223.288 148.285 240.444L161.928 246.308L163.285 257.186H212.648L215.372 245.593L227.407 240.199Z" fill="#F8C364"/>
<path d="M215.336 243.418C215.336 243.418 206.462 256.092 187.957 257.186H212.647C212.647 257.186 215.898 249.197 215.336 243.418Z" fill="#F6B745"/>
<path d="M193.409 185.83C194.026 185.83 194.526 185.334 194.526 184.714C194.526 184.097 194.026 183.597 193.409 183.597C192.789 183.597 192.293 184.097 192.293 184.714C192.293 185.334 192.789 185.83 193.409 185.83Z" fill="#2E2B28"/>
<path d="M200.581 182.427C201.197 182.427 201.698 181.932 201.698 181.311C201.698 180.695 201.197 180.195 200.581 180.195C199.961 180.195 199.465 180.695 199.465 181.311C199.465 181.932 199.961 182.427 200.581 182.427Z" fill="#2E2B28"/>
<path d="M198.964 192.921C199.844 192.921 200.549 192.216 200.549 191.336C200.549 190.456 199.844 189.751 198.964 189.751C198.084 189.751 197.379 190.456 197.379 191.336C197.379 192.216 198.084 192.921 198.964 192.921Z" fill="#2E2B28"/>
<path d="M222.932 211.927C222.623 209.212 221.382 206.68 219.408 204.778C217.443 202.871 214.867 201.719 212.138 201.509C209.405 201.299 206.686 202.054 204.453 203.639C202.22 205.22 200.604 207.529 199.889 210.172C197.781 208.448 195.075 207.618 192.365 207.855C189.654 208.1 187.14 209.391 185.367 211.458C183.509 210.351 181.352 209.851 179.2 210.029C177.039 210.199 174.989 211.043 173.337 212.436C171.872 211.208 170.081 210.4 168.183 210.11C166.294 209.819 164.347 210.061 162.575 210.802C160.802 211.543 159.279 212.753 158.145 214.303C157.015 215.861 156.336 217.692 156.18 219.608C156.158 219.88 156.171 220.157 156.171 220.447C156.171 222.435 156.738 224.386 157.81 226.065C158.873 227.749 160.4 229.079 162.204 229.923C164.008 230.763 166.009 231.076 167.982 230.817C169.956 230.553 171.809 229.745 173.337 228.463C175.444 230.227 178.155 231.089 180.897 230.866C183.639 230.642 186.175 229.347 187.966 227.262C189.292 228.052 190.77 228.535 192.315 228.687C193.847 228.825 195.397 228.633 196.848 228.106C198.295 227.584 199.612 226.74 200.702 225.645C201.787 224.551 202.613 223.225 203.127 221.774C204.931 223.493 207.231 224.587 209.696 224.918C209.892 227.195 210.723 229.37 212.111 231.196C213.487 233.014 215.362 234.407 217.51 235.202C219.654 235.997 221.976 236.171 224.213 235.693C226.455 235.211 228.5 234.108 230.139 232.505C231.769 230.906 232.912 228.87 233.43 226.646C233.953 224.417 233.828 222.086 233.069 219.925C232.314 217.773 230.961 215.875 229.166 214.455C227.37 213.039 225.209 212.159 222.932 211.927Z" fill="#FF4900"/>
<path d="M156.181 219.608L218.61 219.612V257.181H156.149L156.181 219.608Z" fill="#A14A40"/>
<path d="M149.633 253.537L160.431 248.063C163.909 246.308 167.75 245.383 171.648 245.383H176.846C178.418 245.383 179.923 246.008 181.03 247.116C182.133 248.219 182.759 249.724 182.759 251.296C182.759 252.868 182.133 254.373 181.03 255.476C179.923 256.583 178.418 257.208 176.846 257.208H171.648C169.607 257.208 167.602 257.695 165.776 258.61L154.978 264.085" fill="#CC7F64"/>
<path d="M220.823 264.09L210.026 258.615C208.208 257.699 206.194 257.217 204.153 257.217H198.955C197.392 257.217 195.888 256.592 194.78 255.48C193.668 254.377 193.043 252.877 193.043 251.305C193.043 249.733 193.668 248.228 194.78 247.125C195.888 246.017 197.392 245.388 198.955 245.388H204.162C208.056 245.397 211.901 246.312 215.38 248.072L226.178 253.546" fill="#CC7F64"/>
</svg>
