<svg width="144" height="32" viewBox="0 0 144 32" fill="none" xmlns="http://www.w3.org/2000/svg">
<g clip-path="url(#clip0_869_10364)">
<path d="M38.2476 6.70483H40.6857V13.4857C41.6761 12.0381 43.0475 11.2762 44.6475 11.2762C46.857 11.2762 48.1523 12.4953 48.1523 14.9334V23.2381H45.7142V15.6191C45.7142 13.9429 45.1046 13.4857 43.8856 13.4857C43.1237 13.4857 42.438 13.9429 41.7522 14.781C41.0665 15.6953 40.7618 16.8381 40.7618 18.2857V23.2381H38.3237L38.2476 6.70483Z" fill="#3A3938"/>
<path d="M60.343 17.9809H52.0382C52.0382 19.8095 53.1049 21.2571 54.9335 21.2571C56.2287 21.2571 57.4478 20.4952 57.9811 19.2761L60.0382 20.1142C58.8192 22.4 57.4478 23.3904 54.8573 23.3904C50.9716 23.3904 49.3716 20.1142 49.3716 17.2952C49.3716 14.4761 50.9716 11.2 54.8573 11.2C58.5906 11.2 60.2668 14.2476 60.2668 16.9142V17.9809H60.343ZM52.1144 16H57.8287C57.6002 14.5523 56.6097 13.4095 55.0097 13.4095C53.4097 13.4095 52.4192 14.4761 52.1144 16Z" fill="#3A3938"/>
<path d="M79.3904 11.2762C80 11.2762 80.5333 11.4286 81.219 11.7333C81.8285 12.0381 82.2857 12.3429 82.5904 12.7238V6.62854H85.0285V23.1619H82.5904V21.7905C82.1333 22.5524 80.8381 23.3143 79.3904 23.3143C75.9619 23.3143 74.1333 21.1048 74.1333 17.2191C74.1333 13.5619 75.9619 11.2762 79.3904 11.2762ZM76.6476 17.2952C76.6476 18.5143 76.9523 19.4286 77.4857 20.1905C78.019 20.8762 78.7809 21.2571 79.619 21.2571C80.5333 21.2571 81.219 20.8762 81.7523 20.1905C82.2857 19.5048 82.5904 18.5143 82.5904 17.2952C82.5904 16.0762 82.2857 15.1619 81.7523 14.4762C81.219 13.7905 80.4571 13.4095 79.619 13.4095C78.7047 13.4095 78.019 13.7905 77.4857 14.4762C76.9523 15.1619 76.6476 16.1524 76.6476 17.2952Z" fill="#3A3938"/>
<path d="M94.2476 13.1048L92.7237 14.4762C92.1904 13.7905 91.5047 13.4096 90.6666 13.4096C89.9809 13.4096 89.5238 13.8667 89.5238 14.5524C89.5238 14.781 89.5999 15.0858 89.8285 15.2381C90.2095 15.6191 90.5904 15.8477 91.6571 16.2286C92.4952 16.5334 92.7999 16.6858 93.4857 17.0667C94.3999 17.6001 94.8571 18.362 94.9333 19.581C94.9333 20.6477 94.5523 21.4858 93.7904 22.2477C93.0285 22.9334 92.038 23.3143 90.819 23.3143C88.6095 23.3143 87.0095 21.8667 86.2476 20.1905L88.3047 19.0477C88.9142 20.4953 89.8285 21.181 90.8952 21.181C91.9618 21.181 92.4952 20.6477 92.4952 19.6572C92.4952 19.2762 92.3428 18.9715 91.8857 18.7429C91.6571 18.5905 91.5047 18.5143 91.2761 18.4382C90.8952 18.2858 90.0571 17.981 89.6761 17.8286C87.9999 17.1429 87.1618 16.0762 87.1618 14.6286C87.1618 13.7143 87.5428 12.8762 88.1523 12.2667C88.838 11.581 89.6761 11.2762 90.7428 11.2762C92.1904 11.2762 93.4857 11.962 94.2476 13.1048Z" fill="#3A3938"/>
<path d="M102.019 23.3905C100.648 23.3905 99.4285 22.7048 98.8951 21.8667V27.962H96.457V11.4286H98.8951V12.8001C99.3523 12.0381 100.648 11.2762 102.095 11.2762C105.524 11.2762 107.352 13.4858 107.352 17.3715C107.276 21.0286 105.448 23.3905 102.019 23.3905ZM104.762 17.2953C104.762 16.0762 104.457 15.162 103.924 14.4762C103.39 13.7905 102.628 13.4096 101.79 13.4096C100.876 13.4096 100.19 13.7905 99.657 14.4762C99.1237 15.162 98.8189 16.1524 98.8189 17.2953C98.8189 18.5143 99.1237 19.4286 99.657 20.1905C100.19 20.8762 100.952 21.2572 101.79 21.2572C102.705 21.2572 103.39 20.8762 103.924 20.1905C104.457 19.5048 104.762 18.5143 104.762 17.2953Z" fill="#3A3938"/>
<path d="M131.276 20.1142C130.286 22.2476 128.609 23.3904 126.171 23.3904C124.419 23.3904 123.047 22.7809 122.057 21.638C121.067 20.4952 120.609 19.0476 120.609 17.2952C120.609 15.5428 121.067 14.0952 122.057 12.9523C123.047 11.8095 124.419 11.2 126.171 11.2C128.609 11.2 130.286 12.2666 131.276 14.4761L129.143 15.3904C128.533 14.019 127.543 13.3333 126.247 13.3333C124.267 13.3333 123.276 14.9333 123.276 17.219C123.276 19.5809 124.267 21.1047 126.247 21.1047C127.543 21.1047 128.533 20.419 129.143 19.0476L131.276 20.1142Z" fill="#3A3938"/>
<path d="M143.01 17.9809H134.705C134.705 19.8095 135.771 21.2571 137.6 21.2571C138.895 21.2571 140.114 20.4952 140.648 19.2761L142.705 20.1142C141.486 22.4 140.114 23.3904 137.524 23.3904C133.638 23.3904 132.038 20.1142 132.038 17.2952C132.038 14.4761 133.638 11.2 137.524 11.2C141.257 11.2 142.933 14.2476 142.933 16.9142V17.9809H143.01ZM134.781 16H140.495C140.267 14.5523 139.276 13.4095 137.676 13.4095C136.076 13.4095 135.01 14.4761 134.781 16Z" fill="#3A3938"/>
<path d="M67.0475 11.2762C67.657 11.2762 68.1905 11.4286 68.8762 11.7334C69.4857 12.0381 69.9428 12.3429 70.2475 12.7239V11.4286H72.6857V23.2381H70.6285L70.2475 21.8667C69.7904 22.6286 68.4951 23.3905 67.0475 23.3905C63.6189 23.3905 61.7904 21.181 61.7904 17.2953C61.7142 13.6382 63.5428 11.2762 67.0475 11.2762ZM64.3047 17.3715C64.3047 18.5905 64.6094 19.5048 65.1428 20.2667C65.6761 20.9524 66.4381 21.3334 67.2762 21.3334C68.1905 21.3334 68.8761 20.9524 69.4094 20.2667C69.9428 19.581 70.2475 18.5905 70.2475 17.3715C70.2475 16.1524 69.9428 15.2382 69.4094 14.5524C68.8761 13.8667 68.1143 13.4858 67.2762 13.4858C66.3619 13.4858 65.6761 13.8667 65.1428 14.5524C64.6094 15.162 64.3047 16.1524 64.3047 17.3715Z" fill="#3A3938"/>
<path d="M113.753 11.2762C114.362 11.2762 114.895 11.4286 115.581 11.7334C116.191 12.0381 116.648 12.3429 116.953 12.7239V11.4286H119.391V23.2381H117.334L116.953 21.8667C116.495 22.6286 115.2 23.3905 113.753 23.3905C110.324 23.3905 108.495 21.181 108.495 17.2953C108.419 13.6382 110.248 11.2762 113.753 11.2762ZM111.01 17.3715C111.01 18.5905 111.315 19.5048 111.848 20.2667C112.381 20.9524 113.143 21.3334 113.981 21.3334C114.895 21.3334 115.581 20.9524 116.114 20.2667C116.648 19.581 116.953 18.5905 116.953 17.3715C116.953 16.1524 116.648 15.2382 116.114 14.5524C115.581 13.8667 114.819 13.4858 113.981 13.4858C113.067 13.4858 112.381 13.8667 111.848 14.5524C111.238 15.162 111.01 16.1524 111.01 17.3715Z" fill="#3A3938"/>
<path d="M30.7048 15.8475C31.0857 20.8761 28.7238 23.6952 27.3524 25.6761C25.2191 27.9618 22.4 31.0856 15.4667 31.238C9.52381 31.4666 6.62857 28.8761 4.19048 26.5904C0.990476 23.0856 0.152381 20.9523 0 15.8475C0 12.6475 1.21905 9.52372 3.35238 6.7047C6.32381 2.51423 11.0476 1.06661 15.4667 0.76185C20.0381 0.60947 23.6952 2.89518 26.2095 5.40947C29.4095 8.83801 30.4 11.7332 30.7048 15.8475Z" fill="#FF7E1D"/>
</g>
<defs>
<clipPath id="clip0_869_10364">
<rect width="143.238" height="32" fill="white"/>
</clipPath>
</defs>
</svg>
