<svg width="540" height="423" viewBox="0 0 540 423" fill="none" xmlns="http://www.w3.org/2000/svg">
<path d="M531.59 192.692C527.269 176.581 521.331 160.741 513.908 145.577C466.608 50.1803 360.097 17.4615 260.195 19.2175C246.203 19.3967 232.34 20.2107 218.481 21.3779C183.515 24.2141 147.248 29.477 115.973 46.397C84.606 63.3169 61.2508 93.604 46.0868 125.376C38.6635 140.99 35.6481 157.321 36.7283 174.646C37.8086 190.398 49.9111 204.574 48.2472 220.276C47.5715 226.353 44.6482 231.887 41.4076 237.109C27.2316 259.967 9.54887 279.048 2.88839 305.823C-2.96321 329.49 -0.710617 354.376 16.9722 372.469C32.5867 388.488 54.5903 394.831 76.1946 396.991C94.8655 398.839 113.813 395.506 132.31 392.988C175.508 387.049 220.37 374.225 263.932 374.312C290.615 374.404 317.39 380.476 343.674 384.3C373.597 388.621 403.07 393.392 432.907 398.071C454.777 401.583 479.12 400.815 496.624 387.136C507.201 378.812 514.041 366.709 519.488 354.515C542.208 303.304 545.766 246.063 531.59 192.692Z" fill="#E3E9EE"/>
<path d="M163.258 28.3968H119.425C117.987 28.4019 116.604 28.9753 115.586 29.9941C114.572 31.0128 113.993 32.39 113.988 33.8337V107.058C113.993 108.497 114.572 109.879 115.586 110.898C116.604 111.916 117.987 112.485 119.425 112.49H163.258C164.697 112.485 166.079 111.916 167.098 110.898C168.112 109.879 168.69 108.497 168.695 107.058V33.8337C168.7 33.117 168.567 32.4053 168.301 31.7398C168.03 31.0794 167.63 30.4753 167.124 29.9685C166.617 29.4616 166.013 29.0623 165.352 28.791C164.687 28.5248 163.975 28.3865 163.258 28.3968Z" fill="white"/>
<path d="M152.12 78.2096C152.12 69.788 141.343 51.8544 141.343 51.8544C141.343 51.8544 130.566 69.788 130.566 78.2096C130.566 81.0663 131.703 83.8103 133.72 85.8326C135.742 87.8496 138.486 88.9862 141.343 88.9862C144.2 88.9862 146.944 87.8496 148.966 85.8326C150.983 83.8103 152.12 81.0663 152.12 78.2096Z" fill="#FF4900"/>
<path d="M286.657 0.00402832H499.112C502.967 0.0193868 506.658 1.69347 509.386 4.67303C512.115 7.6577 513.641 11.6919 513.661 15.9103V404.824C513.641 409.037 512.115 413.072 509.386 416.056C506.658 419.041 502.967 420.71 499.112 420.73H286.657C282.802 420.71 279.106 419.041 276.377 416.056C273.654 413.072 272.123 409.037 272.107 404.824V15.9103C272.123 11.6919 273.654 7.6577 276.377 4.67303C279.106 1.69347 282.802 0.0193868 286.657 0.00402832Z" fill="#235039"/>
<path d="M303.935 420.73H287.384C277.923 420.73 272.107 413.568 272.107 404.824V15.9103C272.107 7.16105 277.744 -0.19569 287.384 0.00397102H303.935C300.08 0.0193295 296.389 1.69341 293.661 4.67297C290.932 7.65764 289.401 11.6918 289.386 15.9103V404.824C289.422 409.037 290.968 413.051 293.696 416.015C296.405 419 300.101 420.689 303.935 420.73Z" fill="#15221B"/>
<path d="M169.144 419.86L145.323 331.579L128.075 330.77L165.75 421.089C166.6 423.213 169.758 422.077 169.144 419.86ZM59.8989 419.86C59.2845 422.077 62.4484 423.213 63.2931 421.089L100.502 331.579L84.5698 325.523L59.8989 419.86Z" fill="white"/>
<path d="M162.873 333.258H91.9727C81.0323 333.253 70.5373 328.902 62.7966 321.161C55.0559 313.42 50.7043 302.925 50.6992 291.98V256.225C50.7043 245.28 55.0559 234.785 62.7966 227.044C70.5373 219.308 81.0323 214.952 91.9727 214.952C102.918 214.952 113.418 219.308 121.154 227.044C128.895 234.785 133.246 245.28 133.251 256.225V283.963C133.256 288.647 134.536 293.239 136.968 297.253C139.395 301.256 142.871 304.523 147.023 306.698L166.835 316.983C168.228 317.716 169.39 318.811 170.209 320.163C171.018 321.504 171.453 323.05 171.458 324.622C171.468 325.758 171.248 326.879 170.823 327.924C170.398 328.973 169.764 329.926 168.965 330.729C168.171 331.528 167.219 332.168 166.17 332.603C165.125 333.033 164.004 333.258 162.873 333.258Z" fill="white"/>
<path d="M108.628 333.258H92.1633C68.1528 333.586 50.6543 314.767 50.6543 291.98V256.225C50.6543 233.443 68.675 214.388 92.1633 214.952C94.9227 214.926 97.677 215.208 100.375 215.801C91.0421 217.685 82.6563 222.744 76.6256 230.11C70.5999 237.483 67.3081 246.708 67.3081 256.225V291.98C67.3285 302.93 71.6904 313.42 79.4362 321.156C87.182 328.891 97.677 333.243 108.628 333.258Z" fill="#DEDEDE"/>
<path d="M163.195 308.623L170.281 301.707L170.404 301.753L174.453 303.309C178.057 304.748 181.196 307.159 183.515 310.277C185.834 313.395 187.247 317.096 187.595 320.961L191.936 368.793L186.167 371.593L179.537 368.793L173.424 330.791C172.989 328.252 171.888 325.866 170.23 323.89C168.571 321.914 166.416 320.408 163.994 319.533C162.397 318.965 161.081 315.192 163.195 308.623Z" fill="#9B4D2D"/>
<path d="M192.735 377.819L191.937 368.793H179.537L181.022 377.762L187.764 380.506L192.735 377.819Z" fill="#C7C7C7"/>
<path d="M192.733 377.819C194.335 385.134 195.651 386.849 211.537 389.476C213.247 389.762 214.798 392.036 214.163 393.131L182.504 389.993L181.02 377.762L192.733 377.819Z" fill="#2E2B28"/>
<path d="M118.449 290.91V300.391C118.449 313.134 129.994 318.678 138.794 318.678L157.772 317.874C159.487 317.874 162.451 318.965 163.992 319.533L170.279 301.707L153.134 294.79L136.849 283.763L118.449 290.91Z" fill="#2E2B28"/>
<path d="M118.449 290.91V300.391C118.449 313.134 129.994 318.678 138.794 318.678H145.424C142.368 315.181 140.033 311.111 138.564 306.709C137.094 302.306 136.506 297.652 136.849 293.019L118.449 290.91Z" fill="#1D1B19"/>
<path d="M153.133 294.791V252.908C153.133 247.793 151.27 242.853 147.881 239.019C144.492 235.189 139.812 232.727 134.734 232.107L133.137 231.938C131.14 231.693 129.123 231.877 127.218 232.481C125.304 233.08 123.548 234.094 122.058 235.435C120.573 236.781 119.396 238.43 118.607 240.273C117.809 242.116 117.43 244.102 117.481 246.109L118.566 290.91L153.133 294.791Z" fill="#FF4900"/>
<path d="M153.134 294.79C153.134 294.79 126.164 296.828 118.449 264.657V290.91L153.134 294.79Z" fill="#BC400D"/>
<path d="M133.024 252.908V273.422C133.593 286.62 135.021 295.994 148.393 304.907C149.77 305.818 150.82 307.149 151.388 308.7C151.951 310.256 151.997 311.951 151.526 313.533C151.05 315.125 150.077 316.513 148.751 317.501C147.425 318.489 145.818 319.021 144.164 319.021C142.634 319.036 141.139 318.576 139.879 317.705C120.563 304.85 118.336 289.65 117.65 273.877V252.908H133.024Z" fill="#9B4D2D"/>
<path d="M141.139 225.078C138.85 225.472 136.516 225.411 134.258 224.899C132 224.387 129.871 223.435 127.976 222.099C126.092 220.762 124.48 219.063 123.246 217.102C122.017 215.141 121.183 212.96 120.794 210.682L120.737 210.339C120.625 209.74 120.563 209.121 120.563 208.511C120.451 206.341 130.854 196.568 130.854 196.568C130.854 196.568 140.453 190.112 141.881 190.393C142.106 190.455 142.28 190.455 142.506 190.511C146.437 191.504 149.908 193.818 152.335 197.069C154.757 200.315 156.001 204.298 155.837 208.348C155.678 212.402 154.127 216.273 151.449 219.319C148.777 222.365 145.132 224.402 141.139 225.078Z" fill="#9B4D2D"/>
<path d="M141.652 212.622C141.903 213.4 142.436 214.066 143.137 214.481C143.844 214.906 144.668 215.054 145.482 214.911" stroke="#7E2D0C" stroke-width="3" stroke-linecap="round" stroke-linejoin="round"/>
<path d="M147.652 205.537C147.079 205.537 146.623 205.076 146.623 204.508C146.623 203.945 147.079 203.479 147.652 203.479C148.215 203.479 148.681 203.945 148.681 204.508C148.681 205.076 148.215 205.537 147.652 205.537Z" fill="#2E2B28"/>
<path d="M135.196 190.337C135.452 190.271 135.718 190.235 135.995 190.224C136.501 190.158 137.018 190.122 137.535 190.112C138.989 189.999 140.454 190.097 141.882 190.393C140.638 194.929 138.14 199.015 134.669 202.179C131.203 205.342 126.902 207.462 122.279 208.281L120.564 208.568C120.447 206.474 120.723 204.385 121.368 202.394C122.331 199.307 124.138 196.542 126.58 194.417C129.017 192.288 132.001 190.875 135.196 190.337ZM116.566 173.709C118.419 173.709 120.232 174.257 121.773 175.286C123.308 176.32 124.517 177.784 125.223 179.494C125.935 181.209 126.114 183.093 125.755 184.91C125.397 186.728 124.501 188.397 123.191 189.713C121.88 191.018 120.211 191.909 118.389 192.277C116.571 192.636 114.692 192.446 112.977 191.74C111.262 191.028 109.803 189.83 108.774 188.289C107.745 186.743 107.197 184.931 107.197 183.083C107.197 180.595 108.185 178.214 109.936 176.458C111.697 174.697 114.083 173.709 116.566 173.709Z" fill="#2E2B28"/>
<path d="M106.414 392.169C98.7096 383.762 89.9911 379.431 80.5302 379.314C64.327 379.099 52.1221 391.549 51.605 392.082C51.1801 392.522 50.8524 393.044 50.622 393.612C50.3968 394.186 50.2893 394.79 50.2995 395.404C50.3097 396.018 50.448 396.623 50.6886 397.186C50.9343 397.749 51.2876 398.256 51.7278 398.681C52.1681 399.106 52.6903 399.443 53.2586 399.664C53.832 399.889 54.4361 399.996 55.0555 399.986C55.6647 399.976 56.2688 399.848 56.832 399.597C57.39 399.351 57.902 399.003 58.3269 398.558C60.774 396.193 63.5181 394.16 66.4925 392.512L64.7263 408.454L61.8338 422.461H96.0218L93.1908 408.208L91.3682 391.754C94.4194 393.556 97.1788 395.829 99.5441 398.471C99.9536 398.942 100.45 399.331 101.008 399.607C101.571 399.889 102.181 400.048 102.805 400.083C103.43 400.119 104.054 400.032 104.643 399.822C105.227 399.612 105.769 399.285 106.23 398.865C106.691 398.44 107.065 397.933 107.326 397.365C107.582 396.797 107.725 396.182 107.746 395.558C107.761 394.933 107.648 394.309 107.423 393.73C107.193 393.146 106.85 392.614 106.414 392.169Z" fill="#FF4900"/>
<path d="M62.4429 408.085H60.4156C58.506 408.085 56.6834 408.838 55.3268 410.189C53.9803 411.536 53.2227 413.363 53.2227 415.273C53.2227 417.183 53.9803 419.01 55.3268 420.357C56.6834 421.708 58.506 422.461 60.4156 422.461H62.4429C64.3473 422.461 66.1801 421.708 67.5266 420.357C68.873 419.01 69.6307 417.183 69.6307 415.273C69.6307 413.363 68.873 411.536 67.5266 410.189C66.1801 408.838 64.3473 408.085 62.4429 408.085ZM96.5542 408.085H94.5268C92.6224 408.085 90.7947 408.838 89.4432 410.189C88.0967 411.536 87.3391 413.363 87.3391 415.273C87.3391 417.183 88.0967 419.01 89.4432 420.357C90.7947 421.708 92.6224 422.461 94.5268 422.461H96.5542C98.4637 422.461 100.291 421.708 101.643 420.357C102.989 419.01 103.747 417.183 103.747 415.273C103.747 413.363 102.989 411.536 101.643 410.189C100.291 408.838 98.4637 408.085 96.5542 408.085Z" fill="#FF4900"/>
<path d="M68.6376 356.173C67.5113 356.173 66.4106 356.501 65.4789 357.131C64.542 357.75 63.8151 358.646 63.385 359.68C62.955 360.725 62.8423 361.861 63.0574 362.967C63.2826 364.073 63.8202 365.081 64.6188 365.88C65.4123 366.673 66.4209 367.216 67.5267 367.436C68.6325 367.651 69.7742 367.544 70.8134 367.114C71.8527 366.684 72.7435 365.952 73.3629 365.02C73.9926 364.083 74.3203 362.982 74.3203 361.856C74.3203 361.114 74.1769 360.371 73.8902 359.68C73.6087 358.989 73.1889 358.364 72.6564 357.837C72.1291 357.305 71.5045 356.89 70.8134 356.608C70.1223 356.317 69.38 356.173 68.6376 356.173ZM89.3102 356.173C88.1839 356.173 87.0832 356.501 86.1515 357.131C85.2146 357.75 84.4876 358.646 84.0576 359.68C83.6275 360.725 83.5149 361.861 83.7299 362.967C83.9552 364.073 84.4927 365.081 85.2914 365.88C86.0849 366.673 87.0935 367.216 88.1993 367.436C89.3051 367.651 90.4519 367.544 91.486 367.114C92.5304 366.684 93.4161 365.952 94.0355 365.02C94.6652 364.083 94.998 362.982 94.998 361.856C94.998 361.114 94.8495 360.371 94.5679 359.68C94.2812 358.989 93.8615 358.364 93.3341 357.837C92.8017 357.305 92.1771 356.89 91.486 356.608C90.7949 356.317 90.0577 356.173 89.3102 356.173Z" fill="#FF4900"/>
<path d="M78.7542 408.746C76.9419 408.746 75.1961 408.024 73.9112 406.739C72.6262 405.454 71.9043 403.713 71.9043 401.896V398.384C71.9043 396.566 72.6262 394.821 73.9112 393.536C75.1961 392.251 76.9419 391.529 78.7542 391.529C80.5767 391.529 82.3174 392.251 83.6024 393.536C84.8874 394.821 85.6092 396.566 85.6092 398.384V401.896C85.6092 403.713 84.8874 405.454 83.6024 406.739C82.3174 408.024 80.5767 408.746 78.7542 408.746Z" fill="#235039"/>
<path d="M78.9741 386.327C86.4947 386.327 92.5869 380.23 92.5869 372.714C92.5869 365.199 86.4947 359.102 78.9741 359.102C71.4587 359.102 65.3613 365.199 65.3613 372.714C65.3613 380.23 71.4587 386.327 78.9741 386.327Z" fill="#FF4900"/>
<path d="M74.6423 367.549C74.4273 367.549 74.2072 367.615 74.028 367.738C73.8386 367.861 73.7003 368.035 73.6184 368.24C73.5314 368.44 73.5058 368.665 73.5519 368.88C73.5979 369.1 73.7003 369.295 73.8539 369.453C74.0126 369.607 74.2123 369.714 74.4273 369.76C74.6423 369.801 74.8676 369.781 75.0724 369.694C75.2771 369.607 75.4461 369.469 75.569 369.284C75.6969 369.1 75.7584 368.885 75.7584 368.665C75.7584 368.368 75.6457 368.086 75.4307 367.876C75.2259 367.672 74.9393 367.549 74.6423 367.549ZM82.8284 367.549C82.6134 367.549 82.3933 367.615 82.2141 367.738C82.0247 367.861 81.8864 368.035 81.8045 368.24C81.7124 368.44 81.6919 368.665 81.7328 368.88C81.784 369.1 81.8864 369.295 82.04 369.453C82.1987 369.607 82.3984 369.714 82.6134 369.76C82.8284 369.801 83.0537 369.781 83.2584 369.694C83.4632 369.607 83.6322 369.469 83.755 369.284C83.883 369.1 83.9445 368.885 83.9445 368.665C83.9445 368.368 83.8318 368.086 83.6168 367.876C83.412 367.672 83.1253 367.549 82.8284 367.549Z" fill="#235039"/>
<path d="M75.6309 376.836C75.7742 377.179 76.0353 377.46 76.3629 377.634C76.6957 377.808 77.0746 377.86 77.4432 377.788C77.8067 377.711 78.1343 377.511 78.3698 377.225C78.6053 376.938 78.7333 376.575 78.7333 376.201" stroke="#235039" stroke-width="3" stroke-linecap="round" stroke-linejoin="round"/>
<path d="M81.8458 376.836C81.6974 377.179 81.4414 377.46 81.1086 377.634C80.781 377.808 80.397 377.86 80.0335 377.788C79.6649 377.711 79.3424 377.511 79.1069 377.225C78.8663 376.938 78.7383 376.575 78.7383 376.201" stroke="#235039" stroke-width="3" stroke-linecap="round" stroke-linejoin="round"/>
<path d="M77.3829 372.284H80.0911C80.2651 372.284 80.4341 372.33 80.5826 372.412C80.731 372.499 80.8539 372.622 80.946 372.771C81.028 372.914 81.074 373.088 81.0792 373.257C81.0792 373.426 81.0331 373.595 80.9512 373.744L79.5945 376.145C79.5126 376.293 79.3897 376.421 79.2361 376.508C79.0877 376.595 78.9187 376.641 78.7447 376.641C78.5706 376.641 78.3965 376.595 78.2532 376.508C78.1047 376.421 77.9767 376.293 77.8897 376.145L76.5381 373.744C76.4562 373.6 76.4102 373.426 76.4102 373.257C76.4102 373.088 76.4511 372.914 76.5381 372.771C76.6252 372.622 76.7429 372.494 76.8965 372.412C77.045 372.33 77.2088 372.284 77.3829 372.284Z" fill="#235039"/>
<path d="M335.479 214.773C336.79 214.762 338.09 214.476 339.283 213.923C347.449 210.068 354.708 207.513 361.742 205.02L363.498 204.395C368.147 202.752 368.884 193.05 368.884 193.05C368.884 193.05 362.193 186.078 357.601 187.721L355.84 188.289C348.754 190.783 340.696 193.619 331.681 197.873C329.556 198.871 327.907 200.679 327.109 202.89C326.315 205.102 326.428 207.544 327.426 209.668C328.158 211.184 329.305 212.464 330.728 213.37C332.152 214.271 333.795 214.757 335.479 214.773Z" fill="#99BED2"/>
<path d="M482.149 233.208C481.98 247.839 478.806 265.42 493.606 269.961" stroke="white" stroke-width="3" stroke-linecap="round" stroke-linejoin="round"/>
<path d="M363.499 204.395C374.388 200.54 383.353 197.079 391.575 190.445C400.708 183.067 407.568 172.634 413.24 157.547L396.622 151.311C395.373 154.541 394.18 157.49 392.88 160.101L392.819 160.224C383.798 178.485 372.97 182.274 357.602 187.721L363.499 204.395Z" fill="#FDC7B3"/>
<path d="M359.019 417.136C360.36 416.819 361.722 416.619 363.099 416.517C366.673 416.174 372.519 415.212 376.886 414.474C378.627 414.177 380.234 413.374 381.519 412.165C382.799 410.952 383.695 409.386 384.089 407.665L385.385 402.244C385.39 402.228 385.395 402.218 385.41 402.213L393.361 397.478C393.366 397.467 393.376 397.467 393.386 397.467C393.402 397.467 393.407 397.467 393.417 397.478L399.996 402.198C400.001 402.203 400.006 402.218 400.011 402.223C400.016 402.234 400.016 402.244 400.011 402.249L396.627 420.894C396.622 420.904 396.617 420.915 396.612 420.92C396.596 420.935 396.586 420.94 396.576 420.94H356.014C355.947 420.797 355.333 417.991 359.019 417.136ZM475.232 406.304C475.513 410.445 479.235 412.995 482.66 414.531C486.229 415.713 490.749 420.172 491.225 420.858C491.23 420.863 491.23 420.874 491.23 420.889C491.235 420.894 491.23 420.904 491.225 420.91C491.22 420.92 491.215 420.925 491.205 420.935C491.195 420.94 491.189 420.94 491.179 420.94H461.153C461.143 420.94 461.133 420.935 461.117 420.92C461.107 420.915 461.102 420.899 461.102 420.889L460.421 402.193C460.421 402.188 460.426 402.177 460.426 402.172C460.431 402.162 460.437 402.152 460.452 402.147L468.899 397.078C468.904 397.073 468.92 397.073 468.93 397.073C468.94 397.073 468.95 397.078 468.955 397.083L475.037 402.147C475.042 402.152 475.048 402.162 475.053 402.167C475.053 402.177 475.053 402.182 475.058 402.188L475.232 406.304Z" fill="#2E2B28"/>
<path d="M490.769 161.176L473.076 162.2C473.076 167.929 476.25 172.066 472.395 175.639C472.395 175.695 472.052 175.47 472.052 175.526C469.047 178.306 464.905 179.325 460.538 179.781C459.857 179.837 459.12 179.893 458.383 179.893H425.147C420.145 179.924 415.333 178.009 411.708 174.564C409.727 172.716 408.156 170.473 407.08 167.99C406.005 165.497 405.458 162.82 405.468 160.111V160.096L392.879 160.101C395.224 147.697 402.202 136.644 412.389 129.19C413.807 128.171 416.7 130.777 416.7 130.777C416.7 130.777 420.217 124.48 422.029 123.686C432.934 118.986 445.164 118.321 456.514 121.818C458.045 122.268 460.426 127.203 460.426 127.203C460.426 127.203 463.718 124.654 465.023 125.391C478.236 132.307 487.933 146.033 490.769 161.176Z" fill="#4085BC"/>
<path d="M478.63 329.736L478.518 331.835L478.123 340.175L475.057 402.167H460.425L454.19 340.175L453.278 331.216L453.11 329.736C453.11 329.736 461.618 321.857 466.779 321.796C471.77 321.796 478.63 329.736 478.63 329.736ZM389.699 340.175L390.436 329.736C390.436 329.736 397.696 323.557 403.03 323.557C408.078 323.557 416.357 329.736 416.357 329.736L416.244 330.361L414.032 340.175L400.025 402.223H385.389L389.699 340.175Z" fill="#4186BC"/>
<path d="M390.437 329.736H416.413L416.3 330.361L414.089 340.175H389.756L390.437 329.736ZM478.518 331.835L478.124 340.175H454.19L453.279 331.216L453.11 329.736H478.631L478.518 331.835Z" fill="#1D6AA8"/>
<path d="M484.304 204.62L482.435 252.263V252.662L481.58 275.234C481.698 272.003 481.81 268.768 481.81 265.65L478.631 329.798H390.438L399.402 201.047L399.571 199.46C400.748 190.061 405.013 181.322 411.709 174.62C409.723 172.772 408.141 170.53 407.055 168.042C405.975 165.553 405.412 162.866 405.412 160.158L412.39 129.19C415.4 127.019 418.625 125.176 422.03 123.686L418.062 147.057H453.623L456.535 121.823C459.495 122.739 462.362 123.942 465.085 125.422C463.78 142.833 462.469 158.396 467.798 169.004C468.817 171.062 470.133 172.956 471.715 174.62L471.771 174.676C471.771 174.733 471.827 174.733 471.884 174.789C471.884 174.789 472.109 174.958 472.565 175.357C480.126 183.216 484.334 193.716 484.304 204.62Z" fill="white"/>
<path d="M484.304 204.621L482.436 252.662L481.581 275.234C481.699 272.004 481.811 268.768 481.811 265.65C482.436 212.392 470.185 175.132 447.326 174.62H471.884C472.125 174.851 472.35 175.096 472.565 175.357C480.127 183.216 484.335 193.716 484.304 204.621Z" fill="#E3E3E3"/>
<path d="M409.322 76.556C404.843 76.556 401.213 72.9263 401.213 68.4467C401.213 63.9671 404.843 60.3374 409.322 60.3374C413.807 60.3374 417.437 63.9671 417.437 68.4467C417.437 72.9263 413.807 76.556 409.322 76.556Z" fill="#2E2B28"/>
<path d="M453.678 102.133C445.569 102.133 438.99 95.5545 438.99 87.4452C438.99 79.3359 445.569 72.7573 453.678 72.7573C461.787 72.7573 468.366 79.3359 468.366 87.4452C468.366 95.5545 461.787 102.133 453.678 102.133Z" fill="#2E2B28"/>
<path d="M445.112 86.4264C445.25 87.2301 445.322 88.0493 445.337 88.8633V89.3189C445.512 94.3974 444.012 99.3941 441.083 103.546C438.16 107.703 433.957 110.79 429.119 112.346C427.076 113.027 418.568 94.592 418.568 94.592C418.568 94.592 410.571 100.095 400.931 100.377C399.569 97.6023 398.77 94.5818 398.581 91.4947C398.392 88.4076 398.816 85.3206 399.83 82.3973C400.839 79.4792 402.421 76.7812 404.479 74.4774C406.537 72.1737 409.035 70.2948 411.82 68.9586C412.045 68.8409 412.332 68.7282 412.557 68.6156C414.313 67.8784 429.856 71.9638 429.856 71.9638C429.856 71.9638 444.657 83.5902 445.112 86.4264Z" fill="#FDC7B3"/>
<path d="M409.721 87.4451C408.969 87.4451 408.359 86.8359 408.359 86.0833C408.359 85.3308 408.969 84.7216 409.721 84.7216C410.469 84.7216 411.083 85.3308 411.083 86.0833C411.083 86.8359 410.469 87.4451 409.721 87.4451Z" fill="#2E2B28"/>
<path d="M425.942 79.9604L419.081 89.5442L416.982 92.6619" stroke="#99BED2" stroke-width="3" stroke-linecap="round" stroke-linejoin="round"/>
<path d="M431.332 83.9844L426.172 93.7985L424.523 97.0903" stroke="#99BED2" stroke-width="3" stroke-linecap="round" stroke-linejoin="round"/>
<path d="M445.114 86.4264L442.79 86.4827C436.575 86.6721 430.436 85.0902 425.086 81.9161C419.747 78.742 415.416 74.1038 412.615 68.5593C414.392 67.7812 416.255 67.2283 418.175 66.916C418.856 66.8033 419.537 66.747 420.218 66.6856C420.556 66.6446 420.894 66.619 421.237 66.6293C425.516 66.5013 429.755 67.5457 433.487 69.6549C437.22 71.7641 440.296 74.8614 442.39 78.5987C443.762 81.0202 444.689 83.6721 445.114 86.4264Z" fill="#2E2B28"/>
<path d="M426.171 93.7985L429.289 112.229L429.176 112.29C427.087 112.966 424.906 113.329 422.71 113.365C418.21 113.524 413.771 112.382 409.911 110.084C406.046 107.775 402.928 104.406 400.932 100.377L401.003 100.341L419.08 89.6005L426.171 93.7985Z" fill="#99BED2"/>
<path d="M415.451 196.342L414.258 188.346" stroke="#2E2B28" stroke-width="3" stroke-linecap="round" stroke-linejoin="round"/>
<path d="M418.457 193.081L421.216 209.351L414.504 210.493L411.75 194.213L418.457 193.081Z" fill="#2E2B28"/>
<path d="M415.108 218.402C415.379 218.418 415.645 218.392 415.906 218.346C422.935 217.721 433.768 215.909 440.802 214.435C445.625 213.411 447.668 203.94 447.668 203.94C447.668 203.94 441.995 196.056 437.173 197.079C430.819 198.385 420.611 200.085 414.314 200.653C412.036 200.858 409.927 201.933 408.416 203.658C406.916 205.383 406.133 207.62 406.235 209.909C406.338 212.192 407.316 214.353 408.969 215.935C410.623 217.522 412.819 218.402 415.108 218.402Z" fill="#99BED2"/>
<path d="M442.846 195.999C460.596 192.544 468.654 190.388 472.166 174.845C473.031 170.673 473.333 166.393 473.077 162.144L490.77 161.12C491.144 166.915 490.724 172.736 489.521 178.419C489.521 178.531 489.465 178.644 489.465 178.762C489.239 179.724 489.014 180.63 488.784 181.537C488.727 181.711 488.671 181.88 488.615 182.105C481.58 206.494 462.869 210.124 446.251 213.354C444.49 213.697 442.677 214.035 440.804 214.435L437.174 197.079C439.104 196.736 440.972 196.342 442.846 195.999Z" fill="#FDC7B3"/>
</svg>
