<svg width="540" height="382" viewBox="0 0 540 382" fill="none" xmlns="http://www.w3.org/2000/svg">
<path d="M539.742 267.137C538.973 259.11 536.72 251.036 533.245 243.778C524.496 225.826 509.388 211.756 493.468 199.713C489.95 197.055 486.297 194.301 484.538 190.29C480.526 181.044 483.773 167.514 481.516 157.321C479.532 148.213 476.195 139.464 471.686 131.299C462.574 114.886 448.911 101.533 433.712 90.9386C402.412 69.1526 363.811 57.1573 326.196 52.9643C266.53 46.3767 204.881 56.3014 150.58 82.0988C130.558 91.6129 113.376 106.63 102.098 126.069C89.8345 147.176 86.0004 173.872 94.9309 196.648C70.8928 202.419 46.2236 209.5 26.8755 225.018C10.3674 238.275 -1.98666 260.554 0.265432 282.154C2.83739 306.283 25.1162 319.182 46.7164 325.043C135.879 349.669 231.171 347.504 322.859 343.579C372.828 341.417 422.798 338.258 472.093 329.915C494.549 326.081 519.132 319.813 531.892 300.962C538.566 291.132 540.823 279.046 539.742 267.137Z" fill="#E3E9EE"/>
<path d="M402.628 336.261C393.416 336.261 384.425 338.832 377.034 343.583C375.629 322.584 365.012 302.855 347.354 288.431C329.727 273.98 306.363 265.94 282.104 265.94C259.981 265.94 238.563 272.627 221.51 284.839C204.487 297.054 192.881 314.047 188.705 332.863C180.834 326.288 170.922 321.866 160.18 320.124C149.404 318.412 138.312 319.463 128.271 323.163C118.199 326.867 109.623 333.057 103.597 340.985C97.5715 348.891 94.3555 358.146 94.3555 367.625V381.358H445.85V373.729C445.85 368.814 444.734 363.951 442.569 359.391C440.403 354.831 437.213 350.715 433.197 347.231C429.182 343.752 424.431 340.985 419.17 339.109C413.944 337.229 408.303 336.261 402.628 336.261Z" fill="#79A58E"/>
<path d="M474.993 102.796C472.905 92.1144 466.171 84.9129 454.322 82.1248C465.008 78.6407 471.976 71.9061 474.993 61.454C477.781 70.7433 484.749 77.7114 495.668 82.1248C490.857 83.7285 486.47 86.4474 482.89 90.0222C479.316 93.6013 476.597 97.9888 474.993 102.796Z" fill="#99BED2"/>
<path d="M100.23 84.6881C97.7275 71.8931 89.6615 63.2695 75.4746 59.9281C88.2696 55.7568 96.6166 47.6907 100.23 35.1724C103.572 46.2989 111.914 54.6458 124.99 59.9281C119.233 61.8473 113.972 65.1023 109.688 69.386C105.404 73.674 102.15 78.9304 100.23 84.6881Z" fill="#99BED2"/>
<path d="M165.64 369.735L160.781 365.68L151.466 369.735C151.271 373.007 150.748 376.962 147.511 377.477L147.424 377.49C146.305 377.637 145.319 377.753 144.511 377.835C142.622 378.021 141.07 378.134 140.262 378.32C137.335 378.968 137.94 381.285 137.94 381.285H157.038V381.276H165.138L165.64 369.735Z" fill="#4085BC"/>
<path d="M239.858 381.285H202.23L201.707 369.735L207.802 366.303L215.911 369.735C216.006 371.321 216.637 372.83 217.709 374.01C218.781 375.19 220.221 375.964 221.79 376.219C225.65 376.824 230.556 377.567 233.288 377.835C235.194 378.013 236.738 378.134 237.546 378.311C240.464 378.968 239.858 381.285 239.858 381.285Z" fill="#4085BC"/>
<path d="M217.126 192.442C217.118 189.127 216.867 185.825 216.387 182.552L215.89 179.155V179.146C215.881 179.146 215.881 179.146 215.881 179.146V179.155C212.246 185.18 207.171 190.216 201.115 193.817C195.063 197.409 188.208 199.449 181.175 199.761C174.146 200.063 167.139 198.62 160.798 195.559C154.448 192.507 148.958 187.93 144.822 182.241L142.712 178.865C142.712 178.865 142.704 178.856 142.704 178.865C142.595 179.068 135.978 191.245 135.978 194.522L142.587 248.139L143.784 250.383L148.613 369.726L148.621 369.735H165.631L178.975 213.723C178.983 213.537 179.07 213.36 179.195 213.234C179.329 213.105 179.506 213.04 179.692 213.04C179.878 213.04 180.055 213.105 180.189 213.234C180.323 213.36 180.401 213.537 180.41 213.723L201.707 369.726V369.735H219.473L219.478 369.726L217.126 192.442Z" fill="#235039"/>
<path d="M210.296 187.238C183.185 223.233 146.758 203.72 141.433 192.442C141.433 189.127 141.675 185.825 142.155 182.552L142.66 179.086C142.669 179.016 142.703 178.96 142.747 178.926C142.799 178.882 142.855 178.856 142.924 178.856H206.16C207.128 178.856 208.079 179.137 208.909 179.643C209.734 180.158 210.4 180.888 210.828 181.766C211.26 182.634 211.438 183.616 211.342 184.575C211.252 185.544 210.889 186.464 210.296 187.238Z" fill="#193929"/>
<path d="M146.136 267.345H127.259V253.011C127.259 250.534 128.244 248.165 129.999 246.41C131.75 244.655 134.123 243.67 136.6 243.67H136.794C139.271 243.67 141.64 244.655 143.395 246.41C145.15 248.165 146.136 250.534 146.136 253.011V267.345ZM128.547 266.065H144.856V253.011C144.856 250.88 144.005 248.831 142.492 247.322C140.983 245.81 138.934 244.958 136.803 244.958H136.609C134.473 244.958 132.424 245.81 130.916 247.322C129.407 248.831 128.556 250.88 128.556 253.011V266.065H128.547Z" fill="#4085BC"/>
<path d="M167.131 307.286H104.881C104.392 307.286 103.921 307.091 103.567 306.746C103.221 306.391 103.026 305.92 103.026 305.427V260.978C103.026 260.489 103.221 260.018 103.567 259.664C103.921 259.318 104.392 259.123 104.881 259.123H167.131C167.619 259.123 168.091 259.318 168.445 259.664C168.791 260.018 168.985 260.489 168.985 260.978V305.427C168.985 305.92 168.791 306.391 168.445 306.746C168.091 307.091 167.619 307.286 167.131 307.286Z" fill="#FF4900"/>
<path d="M130.613 233.788L130.596 248.745C130.596 250.616 131.339 252.423 132.662 253.746C133.985 255.077 135.792 255.821 137.663 255.829H137.672C141.575 255.829 143.858 253.543 143.866 249.639L143.11 233.806C141.264 231.312 139.094 228.554 136.998 228.467C133.777 228.333 131.054 233.62 130.613 233.788Z" fill="#FC9DA9"/>
<path d="M264.385 145.724L261.762 145.84C261.567 145.849 261.377 145.866 261.182 145.884C260.996 145.884 260.819 145.892 260.642 145.918C260.499 145.944 260.361 145.966 260.227 145.992C257.767 146.298 255.416 147.172 253.358 148.564C251.31 149.955 249.606 151.81 248.409 153.975L244.437 160.805C244.506 160.883 245.733 165.478 248.703 168.024C249.235 168.478 256.129 167.484 256.67 167.907L260.642 161.078C260.819 160.758 261.079 160.485 261.39 160.299C261.705 160.105 262.06 159.988 262.419 159.971L265.008 159.854C266.88 159.768 268.652 158.942 269.914 157.559C271.181 156.18 271.846 154.347 271.764 152.476C271.678 150.604 270.861 148.836 269.469 147.569C268.086 146.307 266.257 145.637 264.385 145.724Z" fill="#FC9DA9"/>
<path d="M244.536 160.866C244.506 160.848 244.48 160.84 244.445 160.848C244.419 160.857 244.393 160.874 244.376 160.909L234.767 177.478C234.689 177.612 234.663 177.65 234.464 177.62C234.261 177.586 234.253 177.542 234.218 177.391L228.3 151.719C228.283 151.615 228.274 151.507 228.248 151.408C226.13 140.143 220.139 129.963 211.308 122.645C202.481 115.327 191.376 111.315 179.913 111.315C168.445 111.315 157.34 115.31 148.505 122.628C139.678 129.95 133.682 140.117 131.551 151.382C131.046 154.088 130.765 156.828 130.721 159.586H130.708V160.429C130.708 160.451 130.708 160.485 130.708 160.511L130.613 233.672C130.613 233.702 130.622 233.728 130.648 233.754C130.665 233.771 130.7 233.788 130.721 233.788L142.998 233.806C143.015 233.806 143.032 233.797 143.041 233.788C143.058 233.788 143.075 233.78 143.084 233.771C143.093 233.754 143.101 233.745 143.11 233.728C143.11 233.711 143.119 233.702 143.119 233.689L141.45 192.442C141.45 189.127 141.684 185.825 142.172 182.552L142.66 179.163C142.669 179.137 142.678 179.111 142.695 179.094C142.712 179.077 142.73 179.068 142.756 179.06C142.773 179.06 142.799 179.06 142.82 179.068C142.838 179.077 142.855 179.094 142.872 179.111L144.822 182.232V182.241C149.283 188.336 155.274 193.151 162.199 196.177C169.111 199.203 176.718 200.349 184.218 199.48C191.722 198.611 198.863 195.771 204.919 191.254C210.962 186.724 215.704 180.681 218.652 173.725C218.661 173.7 218.678 173.682 218.704 173.665C218.721 173.656 218.747 173.648 218.765 173.656C218.79 173.656 218.812 173.665 218.829 173.682C218.847 173.7 218.855 173.717 218.864 173.738L220.442 180.568C221.081 183.395 222.556 185.967 224.691 187.938C226.813 189.914 229.489 191.193 232.364 191.617C233.09 191.725 233.812 191.785 234.555 191.785C237.075 191.785 239.565 191.115 241.748 189.853C243.931 188.587 245.751 186.767 247.009 184.575L256.618 167.998C256.626 167.972 256.635 167.946 256.626 167.916C256.618 167.89 256.605 167.864 256.579 167.847L244.536 160.866Z" fill="#F8C364"/>
<path d="M196.822 85.9632C196.822 88.1635 196.394 90.3464 195.552 92.3866C194.709 94.4183 193.468 96.2727 191.916 97.8332C190.356 99.385 188.501 100.626 186.47 101.468C184.429 102.311 182.246 102.739 180.046 102.739C170.908 102.739 163.46 95.0926 163.283 85.9719C163.274 85.8508 163.283 86.0886 163.283 85.9719C163.335 83.2962 178.909 71.2404 179.895 71.2404C180.154 71.2404 181.075 70.7778 181.317 70.8038C181.819 70.8211 183.496 71.0977 183.984 71.1669C185.592 71.383 185.527 71.0113 186.967 71.6467C189.91 72.9608 192.271 74.089 194.034 76.7387C195.854 79.4706 196.822 82.6824 196.822 85.9632Z" fill="#FC9DA9"/>
<path d="M179.818 116.922L175.568 121.162L179.818 125.412L184.058 121.162L179.818 116.922Z" fill="#EAE7E1"/>
<path d="M193.031 67.4235H181.68C175.08 67.4235 169.767 70.9378 166.447 76.1206C166.119 76.6437 165.544 77.4866 165.163 78.2301C163.966 80.6335 163.318 83.2789 163.283 85.9719C163.274 85.8509 163.283 86.0886 163.283 85.9719C166.166 86.0281 169.002 85.1938 171.379 83.5685C173.765 81.9389 175.577 79.6133 176.571 76.9074L194.043 76.7388C195.171 76.4837 196.174 75.8267 196.848 74.8844C197.531 73.9377 197.838 72.7836 197.709 71.6294C197.583 70.4753 197.034 69.4033 196.174 68.6252C195.314 67.8515 194.194 67.4235 193.031 67.4235Z" fill="#2E2B28"/>
<path d="M166.253 142.023H154.094C153.925 142.023 153.765 141.954 153.64 141.838C153.523 141.716 153.454 141.548 153.454 141.379C153.454 141.211 153.523 141.051 153.64 140.925C153.765 140.809 153.925 140.74 154.094 140.74H166.253C166.422 140.74 166.591 140.809 166.707 140.925C166.828 141.051 166.893 141.211 166.893 141.379C166.893 141.548 166.828 141.716 166.707 141.838C166.591 141.954 166.422 142.023 166.253 142.023Z" fill="#235039"/>
<path d="M183.488 85.129C184.028 85.129 184.465 84.6881 184.465 84.1478C184.465 83.6117 184.028 83.1708 183.488 83.1708C182.947 83.1708 182.511 83.6117 182.511 84.1478C182.511 84.6881 182.947 85.129 183.488 85.129Z" fill="#2E2B28"/>
<path d="M190.391 85.129C190.931 85.129 191.368 84.6881 191.368 84.1478C191.368 83.6117 190.931 83.1708 190.391 83.1708C189.851 83.1708 189.414 83.6117 189.414 84.1478C189.414 84.6881 189.851 85.129 190.391 85.129Z" fill="#2E2B28"/>
<path d="M190.771 90.8694C190.771 91.3752 190.672 91.8723 190.477 92.3348C190.291 92.8017 190.006 93.2296 189.652 93.5841C189.297 93.9385 188.865 94.2238 188.403 94.4097C187.94 94.6042 187.443 94.7036 186.937 94.7036C186.427 94.7036 185.93 94.6042 185.467 94.4097C185.005 94.2238 184.581 93.9385 184.218 93.5841C183.868 93.2296 183.587 92.8017 183.393 92.3348C183.198 91.8723 183.099 91.3752 183.099 90.8694H190.771Z" fill="#FCFCFC"/>
<path d="M183.843 182.129L180.765 186.845C180.661 186.996 180.518 187.13 180.359 187.212C180.199 187.307 180.013 187.35 179.827 187.35C179.641 187.35 179.455 187.307 179.295 187.212C179.135 187.13 178.993 186.996 178.893 186.845L175.815 182.129C175.081 181 174.735 179.66 174.83 178.32L178.413 120.959H181.245L184.82 178.329C184.919 179.669 184.573 181 183.843 182.129Z" fill="#EAE7E1"/>
<path d="M306.428 37.7444C306.428 30.2792 304.21 22.9826 300.065 16.7753C295.919 10.5723 290.023 5.72668 283.129 2.87375C276.234 0.0164924 268.644 -0.731322 261.317 0.725402C253.999 2.18213 247.273 5.77855 241.995 11.0565C236.721 16.3301 233.125 23.0561 231.668 30.3786C230.211 37.7055 230.959 45.2917 233.812 52.1862C236.669 59.0808 241.511 64.9812 247.718 69.1266C253.925 73.272 261.222 75.4852 268.683 75.4852H280.959C284.944 75.4852 288.852 76.5702 292.267 78.6277L300.03 83.2529C300.679 83.629 301.409 83.8365 302.157 83.8408C302.905 83.8451 303.64 83.6506 304.292 83.2789C304.936 82.9115 305.481 82.3711 305.857 81.7271C306.229 81.083 306.428 80.3438 306.428 79.596V37.7444Z" fill="#79A58E"/>
<path d="M264.478 55.277C261.798 56.0161 259.014 56.0248 259.014 56.0248H244.948V51.3174L266.479 51.3218H268.152C269.272 51.2829 267.279 54.5119 264.478 55.277Z" fill="#DEDEDE"/>
<path d="M294.157 31.2432L288.494 20.925L275.375 28.3167L280.225 29.0732L269.241 49.6662C265.921 55.8951 259.277 56.0204 259.022 56.0248C264.395 56.0248 269.656 54.5291 274.229 51.7108C278.798 48.8924 282.499 44.8594 284.911 40.057L289.687 30.5472L294.157 31.2432Z" fill="white"/>
<path d="M369.357 171.365L410.75 171.763C411.356 171.767 411.956 171.629 412.492 171.352C413.037 171.08 413.504 170.678 413.854 170.181C414.213 169.688 414.442 169.118 414.524 168.512C414.606 167.912 414.537 167.298 414.325 166.731L409.415 153.072C409.082 152.147 408.939 151.17 408.982 150.193C409.026 149.208 409.268 148.252 409.683 147.362C410.106 146.476 410.694 145.676 411.416 145.015C412.142 144.353 412.994 143.843 413.919 143.51C414.84 143.182 415.821 143.035 416.798 143.078C417.783 143.13 418.739 143.363 419.625 143.787C420.515 144.202 421.311 144.79 421.972 145.516C422.633 146.247 423.143 147.089 423.476 148.015L425.456 153.625L428.387 161.674C429.398 164.497 429.722 167.523 429.32 170.496C428.918 173.466 427.807 176.302 426.083 178.757C424.354 181.212 422.067 183.214 419.404 184.597C416.742 185.984 413.785 186.706 410.781 186.706H410.603L369.21 186.309C368.229 186.296 367.256 186.097 366.357 185.708C365.449 185.327 364.632 184.77 363.949 184.069C363.262 183.365 362.717 182.535 362.354 181.627C361.983 180.715 361.805 179.747 361.81 178.761C361.823 177.784 362.021 176.812 362.41 175.908C362.795 175.005 363.349 174.188 364.053 173.501C364.753 172.818 365.583 172.273 366.491 171.901C367.403 171.538 368.376 171.352 369.357 171.365Z" fill="#A14A40"/>
<path d="M321.964 179.924C327.273 179.967 332.525 178.865 337.366 176.678C347.368 172.087 354.423 163.083 357.786 150.638C358.045 149.692 358.106 148.702 357.985 147.734C357.859 146.757 357.54 145.819 357.055 144.967C356.066 143.251 354.436 141.993 352.525 141.474C350.61 140.96 348.574 141.219 346.854 142.209C345.134 143.195 343.88 144.82 343.361 146.735C342.739 149.108 341.857 151.399 340.733 153.578C338.39 158.021 335.131 161.259 331.133 163.096C324.307 166.234 315.273 165.435 305.685 160.857C298.739 157.537 291.209 158.696 286.497 163.805C285.149 165.262 284.44 167.198 284.518 169.178C284.6 171.158 285.464 173.021 286.921 174.37C288.373 175.71 290.31 176.419 292.29 176.341C294.269 176.259 296.132 175.398 297.481 173.942C298.086 173.92 298.696 174.054 299.245 174.335C307.004 178.052 314.737 179.924 321.964 179.924Z" fill="#A14A40"/>
<path d="M384.897 378.397L394.092 374.356L393.24 360.977L387.776 356.387L381.772 360.986L382.252 370.098C382.157 373.63 380.341 375.238 377.238 375.769C373.408 376.418 384.897 378.397 384.897 378.397Z" fill="#A14A40"/>
<path d="M412.687 377.684C412.687 377.684 422.724 376.439 418.467 375.769C416.729 375.493 415.13 374.632 413.949 373.327C412.769 372.026 412.065 370.357 411.965 368.602L411.382 360.977L404.786 354.969L398.82 360.977L399.374 373.993L412.687 377.684Z" fill="#A14A40"/>
<path d="M357.941 381.367H394.532L394.091 374.356L392.033 374.784C388.904 375.436 385.718 375.761 382.524 375.761H377.246C373.407 376.418 368.294 377.256 365.19 377.555C363.094 377.762 361.382 377.883 360.487 378.091C357.275 378.808 357.941 381.367 357.941 381.367Z" fill="#FF4900"/>
<path d="M426.006 381.367C426.006 381.367 426.006 376.5 418.467 375.769L413.85 375.761C410.647 375.761 407.462 375.436 404.341 374.779L399.374 373.993L399.685 381.367H426.006Z" fill="#FF4900"/>
<path d="M348.159 100.384C349.11 105.13 351.881 109.31 355.871 112.037C359.865 114.769 364.767 115.828 369.531 114.998C374.294 114.168 378.547 111.506 381.383 107.585C384.21 103.664 385.408 98.7928 384.699 94.012C384.66 93.6964 381.4 85.1593 371.471 87.152C368.848 87.675 355.396 81.7487 355.283 81.8395C352.456 83.9316 350.291 86.7932 349.028 90.0784C347.762 93.3593 347.464 96.9341 348.159 100.384Z" fill="#A14A40"/>
<path d="M355.283 81.8395C356.995 86.5252 360.328 90.4458 364.685 92.8924C369.033 95.3304 374.117 96.1387 379.014 95.1532C379.079 95.1402 379.144 95.1229 379.205 95.1099V95.1143L384.699 94.012C384.66 93.6964 384.595 93.3852 384.539 93.0697L384.474 92.7411C383.808 89.7499 382.425 86.9748 380.432 84.6492C378.435 82.3323 375.898 80.5384 373.045 79.4318C370.188 78.3252 367.106 77.9448 364.071 78.3209C361.032 78.6969 358.132 79.8165 355.638 81.5845C355.517 81.6666 355.396 81.7487 355.283 81.8395Z" fill="white"/>
<path d="M352.793 98.5637C352.192 98.5637 351.717 98.0796 351.717 97.4831C351.717 96.8909 352.192 96.4067 352.793 96.4067C353.39 96.4067 353.874 96.8909 353.874 97.4831C353.874 98.0796 353.39 98.5637 352.793 98.5637Z" fill="#2E2B28"/>
<path d="M360.272 97.0551C359.671 97.0551 359.191 96.571 359.191 95.9788C359.191 95.3823 359.671 94.8981 360.272 94.8981C360.869 94.8981 361.353 95.3823 361.353 95.9788C361.353 96.571 360.869 97.0551 360.272 97.0551Z" fill="#2E2B28"/>
<path d="M355.521 104.04C355.667 104.516 355.905 104.957 356.225 105.337C356.541 105.713 356.934 106.029 357.371 106.258C357.812 106.487 358.291 106.63 358.784 106.673C359.281 106.716 359.778 106.66 360.254 106.509C360.725 106.362 361.157 106.12 361.542 105.8C361.918 105.48 362.234 105.082 362.454 104.641C362.687 104.2 362.821 103.725 362.865 103.224C362.904 102.735 362.843 102.234 362.692 101.762L355.521 104.04Z" fill="white"/>
<path d="M377.047 82.3452C370.421 82.3452 365.048 76.9722 365.048 70.3456C365.048 63.7147 370.421 58.346 377.047 58.346C383.67 58.346 389.047 63.7147 389.047 70.3456C389.047 76.9722 383.67 82.3452 377.047 82.3452Z" fill="white"/>
<path d="M408.919 166.394L397.451 199.281C397.451 199.285 397.451 199.294 397.451 199.298L393.249 360.934C393.249 360.947 393.241 360.96 393.236 360.964C393.223 360.977 393.21 360.977 393.197 360.977H381.838C381.825 360.977 381.812 360.977 381.799 360.964C381.794 360.96 381.786 360.947 381.786 360.934L356.455 166.317C356.455 166.308 356.455 166.304 356.459 166.295C356.459 166.291 356.468 166.282 356.468 166.278C356.472 166.269 356.481 166.265 356.485 166.265C356.494 166.26 356.498 166.26 356.507 166.26L408.867 166.329C408.88 166.329 408.888 166.329 408.893 166.329C408.901 166.334 408.906 166.342 408.914 166.347C408.919 166.355 408.919 166.36 408.927 166.368C408.927 166.381 408.927 166.386 408.919 166.394Z" fill="#235039"/>
<path d="M407.565 163.451L414.244 176.163C419.327 185.613 421.666 196.298 421 207.005L411.382 360.977H398.821L384.897 199.285" fill="#235039"/>
<path d="M357.034 126.631C359.653 124.698 362.48 123.077 365.472 121.794C371.454 119.209 377.942 118.007 384.461 118.262C390.975 118.526 397.347 120.25 403.109 123.306C408.866 126.358 413.868 130.672 417.732 135.92C421.601 141.168 424.246 147.224 425.457 153.625L414.473 153.638V153.647C414.469 156.029 413.976 158.38 413.025 160.563C412.074 162.742 410.686 164.709 408.944 166.33H384.897L356.446 166.26C354.717 164.648 353.329 162.694 352.387 160.524C351.44 158.354 350.956 156.016 350.956 153.647V153.638L340.725 153.578C342.799 142.529 348.319 133.019 357.034 126.631Z" fill="#99BED2"/>
<path d="M390.392 166.304C402.158 166.304 412.839 159.413 410.834 144.375C410.829 144.336 410.834 144.293 410.855 144.258C410.873 144.228 410.907 144.198 410.942 144.185C410.981 144.172 411.02 144.163 411.058 144.176C411.097 144.189 411.128 144.215 411.154 144.245C412.861 146.847 418.601 157.191 408.945 166.329L390.388 166.304H390.392Z" fill="#7FACC3"/>
</svg>
