<svg width="78" height="95" viewBox="0 0 78 95" fill="none" xmlns="http://www.w3.org/2000/svg">
<path d="M53.582 29.3159C51.232 27.708 48.5933 26.4298 45.9958 25.3167C43.5221 24.2447 40.8834 23.7912 38.2035 23.3377C36.843 23.0903 35.4824 22.9666 34.1218 23.0078C31.5244 23.049 28.7621 23.1727 26.1646 23.75C20.7224 25.0281 16.517 27.172 12.0642 30.4291C10.0028 31.9545 8.3536 34.016 6.70443 35.9538C5.75616 37.1082 4.93159 38.3039 4.27193 39.6232C1.92186 44.2409 0.231445 48.8585 0.0252992 54.1359C-0.0983883 57.5166 0.231455 60.6913 1.01481 63.7835C0.973581 64.3607 0.973591 64.9379 0.973591 65.5563C0.932361 72.4828 2.78767 78.626 6.95182 84.1919C10.0852 88.3973 14.8266 91.3246 19.6504 93.1799C28.6384 96.6019 39.1518 94.9115 47.4801 90.5C51.5206 88.3561 55.4786 85.7174 58.9006 82.7077C63.3533 78.7497 66.528 74.2557 68.9605 68.8959C71.1456 64.0721 71.5167 58.6298 70.8983 53.3937C70.2798 47.869 67.3113 42.6741 63.8481 38.4275C60.9208 35.0055 57.2926 31.8721 53.582 29.3159Z" fill="#2A9D8F"/>
<g clip-path="url(#clip0_1068_1764)">
<path d="M48 63L42 69L36 63H20.985C19.3977 63 17.8754 62.3694 16.753 61.247C15.6306 60.1246 15 58.6023 15 57.015V14.985C15 11.679 17.679 9 20.985 9H63.015C66.321 9 69 11.679 69 14.985V57.015C69 58.6023 68.3694 60.1246 67.247 61.247C66.1246 62.3694 64.6023 63 63.015 63H48ZM63 57V15H21V57H38.484L42 60.516L45.516 57H63ZM29.916 54.54C28.0709 53.7408 26.3111 52.7579 24.663 51.606C26.5658 48.6571 29.1779 46.2325 32.2602 44.5543C35.3425 42.8761 38.7965 41.9979 42.306 42C49.506 42 55.857 45.621 59.64 51.141C58.0235 52.3368 56.2907 53.367 54.468 54.216C53.0787 52.29 51.2514 50.7219 49.1367 49.6411C47.0221 48.5603 44.6808 47.9978 42.306 48C37.161 48 32.616 50.592 29.916 54.54ZM42 39C40.6211 39 39.2557 38.7284 37.9818 38.2007C36.7079 37.6731 35.5504 36.8996 34.5754 35.9246C33.6004 34.9496 32.8269 33.7921 32.2993 32.5182C31.7716 31.2443 31.5 29.8789 31.5 28.5C31.5 27.1211 31.7716 25.7557 32.2993 24.4818C32.8269 23.2079 33.6004 22.0504 34.5754 21.0754C35.5504 20.1004 36.7079 19.3269 37.9818 18.7993C39.2557 18.2716 40.6211 18 42 18C44.7848 18 47.4555 19.1062 49.4246 21.0754C51.3938 23.0445 52.5 25.7152 52.5 28.5C52.5 31.2848 51.3938 33.9555 49.4246 35.9246C47.4555 37.8938 44.7848 39 42 39ZM42 33C43.1935 33 44.3381 32.5259 45.182 31.682C46.0259 30.8381 46.5 29.6935 46.5 28.5C46.5 27.3065 46.0259 26.1619 45.182 25.318C44.3381 24.4741 43.1935 24 42 24C40.8065 24 39.6619 24.4741 38.818 25.318C37.9741 26.1619 37.5 27.3065 37.5 28.5C37.5 29.6935 37.9741 30.8381 38.818 31.682C39.6619 32.5259 40.8065 33 42 33Z" fill="#121212"/>
</g>
<defs>
<clipPath id="clip0_1068_1764">
<rect width="72" height="72" fill="white" transform="translate(6)"/>
</clipPath>
</defs>
</svg>
