<svg width="56" height="56" viewBox="0 0 56 56" fill="none" xmlns="http://www.w3.org/2000/svg">
<g clip-path="url(#clip0_372_727)">
<path d="M28 51.3333C15.113 51.3333 4.66666 40.887 4.66666 28C4.66666 15.113 15.113 4.66663 28 4.66663C40.887 4.66663 51.3333 15.113 51.3333 28C51.3333 40.887 40.887 51.3333 28 51.3333ZM28 46.6666C32.9507 46.6666 37.6986 44.7 41.1993 41.1993C44.7 37.6986 46.6667 32.9507 46.6667 28C46.6667 23.0493 44.7 18.3013 41.1993 14.8006C37.6986 11.3 32.9507 9.33329 28 9.33329C23.0493 9.33329 18.3013 11.3 14.8007 14.8006C11.3 18.3013 9.33332 23.0493 9.33332 28C9.33332 32.9507 11.3 37.6986 14.8007 41.1993C18.3013 44.7 23.0493 46.6666 28 46.6666ZM16.3333 28H21C21 29.8565 21.7375 31.637 23.0502 32.9497C24.363 34.2625 26.1435 35 28 35C29.8565 35 31.637 34.2625 32.9497 32.9497C34.2625 31.637 35 29.8565 35 28H39.6667C39.6667 31.0942 38.4375 34.0616 36.2496 36.2495C34.0616 38.4375 31.0942 39.6666 28 39.6666C24.9058 39.6666 21.9383 38.4375 19.7504 36.2495C17.5625 34.0616 16.3333 31.0942 16.3333 28Z" fill="url(#paint0_linear_372_727)"/>
</g>
<defs>
<linearGradient id="paint0_linear_372_727" x1="28" y1="4.66663" x2="28" y2="51.3333" gradientUnits="userSpaceOnUse">
<stop stop-color="#1D68CE"/>
<stop offset="1" stop-color="#CA66EA"/>
</linearGradient>
<clipPath id="clip0_372_727">
<rect width="56" height="56" fill="white"/>
</clipPath>
</defs>
</svg>
