<svg width="72" height="87" viewBox="0 0 72 87" fill="none" xmlns="http://www.w3.org/2000/svg">
<path d="M24.3625 30.9382C14.2915 32.9622 5.01044 40.6142 2.09775 50.6358C0.32051 56.8562 0.616716 63.274 3.57878 69.05C3.97372 69.8399 4.41801 70.5804 4.86232 71.2715C5.89904 73.5424 7.33072 75.6159 9.00922 77.4425C13.6004 82.4286 19.2776 85.2426 25.9916 86.1806C36.507 87.6122 48.0097 82.2805 53.7363 73.4437C56.3034 69.4943 57.9325 64.3601 58.0806 59.6208C58.3275 52.6599 56.1059 46.6864 52.0084 41.1572C45.9362 32.8141 34.3842 28.9141 24.3625 30.9382Z" fill="#80475E"/>
<path d="M49.5 56.25C49.5 58.0402 48.7888 59.7571 47.523 61.023C46.2571 62.2888 44.5402 63 42.75 63C40.9598 63 39.2429 62.2888 37.977 61.023C36.7112 59.7571 36 58.0402 36 56.25V38.25" stroke="#121212" stroke-width="6" stroke-linecap="round" stroke-linejoin="round"/>
<path d="M9.08437 38.2504C8.77266 38.252 8.46409 38.188 8.17873 38.0625C7.89336 37.9371 7.63759 37.753 7.42804 37.5222C7.21848 37.2914 7.05983 37.0191 6.9624 36.723C6.86497 36.4269 6.83093 36.1136 6.8625 35.8035C7.50335 28.5178 10.8505 21.7364 16.244 16.7965C21.6376 11.8565 28.6861 9.11646 36 9.11646C43.3139 9.11646 50.3624 11.8565 55.756 16.7965C61.1495 21.7364 64.4966 28.5178 65.1375 35.8035C65.1691 36.1136 65.135 36.4269 65.0376 36.723C64.9402 37.0191 64.7815 37.2914 64.572 37.5222C64.3624 37.753 64.1066 37.9371 63.8213 38.0625C63.5359 38.188 63.2273 38.252 62.9156 38.2504H9.08437Z" stroke="#121212" stroke-width="6" stroke-linecap="round" stroke-linejoin="round"/>
<path d="M24.75 38.25C24.75 18 36 9 36 9C36 9 47.25 18 47.25 38.25" stroke="#121212" stroke-width="6" stroke-linecap="round" stroke-linejoin="round"/>
</svg>
