<svg width="72" height="87" viewBox="0 0 72 87" fill="none" xmlns="http://www.w3.org/2000/svg">
<path d="M24.3625 30.9382C14.2915 32.9622 5.01044 40.6142 2.09775 50.6358C0.32051 56.8562 0.616716 63.274 3.57878 69.05C3.97372 69.8399 4.41801 70.5804 4.86232 71.2715C5.89904 73.5424 7.33072 75.6159 9.00922 77.4425C13.6004 82.4286 19.2776 85.2426 25.9916 86.1806C36.507 87.6122 48.0097 82.2805 53.7363 73.4437C56.3034 69.4943 57.9325 64.3601 58.0806 59.6208C58.3275 52.6599 56.1059 46.6864 52.0084 41.1572C45.9362 32.8141 34.3842 28.9141 24.3625 30.9382Z" fill="#F9DC5C"/>
<g clip-path="url(#clip0_620_1611)">
<path d="M36 42V48C31.2261 48 26.6477 49.8964 23.2721 53.2721C19.8964 56.6477 18 61.2261 18 66H12C12 59.6348 14.5286 53.5303 19.0294 49.0294C23.5303 44.5286 29.6348 42 36 42V42ZM36 39C26.055 39 18 30.945 18 21C18 11.055 26.055 3 36 3C45.945 3 54 11.055 54 21C54 30.945 45.945 39 36 39ZM36 33C42.63 33 48 27.63 48 21C48 14.37 42.63 9 36 9C29.37 9 24 14.37 24 21C24 27.63 29.37 33 36 33ZM64.338 60.096L68.85 64.608L64.608 68.85L60.096 64.338C57.58 65.8215 54.6094 66.3364 51.7409 65.7863C48.8724 65.2362 46.303 63.6588 44.5144 61.3497C42.7258 59.0407 41.8407 56.1586 42.025 53.2437C42.2094 50.3287 43.4505 47.5811 45.5158 45.5158C47.5811 43.4505 50.3287 42.2094 53.2437 42.025C56.1586 41.8407 59.0407 42.7258 61.3497 44.5144C63.6588 46.303 65.2362 48.8724 65.7863 51.7409C66.3364 54.6094 65.8215 57.58 64.338 60.096V60.096ZM54 60C55.5913 60 57.1174 59.3679 58.2426 58.2426C59.3679 57.1174 60 55.5913 60 54C60 52.4087 59.3679 50.8826 58.2426 49.7574C57.1174 48.6321 55.5913 48 54 48C52.4087 48 50.8826 48.6321 49.7574 49.7574C48.6321 50.8826 48 52.4087 48 54C48 55.5913 48.6321 57.1174 49.7574 58.2426C50.8826 59.3679 52.4087 60 54 60V60Z" fill="#121212"/>
</g>
<defs>
<clipPath id="clip0_620_1611">
<rect width="72" height="72" fill="white"/>
</clipPath>
</defs>
</svg>
