<svg width="24" height="25" viewBox="0 0 24 25" fill="none" xmlns="http://www.w3.org/2000/svg">
<g clip-path="url(#clip0_657_6488)">
<path d="M18.335 18.8053H15.67V14.6283C15.67 13.6323 15.65 12.3503 14.28 12.3503C12.891 12.3503 12.679 13.4343 12.679 14.5553V18.8053H10.013V10.2163H12.573V11.3863H12.608C12.966 10.7123 13.836 9.99931 15.136 9.99931C17.836 9.99931 18.336 11.7773 18.336 14.0903V18.8053H18.335ZM7.003 9.04131C6.79956 9.04157 6.59806 9.00168 6.41006 8.92391C6.22207 8.84615 6.05127 8.73205 5.90746 8.58814C5.76365 8.44424 5.64965 8.27337 5.57201 8.08532C5.49437 7.89727 5.4546 7.69575 5.455 7.49231C5.4552 7.18614 5.54618 6.88691 5.71644 6.63245C5.8867 6.378 6.12859 6.17974 6.41153 6.06276C6.69447 5.94578 7.00574 5.91532 7.30598 5.97525C7.60622 6.03517 7.88196 6.18278 8.09831 6.39942C8.31466 6.61605 8.46191 6.89197 8.52145 7.19229C8.58099 7.49261 8.55013 7.80384 8.43278 8.08663C8.31543 8.36941 8.11687 8.61105 7.86219 8.78098C7.60751 8.95091 7.30817 9.04151 7.002 9.04131H7.003ZM8.339 18.8053H5.666V10.2163H8.34V18.8053H8.339ZM19.67 3.46631H4.329C3.593 3.46631 3 4.04631 3 4.76331V20.1693C3 20.8863 3.594 21.4663 4.328 21.4663H19.666C20.4 21.4663 21 20.8863 21 20.1693V4.76331C21 4.04631 20.4 3.46631 19.666 3.46631H19.669H19.67Z" fill="white"/>
</g>
<defs>
<clipPath id="clip0_657_6488">
<rect width="24" height="24" fill="white" transform="translate(0 0.466309)"/>
</clipPath>
</defs>
</svg>
