<svg width="56" height="56" viewBox="0 0 56 56" fill="none" xmlns="http://www.w3.org/2000/svg">
<g clip-path="url(#clip0_372_716)">
<path d="M28 51.3334C15.113 51.3334 4.66669 40.887 4.66669 28C4.66669 15.113 15.113 4.66669 28 4.66669C40.887 4.66669 51.3334 15.113 51.3334 28C51.3334 40.887 40.887 51.3334 28 51.3334ZM28 46.6667C32.9507 46.6667 37.6987 44.7 41.1993 41.1993C44.7 37.6987 46.6667 32.9507 46.6667 28C46.6667 23.0493 44.7 18.3014 41.1993 14.8007C37.6987 11.3 32.9507 9.33335 28 9.33335C23.0493 9.33335 18.3014 11.3 14.8007 14.8007C11.3 18.3014 9.33335 23.0493 9.33335 28C9.33335 32.9507 11.3 37.6987 14.8007 41.1993C18.3014 44.7 23.0493 46.6667 28 46.6667ZM19.8334 32.6667H32.6667C32.9761 32.6667 33.2729 32.5438 33.4916 32.325C33.7104 32.1062 33.8334 31.8094 33.8334 31.5C33.8334 31.1906 33.7104 30.8939 33.4916 30.6751C33.2729 30.4563 32.9761 30.3334 32.6667 30.3334H23.3334C21.7863 30.3334 20.3025 29.7188 19.2086 28.6248C18.1146 27.5308 17.5 26.0471 17.5 24.5C17.5 22.9529 18.1146 21.4692 19.2086 20.3752C20.3025 19.2813 21.7863 18.6667 23.3334 18.6667H25.6667V14H30.3334V18.6667H36.1667V23.3334H23.3334C23.0239 23.3334 22.7272 23.4563 22.5084 23.6751C22.2896 23.8939 22.1667 24.1906 22.1667 24.5C22.1667 24.8094 22.2896 25.1062 22.5084 25.325C22.7272 25.5438 23.0239 25.6667 23.3334 25.6667H32.6667C34.2138 25.6667 35.6975 26.2813 36.7915 27.3752C37.8854 28.4692 38.5 29.9529 38.5 31.5C38.5 33.0471 37.8854 34.5308 36.7915 35.6248C35.6975 36.7188 34.2138 37.3334 32.6667 37.3334H30.3334V42H25.6667V37.3334H19.8334V32.6667Z" fill="url(#paint0_linear_372_716)"/>
</g>
<defs>
<linearGradient id="paint0_linear_372_716" x1="28" y1="4.66669" x2="28" y2="51.3334" gradientUnits="userSpaceOnUse">
<stop stop-color="#1D68CE"/>
<stop offset="1" stop-color="#CA66EA"/>
</linearGradient>
<clipPath id="clip0_372_716">
<rect width="56" height="56" fill="white"/>
</clipPath>
</defs>
</svg>
