<svg width="78" height="95" viewBox="0 0 78 95" fill="none" xmlns="http://www.w3.org/2000/svg">
<path d="M53.582 29.3159C51.232 27.708 48.5933 26.4298 45.9958 25.3167C43.5221 24.2447 40.8834 23.7912 38.2035 23.3377C36.843 23.0903 35.4824 22.9666 34.1218 23.0078C31.5244 23.049 28.7621 23.1727 26.1646 23.75C20.7224 25.0281 16.517 27.172 12.0642 30.4291C10.0028 31.9545 8.3536 34.016 6.70443 35.9538C5.75616 37.1082 4.93159 38.3039 4.27193 39.6232C1.92186 44.2409 0.231445 48.8585 0.0252992 54.1359C-0.0983883 57.5166 0.231455 60.6913 1.01481 63.7835C0.973581 64.3607 0.973591 64.9379 0.973591 65.5563C0.932361 72.4828 2.78767 78.626 6.95182 84.1919C10.0852 88.3973 14.8266 91.3246 19.6504 93.1799C28.6384 96.6019 39.1518 94.9115 47.4801 90.5C51.5206 88.3561 55.4786 85.7174 58.9006 82.7077C63.3533 78.7497 66.528 74.2557 68.9605 68.8959C71.1456 64.0721 71.5167 58.6298 70.8983 53.3937C70.2798 47.869 67.3113 42.6741 63.8481 38.4275C60.9208 35.0055 57.2926 31.8721 53.582 29.3159Z" fill="#07A0C3"/>
<g clip-path="url(#clip0_620_1678)">
<path d="M43.455 9.36311L66.729 15.1831C68.064 15.5131 69 16.7131 69 18.0931V21.0001H72C75.3 21.0001 78 23.7001 78 27.0001V36.0001C78 40.9711 73.971 45.0001 69 45.0001H67.737C66.132 49.0501 63.081 52.4581 59.049 54.4741L44.682 61.6591C42.993 62.5021 41.007 62.5021 39.318 61.6591L24.948 54.4741C20.922 52.4581 17.871 49.0501 16.266 45.0001H15C10.029 45.0001 6 40.9711 6 36.0001V27.0001C6 23.6851 8.685 21.0001 12 21.0001H15V18.0901C15 16.7161 15.936 15.5161 17.271 15.1801L40.545 9.36311C41.499 9.12311 42.501 9.12311 43.455 9.36311V9.36311ZM42 15.1831L21 20.4331V38.3731C21 42.9211 23.568 47.0731 27.633 49.1101L42 56.2921L56.367 49.1101C60.432 47.0761 63 42.9211 63 38.3761V20.4361L42 15.1861V15.1831ZM15 27.0001H12V36.0001C12 37.6561 13.344 39.0001 15 39.0001V27.0001ZM72 27.0001H69V39.0001C70.656 39.0001 72 37.6561 72 36.0001V27.0001Z" fill="#121212"/>
</g>
<defs>
<clipPath id="clip0_620_1678">
<rect width="72" height="72" fill="white" transform="translate(6)"/>
</clipPath>
</defs>
</svg>
