<svg width="74" height="87" viewBox="0 0 74 87" fill="none" xmlns="http://www.w3.org/2000/svg">
<path d="M50.1138 37.5316C36.707 26.9601 13.8223 28.3373 4.78998 43.8097C-2.21718 55.7989 -2.21718 70.5018 9.36693 79.5341C13.3768 82.6529 17.9942 85.0427 23.0572 86.0148C28.7278 87.0679 34.2768 86.7438 39.9878 86.0552C45.9824 85.2857 51.6934 84.0706 56.3109 79.8582C60.4828 76.0103 62.3865 70.4208 62.8725 64.8717C63.7636 54.6648 57.9715 43.7287 50.1138 37.5316Z" fill="#1C5D99"/>
<g clip-path="url(#clip0_620_1656)">
<path d="M38 62.7L52.85 47.85C55.7867 44.913 57.7865 41.1712 58.5967 37.0976C59.4068 33.0241 58.9908 28.8018 57.4013 24.9647C55.8118 21.1276 53.1201 17.8479 49.6668 15.5405C46.2134 13.2331 42.1533 12.0015 38 12.0015C33.8467 12.0015 29.7866 13.2331 26.3333 15.5405C22.8799 17.8479 20.1883 21.1276 18.5987 24.9647C17.0092 28.8018 16.5932 33.0241 17.4034 37.0976C18.2135 41.1712 20.2133 44.913 23.15 47.85L38 62.7ZM38 71.184L18.908 52.092C15.132 48.316 12.5606 43.505 11.5188 38.2676C10.477 33.0301 11.0117 27.6013 13.0553 22.6677C15.0989 17.7341 18.5595 13.5173 22.9997 10.5505C27.4398 7.58376 32.6599 6.00024 38 6.00024C43.3401 6.00024 48.5603 7.58376 53.0004 10.5505C57.4405 13.5173 60.9011 17.7341 62.9447 22.6677C64.9883 27.6013 65.523 33.0301 64.4812 38.2676C63.4395 43.505 60.868 48.316 57.092 52.092L38 71.184ZM38 39C39.5913 39 41.1174 38.3679 42.2427 37.2426C43.3679 36.1174 44 34.5913 44 33C44 31.4087 43.3679 29.8826 42.2427 28.7574C41.1174 27.6322 39.5913 27 38 27C36.4087 27 34.8826 27.6322 33.7574 28.7574C32.6322 29.8826 32 31.4087 32 33C32 34.5913 32.6322 36.1174 33.7574 37.2426C34.8826 38.3679 36.4087 39 38 39ZM38 45C34.8174 45 31.7652 43.7357 29.5147 41.4853C27.2643 39.2349 26 36.1826 26 33C26 29.8174 27.2643 26.7652 29.5147 24.5147C31.7652 22.2643 34.8174 21 38 21C41.1826 21 44.2349 22.2643 46.4853 24.5147C48.7357 26.7652 50 29.8174 50 33C50 36.1826 48.7357 39.2349 46.4853 41.4853C44.2349 43.7357 41.1826 45 38 45Z" fill="#121212"/>
</g>
<defs>
<clipPath id="clip0_620_1656">
<rect width="72" height="72" fill="white" transform="translate(2)"/>
</clipPath>
</defs>
</svg>
