<svg width="72" height="87" viewBox="0 0 72 87" fill="none" xmlns="http://www.w3.org/2000/svg">
<path d="M24.3625 30.9382C14.2915 32.9622 5.01044 40.6142 2.09775 50.6358C0.32051 56.8562 0.616716 63.274 3.57878 69.05C3.97372 69.8399 4.41801 70.5804 4.86232 71.2715C5.89904 73.5424 7.33072 75.6159 9.00922 77.4425C13.6004 82.4286 19.2776 85.2426 25.9916 86.1806C36.507 87.6122 48.0097 82.2805 53.7363 73.4437C56.3034 69.4943 57.9325 64.3601 58.0806 59.6208C58.3275 52.6599 56.1059 46.6864 52.0084 41.1572C45.9362 32.8141 34.3842 28.9141 24.3625 30.9382Z" fill="#20FC8F"/>
<g clip-path="url(#clip0_620_1638)">
<path d="M15 27C15.7956 27 16.5587 27.3161 17.1213 27.8787C17.6839 28.4413 18 29.2044 18 30C22.7134 29.9931 27.2909 31.5788 30.99 34.5H37.5C41.499 34.5 45.09 36.24 47.562 39H57C59.8358 38.9992 62.6137 39.8023 65.0116 41.3161C67.4095 42.83 69.3292 44.9925 70.548 47.553C63.453 56.916 51.966 63 39 63C30.63 63 23.55 61.191 17.82 58.026C17.6101 58.6052 17.2267 59.1055 16.722 59.4588C16.2174 59.8121 15.616 60.001 15 60H6C5.20435 60 4.44129 59.6839 3.87868 59.1213C3.31607 58.5587 3 57.7957 3 57V30C3 29.2044 3.31607 28.4413 3.87868 27.8787C4.44129 27.3161 5.20435 27 6 27H15ZM18.003 36L18 51.066L18.135 51.162C23.52 54.942 30.534 57 39 57C48.012 57 56.397 53.532 62.505 47.61L62.904 47.211L62.544 46.911C61.1274 45.8015 59.4102 45.1431 57.615 45.021L57 45H50.667C50.883 45.966 51 46.968 51 48V51H24V45L44.37 44.997L44.268 44.763C43.6931 43.5616 42.8087 42.5349 41.7058 41.7884C40.6028 41.0418 39.321 40.6023 37.992 40.515L37.5 40.5H28.71C27.3159 39.0742 25.6508 37.9415 23.8126 37.1687C21.9743 36.3959 20.0001 35.9986 18.006 36H18.003ZM12 33H9V54H12V33ZM54 15C56.3869 15 58.6761 15.9482 60.364 17.636C62.0518 19.3239 63 21.6131 63 24C63 26.3869 62.0518 28.6761 60.364 30.364C58.6761 32.0518 56.3869 33 54 33C51.6131 33 49.3239 32.0518 47.636 30.364C45.9482 28.6761 45 26.3869 45 24C45 21.6131 45.9482 19.3239 47.636 17.636C49.3239 15.9482 51.6131 15 54 15ZM54 21C53.2043 21 52.4413 21.3161 51.8787 21.8787C51.3161 22.4413 51 23.2044 51 24C51 24.7956 51.3161 25.5587 51.8787 26.1213C52.4413 26.6839 53.2043 27 54 27C54.7957 27 55.5587 26.6839 56.1213 26.1213C56.6839 25.5587 57 24.7956 57 24C57 23.2044 56.6839 22.4413 56.1213 21.8787C55.5587 21.3161 54.7957 21 54 21ZM33 6C35.3869 6 37.6761 6.94821 39.364 8.63604C41.0518 10.3239 42 12.6131 42 15C42 17.3869 41.0518 19.6761 39.364 21.364C37.6761 23.0518 35.3869 24 33 24C30.6131 24 28.3239 23.0518 26.636 21.364C24.9482 19.6761 24 17.3869 24 15C24 12.6131 24.9482 10.3239 26.636 8.63604C28.3239 6.94821 30.6131 6 33 6ZM33 12C32.2044 12 31.4413 12.3161 30.8787 12.8787C30.3161 13.4413 30 14.2044 30 15C30 15.7956 30.3161 16.5587 30.8787 17.1213C31.4413 17.6839 32.2044 18 33 18C33.7956 18 34.5587 17.6839 35.1213 17.1213C35.6839 16.5587 36 15.7956 36 15C36 14.2044 35.6839 13.4413 35.1213 12.8787C34.5587 12.3161 33.7956 12 33 12Z" fill="#121212"/>
</g>
<defs>
<clipPath id="clip0_620_1638">
<rect width="72" height="72" fill="white"/>
</clipPath>
</defs>
</svg>
