<svg width="540" height="343" viewBox="0 0 540 343" fill="none" xmlns="http://www.w3.org/2000/svg">
<path d="M540 199.139C540 244.196 503.475 280.722 458.417 280.722H119.945C74.887 280.722 38.3613 244.196 38.3613 199.139C38.3613 154.092 74.887 117.545 119.945 117.545H458.417C503.475 117.545 540 154.092 540 199.139Z" fill="#FFC000"/>
<path d="M189.475 185.217V200.586H53.1902V101.593C53.1902 63.4796 84.3914 31.4576 122.505 32.1056C155.185 32.6564 182.347 56.3516 188.255 87.4665C189.681 94.9185 196.377 100.232 203.98 100.232C214.078 100.232 221.66 90.998 219.716 81.062C210.633 34.3088 168.966 -0.931611 119.383 0.0187902C64.5194 1.05559 21.0925 47.042 21.0925 101.928V216.635C21.0925 225.501 28.2638 232.694 37.1414 232.694H205.503C214.391 232.694 221.562 225.501 221.562 216.635V185.239H189.475V185.217Z" fill="#007D38"/>
<path d="M236.456 320.595C236.456 332.961 226.412 342.984 214.035 342.984H22.4105C10.0445 342.984 0.000488281 332.961 0.000488281 320.595V167.883C0.000488281 155.517 10.0445 145.495 22.4105 145.495H214.035C226.412 145.495 236.456 155.517 236.456 167.883V320.595Z" fill="#0152BF"/>
<path d="M142.225 237.317C142.214 237.241 142.225 237.133 142.29 237.09C150.573 229.897 155.574 219.054 154.753 207.055C153.554 189.743 139.86 175.411 122.601 173.51C100.688 171.091 82.1337 188.198 82.1337 209.636C82.1337 220.609 87.0153 230.415 94.6726 237.09C94.7374 237.133 94.759 237.241 94.7374 237.317L78.5373 281.262C75.3621 289.913 81.7665 299.082 90.9789 299.082H145.994C155.207 299.082 161.611 289.913 158.425 281.262L142.225 237.317Z" fill="#007D38"/>
<path d="M442.801 145.495V252.793" stroke="white" stroke-width="1.5" stroke-linecap="round" stroke-linejoin="round"/>
<path d="M489.617 173.283L395.765 225.361" stroke="white" stroke-width="1.5" stroke-linecap="round" stroke-linejoin="round"/>
<path d="M395.765 173.283L489.617 225.361" stroke="white" stroke-width="1.5" stroke-linecap="round" stroke-linejoin="round"/>
<path d="M309.906 145.495V252.793" stroke="white" stroke-width="1.5" stroke-linecap="round" stroke-linejoin="round"/>
<path d="M356.726 173.283L262.874 225.361" stroke="white" stroke-width="1.5" stroke-linecap="round" stroke-linejoin="round"/>
<path d="M262.874 173.283L356.726 225.361" stroke="white" stroke-width="1.5" stroke-linecap="round" stroke-linejoin="round"/>
</svg>
