<svg width="398" height="420" viewBox="0 0 398 420" fill="none" xmlns="http://www.w3.org/2000/svg">
<path d="M364.249 201.986L364.492 202.599C396.748 283.617 357.453 375.589 276.477 408.215C235.627 424.67 191.947 422.898 154.466 406.72C127.032 394.876 102.907 375.32 85.6532 349.557C79.6304 340.578 74.456 330.876 70.2476 320.443C64.7456 306.784 61.268 292.832 59.7391 278.888C51.9355 209.915 90.4581 141.43 158.02 114.222C181.103 104.923 205.127 101.353 228.403 103.1C269.379 106.183 343.526 150.586 364.249 201.986Z" fill="#99BED2"/>
<path d="M364.249 201.986L364.492 202.599L359.956 208.092C359.192 209.067 358.873 210.117 358.948 211.251L360.124 229.563C360.368 233.519 355.714 235.871 352.724 233.284L329.599 213.393C328.624 212.544 328.061 211.368 328.019 210.117L327.297 183.228C327.255 181.977 326.65 180.725 325.76 179.919L311.606 167.504C310.673 166.739 309.548 166.327 308.372 166.411L278.291 168.436C275.628 168.595 273.562 170.939 273.722 173.61V173.652C273.932 176.273 276.191 178.256 278.862 178.096L300.736 176.844C303.726 176.643 305.423 180.196 303.399 182.422L283.23 203.85C281.609 205.631 278.904 205.791 277.04 204.254L261.155 191.805C259.215 190.184 256.342 190.469 254.763 192.452L254.317 192.972C252.78 194.871 253.066 197.626 254.922 199.197L283.995 223.784C285.608 225.153 287.993 225.195 289.698 223.859L296.486 218.483C299.316 216.224 303.525 218.122 303.76 221.717L304.617 234.695C304.692 235.989 304.205 237.283 303.281 238.173L285.532 255.721C284.6 256.645 284.112 257.905 284.196 259.198L285.288 275.973C285.372 277.183 284.961 278.401 284.112 279.291L268.026 297.074C267.094 298.132 266.531 299.46 266.489 300.879L265.884 317.007C265.8 318.872 265.078 320.611 263.86 321.98L233.015 356.059C232.242 356.916 231.15 357.479 229.983 357.521L223.069 358.008C221.532 358.125 220.037 357.395 219.147 356.143L210.251 343.896C209.764 343.207 209.445 342.4 209.403 341.552L205.564 282.567C205.48 281.391 204.959 280.257 204.069 279.493L195.534 272.008C194.644 271.244 194.081 270.11 194.039 268.942L193.316 258.106C193.148 255.637 191.006 253.738 188.545 253.898L169.301 255.149C168.209 255.233 167.117 254.872 166.226 254.225L144.067 236.795C143.059 235.989 142.454 234.813 142.37 233.561L140.388 203.12C140.312 201.91 140.716 200.734 141.522 199.802L161.17 177.936C161.942 177.046 163.034 176.517 164.244 176.475L200.347 174.131C201.439 174.056 202.531 174.417 203.422 175.064L212.595 182.262C213.443 182.951 214.577 183.27 215.669 183.186L248.698 181.044C249.949 180.969 251.083 180.356 251.856 179.432L258.282 171.628C259.013 170.738 259.374 169.604 259.29 168.469L257.19 136.86C257.031 134.391 254.889 132.492 252.419 132.652L250.437 132.778C249.269 132.853 248.177 133.383 247.404 134.273L229.899 153.677C229.134 154.525 228.042 155.088 226.866 155.13L184.984 157.877C183.808 157.961 182.682 158.49 181.909 159.381L177.18 164.79C176.416 165.681 175.282 166.252 174.106 166.294L162.707 167.058C160.246 167.218 158.095 165.361 157.936 162.85L157.247 152.299C157.087 149.838 158.952 147.696 161.455 147.528L170.838 146.923C172.165 146.848 173.383 146.159 174.19 145.067L192.544 121.135C193.316 120.043 194.568 119.397 195.904 119.313L213.241 118.179C214.417 118.103 215.551 117.574 216.316 116.683L228.403 103.1C235.098 103.571 241.726 104.47 248.261 105.78C298.812 115.902 343.517 150.577 364.249 201.986Z" fill="#235039"/>
<path d="M85.6538 349.591C85.637 349.591 85.6286 349.583 85.6202 349.574C79.4966 340.452 74.3138 330.666 70.2146 320.502C64.7882 307.02 61.2518 293.034 59.6978 278.93C59.6978 278.913 59.7062 278.896 59.723 278.888C59.7314 278.888 59.7313 278.888 59.7397 278.888C59.7481 278.888 59.7565 278.888 59.7649 278.896L62.075 281.324C63.251 282.575 64.8638 283.264 66.6278 283.264C66.7706 283.264 66.9134 283.256 67.0562 283.248L72.8774 282.886L73.4402 282.844C73.583 282.836 73.7174 282.828 73.8518 282.828C75.5486 282.828 77.153 283.5 78.3626 284.718L89.8454 296.158C90.9291 297.242 91.6011 298.729 91.6767 300.224L94.1043 337.016C94.1883 338.629 93.7515 340.099 92.8359 341.292C92.7603 341.409 92.6847 341.535 92.5587 341.661L85.6874 349.574C85.679 349.583 85.6622 349.591 85.6538 349.591Z" fill="#235039"/>
<path d="M216.921 420C195.383 420 174.366 415.548 154.45 406.762C154.433 406.753 154.424 406.736 154.424 406.72C154.433 406.694 154.45 406.686 154.466 406.686H155.113C176.155 406.686 196.819 402.646 216.543 394.674C237.131 386.375 255.493 374.304 271.109 358.789C286.187 343.803 298.098 326.247 306.498 306.616C314.898 286.986 319.376 266.254 319.796 244.994C320.241 222.994 316.293 201.389 308.086 180.784L307.842 180.137C306.196 176.03 304.205 171.687 301.778 166.873C301.769 166.865 301.778 166.848 301.778 166.84C301.786 166.831 301.803 166.823 301.811 166.823L308.363 166.378C308.464 166.37 308.565 166.361 308.666 166.361C309.758 166.361 310.782 166.747 311.622 167.478L325.777 179.885C326.701 180.734 327.288 181.968 327.322 183.186L328.053 210.075C328.095 211.343 328.649 212.511 329.615 213.359L352.741 233.251C353.564 233.956 354.555 234.326 355.605 234.326C356.848 234.326 358.049 233.805 358.906 232.881C359.746 231.982 360.166 230.789 360.065 229.521L358.898 211.251C358.78 210.159 359.15 209 359.914 208.067L364.442 202.565C364.45 202.557 364.467 202.548 364.475 202.548H364.484C364.492 202.557 364.501 202.565 364.509 202.574C372.514 222.339 376.378 243.095 376.009 264.263C375.647 284.684 371.372 304.626 363.299 323.526C355.21 342.485 343.719 359.419 329.153 373.875C314.067 388.828 296.36 400.42 276.502 408.332C257.073 416.069 237.022 420 216.912 420C216.921 420 216.921 420 216.921 420Z" fill="#7B9FB4"/>
<path d="M355.588 234.41C354.53 234.41 353.53 234.032 352.699 233.309L329.574 213.418C328.591 212.561 328.028 211.385 327.986 210.117L327.255 183.237C327.213 181.994 326.667 180.792 325.735 179.944L311.581 167.537C310.766 166.832 309.733 166.445 308.674 166.445C308.573 166.445 308.481 166.445 308.38 166.454L301.82 166.899C301.811 166.899 301.795 166.89 301.786 166.874C289.371 142.429 270.849 121.32 248.236 105.814C248.219 105.797 248.219 105.78 248.219 105.763C248.228 105.746 248.236 105.738 248.253 105.738C248.261 105.738 248.261 105.738 248.261 105.738C273.083 110.333 296.847 121.387 316.982 137.709C337.906 154.668 354.261 176.895 364.282 201.969L364.526 202.582C364.526 202.59 364.526 202.607 364.518 202.616L359.99 208.118C359.234 209.033 358.873 210.176 358.982 211.242L360.158 229.555C360.225 230.84 359.78 232.049 358.915 232.957C358.05 233.881 356.832 234.41 355.588 234.41Z" fill="#103221"/>
<path d="M133.862 188.848C133.862 151.821 103.58 121.858 66.3842 122.387C30.3649 122.908 1.09082 152.468 0.889216 188.487C0.771615 205.992 7.48325 221.961 18.4369 233.889L61.4954 283.374C64.6118 286.927 70.1475 286.927 73.2639 283.374L116.482 233.687C127.276 221.843 133.862 206.11 133.862 188.848Z" fill="#F8C364"/>
<path d="M67.3759 139.288C60.8658 139.203 54.4038 140.411 48.3647 142.844C42.3256 145.276 36.8297 148.884 32.196 153.457C27.5624 158.031 23.8832 163.479 21.3721 169.486C18.861 175.493 17.5679 181.938 17.5679 188.449C17.5679 194.96 18.861 201.405 21.3721 207.412C23.8832 213.419 27.5624 218.867 32.196 223.441C36.8297 228.014 42.3256 231.622 48.3647 234.054C54.4038 236.487 60.8658 237.695 67.3759 237.61C73.8859 237.695 80.348 236.487 86.3871 234.054C92.4262 231.622 97.9221 228.014 102.556 223.441C107.189 218.867 110.869 213.419 113.38 207.412C115.891 201.405 117.184 194.96 117.184 188.449C117.184 181.938 115.891 175.493 113.38 169.486C110.869 163.479 107.189 158.031 102.556 153.457C97.9221 148.884 92.4262 145.276 86.3871 142.844C80.348 140.411 73.8859 139.203 67.3759 139.288Z" fill="#F0F0F0"/>
<path d="M398 66.4679C398 29.4406 367.726 -0.522298 330.531 0.00690376C294.503 0.536106 265.238 30.0874 265.036 66.1068C264.91 83.6124 271.622 99.5809 282.584 111.509L325.634 160.993C328.75 164.555 334.286 164.555 337.402 160.993L380.62 111.307C391.414 99.4633 398 83.7384 398 66.4679Z" fill="#F8C364"/>
<path d="M331.539 16.9498C325.029 16.8647 318.567 18.0734 312.528 20.5058C306.489 22.9382 300.993 26.5458 296.359 31.1193C291.725 35.6928 288.046 41.141 285.535 47.1478C283.024 53.1546 281.731 59.6004 281.731 66.1109C281.731 72.6215 283.024 79.0672 285.535 85.0741C288.046 91.0809 291.725 96.5291 296.359 101.103C300.993 105.676 306.489 109.284 312.528 111.716C318.567 114.148 325.029 115.357 331.539 115.272C338.049 115.357 344.511 114.148 350.55 111.716C356.589 109.284 362.085 105.676 366.719 101.103C371.352 96.5291 375.032 91.0809 377.543 85.0741C380.054 79.0672 381.347 72.6215 381.347 66.1109C381.347 59.6004 380.054 53.1546 377.543 47.1478C375.032 41.141 371.352 35.6928 366.719 31.1193C362.085 26.5458 356.589 22.9382 350.55 20.5058C344.511 18.0734 338.049 16.8647 331.539 16.9498Z" fill="#F0F0F0"/>
<path d="M294.874 253.738C294.874 216.703 264.592 186.748 227.396 187.269C191.377 187.798 162.103 217.349 161.901 253.377C161.775 270.883 168.487 286.851 179.449 298.779L222.499 348.264C225.615 351.817 231.151 351.817 234.267 348.264L277.486 298.569C288.28 286.725 294.874 271 294.874 253.738Z" fill="#F8C364"/>
<path d="M228.361 204.212C221.851 204.127 215.389 205.335 209.35 207.768C203.311 210.2 197.815 213.808 193.181 218.381C188.548 222.955 184.869 228.403 182.357 234.41C179.846 240.417 178.553 246.862 178.553 253.373C178.553 259.883 179.846 266.329 182.357 272.336C184.869 278.343 188.548 283.791 193.181 288.364C197.815 292.938 203.311 296.546 209.35 298.978C215.389 301.41 221.851 302.619 228.361 302.534C234.871 302.619 241.333 301.41 247.372 298.978C253.412 296.546 258.907 292.938 263.541 288.364C268.175 283.791 271.854 278.343 274.365 272.336C276.876 266.329 278.169 259.883 278.169 253.373C278.169 246.862 276.876 240.417 274.365 234.41C271.854 228.403 268.175 222.955 263.541 218.381C258.907 213.808 253.412 210.2 247.372 207.768C241.333 205.335 234.871 204.127 228.361 204.212Z" fill="#F0F0F0"/>
</svg>
