<svg width="544" height="324" viewBox="0 0 544 324" fill="none" xmlns="http://www.w3.org/2000/svg">
<path d="M461.051 127.449C458.679 113.891 454.745 100.539 450.238 88.844C432.001 42.1687 388.378 27.9342 341.977 23.2556C291.742 18.2065 240.9 29.3244 194.969 49.3565C151.483 68.2352 101.08 95.0809 78.6419 138.705C70.778 153.955 65.0148 170.496 61.1496 187.244C56.6773 206.463 55.0503 226.46 60.0344 245.713C68.7118 279.201 94.9464 304.996 126.738 317.061C146.465 324.555 168.024 325.063 188.599 321.809C208.157 318.688 223.511 308.25 241.645 301.742C259 295.436 277.37 293.065 295.607 291.063C335.908 286.759 374.819 283.811 408.918 259.711C439.392 238.22 460.272 202.361 463.388 165.245C464.305 153.313 463.354 140.263 461.051 127.449Z" fill="#E3E9EE"/>
<path d="M502.693 132.506C524.402 132.506 542.001 114.911 542.001 93.2018C542.001 71.4969 524.402 53.8976 502.693 53.8976C480.988 53.8976 463.389 71.4969 463.389 93.2018C463.389 114.911 480.988 132.506 502.693 132.506Z" stroke="white" stroke-width="3" stroke-linecap="round" stroke-linejoin="round"/>
<path d="M41.3042 297.77C63.013 297.77 80.6084 280.171 80.6084 258.462C80.6084 236.757 63.013 219.158 41.3042 219.158C19.5992 219.158 2 236.757 2 258.462C2 280.171 19.5992 297.77 41.3042 297.77Z" stroke="white" stroke-width="3" stroke-linecap="round" stroke-linejoin="round"/>
<path d="M68.998 230.772L197.631 101.688L345.919 249.975L475.003 120.895" stroke="white" stroke-width="3" stroke-linecap="round" stroke-linejoin="round"/>
<path d="M463.025 207.742C460.729 196.028 453.347 188.134 440.357 185.078C452.071 181.259 459.714 173.873 463.025 162.415C466.08 172.601 473.719 180.239 485.688 185.078C480.391 186.782 475.579 189.738 471.63 193.683C467.684 197.606 464.755 202.445 463.025 207.742Z" fill="#99BED2"/>
<path d="M58.6402 207.742C56.3486 196.028 48.9659 188.134 35.9766 185.078C47.6903 181.259 55.3288 173.873 58.6402 162.415C61.6956 172.601 69.3379 180.239 81.3037 185.078C76.0064 186.782 71.1941 189.738 67.2488 193.683C63.2997 197.606 60.3741 202.445 58.6402 207.742Z" fill="#99BED2"/>
<path d="M296.535 0L283.752 12.7831L296.535 25.5662L309.318 12.7831L296.535 0Z" fill="#99BED2"/>
<path d="M259.907 255.842C311.177 255.842 352.739 214.281 352.739 163.011C352.739 111.741 311.177 70.1792 259.907 70.1792C208.637 70.1792 167.072 111.741 167.072 163.011C167.072 214.281 208.637 255.842 259.907 255.842Z" fill="#F8C364"/>
<path d="M167.072 163.011H352.739" stroke="#FF4900" stroke-width="3" stroke-linecap="round" stroke-linejoin="round"/>
<path d="M259.908 70.1792V255.964" stroke="#FF4900" stroke-width="3" stroke-linecap="round" stroke-linejoin="round"/>
<path d="M259.908 255.842C278.619 255.842 293.796 214.281 293.796 163.011C293.796 111.741 278.619 70.1792 259.908 70.1792C241.193 70.1792 226.016 111.741 226.016 163.011C226.016 214.281 241.193 255.842 259.908 255.842Z" stroke="#FF4900" stroke-width="3" stroke-linecap="round" stroke-linejoin="round"/>
<path d="M259.907 255.842C295.464 255.842 324.296 214.281 324.296 163.011C324.296 111.741 295.464 70.1792 259.907 70.1792C224.345 70.1792 195.518 111.741 195.518 163.011C195.518 214.281 224.345 255.842 259.907 255.842Z" stroke="#FF4900" stroke-width="3" stroke-linecap="round" stroke-linejoin="round"/>
</svg>
