<svg width="540" height="410" viewBox="0 0 540 410" fill="none" xmlns="http://www.w3.org/2000/svg">
<path d="M530.273 154.603C526.363 112.882 508.189 51.8229 459.221 38.3187C313.911 5.17235 99.6658 90.4129 61.2906 120.298C28.0493 146.198 6.10994 186.76 10.0653 228.137C13.3115 284.222 64.352 327.531 124.482 331.901C222.468 358.146 321.207 359.129 409.639 308.149C481.775 271.317 533.335 237.786 530.273 154.603Z" fill="#E3E9EE"/>
<path d="M401.612 4.03872L412.439 1.70144C412.444 1.69644 412.449 1.70144 412.454 1.70144C412.459 1.70144 412.464 1.70144 412.469 1.70644C412.474 1.70644 412.474 1.71143 412.479 1.71642L412.484 1.72641L413.473 6.46588L402.64 8.80815C401.826 8.98295 400.977 8.89804 400.213 8.56344L398.475 7.80432C398.37 7.75937 398.281 7.68946 398.211 7.60455C398.136 7.51466 398.086 7.41477 398.061 7.3049C398.041 7.19004 398.041 7.07517 398.071 6.9653C398.101 6.86042 398.156 6.75554 398.231 6.67064L399.504 5.26229C400.058 4.64301 400.798 4.21351 401.612 4.03872Z" fill="#4085BC"/>
<path d="M415.346 3.56429C415.466 4.12364 415.386 4.70795 415.122 5.21736C414.857 5.72177 414.417 6.11631 413.888 6.33605C413.359 6.55579 412.774 6.58076 412.225 6.40597C411.681 6.23617 411.216 5.87659 410.907 5.39715C410.747 5.14744 410.637 4.87776 410.577 4.59309C410.512 4.31341 410.507 4.01876 410.547 3.73409C410.627 3.16975 410.906 2.65035 411.331 2.2658C411.761 1.88624 412.305 1.6665 412.874 1.64652C413.449 1.62654 414.008 1.80634 414.457 2.15593C414.912 2.50552 415.226 3.00494 415.346 3.56429Z" fill="#0C2A42"/>
<path d="M413.853 3.88881C413.903 4.09856 413.873 4.31331 413.773 4.50309C413.673 4.69287 413.509 4.84269 413.309 4.9226C413.114 5.0075 412.894 5.01749 412.69 4.95257C412.485 4.88765 412.31 4.7528 412.195 4.57301C412.135 4.48311 412.095 4.38323 412.07 4.27336C412.045 4.1585 412.04 4.03364 412.065 3.91378C412.08 3.79892 412.125 3.68405 412.19 3.57917C412.255 3.47929 412.34 3.38939 412.44 3.31947C412.54 3.25455 412.65 3.19961 412.769 3.17964C412.889 3.14967 413.009 3.14967 413.129 3.17464C413.249 3.19462 413.359 3.23957 413.459 3.30449C413.564 3.37441 413.648 3.45431 413.718 3.55919C413.783 3.65908 413.833 3.76895 413.853 3.88881Z" fill="#4085BC"/>
<path d="M415.167 15.6002L395.06 1.72639C394.975 1.66646 394.9 1.57656 394.86 1.47668C394.82 1.3768 394.81 1.26193 394.83 1.15705C394.85 1.05217 394.905 0.952288 394.98 0.872381C395.06 0.797468 395.155 0.742538 395.26 0.722562L398.406 0.0383547C398.796 -0.041552 399.195 0.00339766 399.555 0.1732L426.463 12.8384C426.518 12.8634 426.563 12.9033 426.588 12.9483C426.613 13.0032 426.628 13.0582 426.623 13.1131C426.613 13.173 426.593 13.223 426.553 13.2679C426.513 13.3079 426.463 13.3378 426.409 13.3528L415.606 15.6851C415.531 15.7001 415.456 15.7051 415.381 15.6851C415.301 15.6751 415.232 15.6402 415.167 15.6002Z" fill="#4085BC"/>
<path d="M396.469 13.5475C395.455 13.9371 392.768 12.9732 392.768 12.9732L391.615 10.0266L391.195 8.96789L393.028 8.5284C393.323 8.45848 393.632 8.45348 393.932 8.51341C394.237 8.57834 394.516 8.7032 394.761 8.88299L395.151 9.17265L398.442 11.5998C398.442 11.5998 397.528 13.143 396.469 13.5475Z" fill="#4085BC"/>
<path d="M404.898 13.7873L394.885 18.357L392.768 12.9733L398.441 11.5999L400.539 13.148C401.058 13.5326 401.657 13.7973 402.292 13.9371C402.926 14.072 403.58 14.072 404.209 13.9371L404.898 13.7873Z" fill="#99BED2"/>
<path d="M389.996 21.6731L392.523 21.9777C392.523 21.9777 410.572 19.7653 426.344 16.5091C441.097 13.4676 453.597 9.39738 453.332 8.83804C453.118 8.37358 452.738 8.009 452.274 7.79425L452.109 7.71934L451.489 7.43967L448.813 7.20494L448.808 6.20111L448.448 6.03131C446.855 5.30216 445.062 5.10239 443.344 5.47196L404.899 13.7823L404.215 13.9321L401.393 14.5414C400.324 14.7711 399.29 15.1656 398.336 15.7L394.661 17.7726L391.29 19.6704C390.89 19.8951 390.316 20.2148 389.771 20.5194C389.662 20.5843 389.567 20.6842 389.512 20.7991C389.457 20.9189 389.442 21.0488 389.467 21.1786C389.492 21.3035 389.552 21.4233 389.652 21.5132C389.746 21.6031 389.866 21.6581 389.996 21.6731Z" fill="#99BED2"/>
<path d="M405.873 30.5877L416.706 28.2455L417.735 33.0099L406.902 35.3522C406.088 35.527 405.239 35.4421 404.475 35.1125L402.737 34.3534C402.632 34.3084 402.542 34.2385 402.472 34.1486C402.397 34.0637 402.347 33.9588 402.323 33.8489C402.303 33.7391 402.303 33.6242 402.333 33.5143C402.362 33.4045 402.417 33.3046 402.492 33.2197L403.761 31.8113C404.32 31.192 405.059 30.7625 405.873 30.5877Z" fill="#4085BC"/>
<path d="M419.607 30.1133C419.727 30.6727 419.647 31.257 419.382 31.7614C419.117 32.2658 418.678 32.6653 418.149 32.8851C417.619 33.0998 417.035 33.1248 416.485 32.955C415.941 32.7802 415.472 32.4206 415.162 31.9412C415.012 31.6965 414.897 31.4218 414.837 31.1421C414.777 30.8574 414.762 30.5678 414.807 30.2781C414.887 29.7138 415.167 29.1944 415.591 28.8148C416.016 28.4303 416.565 28.2105 417.135 28.1906C417.709 28.1706 418.268 28.3554 418.718 28.705C419.172 29.0545 419.487 29.554 419.607 30.1133Z" fill="#0C2A42"/>
<path d="M418.114 30.4329C418.159 30.6427 418.129 30.8624 418.029 31.0522C417.929 31.242 417.764 31.3918 417.569 31.4717C417.37 31.5516 417.15 31.5616 416.95 31.4967C416.74 31.4318 416.571 31.3019 416.451 31.1171C416.396 31.0273 416.351 30.9274 416.331 30.8225C416.306 30.7026 416.301 30.5828 416.321 30.4629C416.346 30.348 416.386 30.2332 416.451 30.1333C416.521 30.0284 416.606 29.9435 416.7 29.8736C416.8 29.8087 416.91 29.7587 417.025 29.7338C417.145 29.7088 417.265 29.7088 417.385 29.7288C417.505 29.7487 417.614 29.7937 417.714 29.8586C417.819 29.9235 417.904 30.0084 417.974 30.1083C418.039 30.2032 418.089 30.3181 418.114 30.4329Z" fill="#4085BC"/>
<path d="M446.246 7.56458L446.361 8.09396C446.381 8.19384 446.421 8.28873 446.481 8.37363C446.541 8.45853 446.616 8.53345 446.701 8.58839C446.791 8.64332 446.885 8.68327 446.985 8.70325C447.09 8.71823 447.195 8.71823 447.295 8.69326L451.475 7.75436L451.49 7.43972L449.328 6.45088L448.808 6.20117L446.846 6.63566C446.746 6.65564 446.651 6.6956 446.566 6.75553C446.481 6.81546 446.406 6.88537 446.351 6.97526C446.296 7.06016 446.256 7.16005 446.241 7.25993C446.221 7.35982 446.226 7.4647 446.246 7.56458Z" fill="#0C2A42"/>
<path d="M444.237 9.50237C444.132 9.52234 444.027 9.52733 443.917 9.50736C443.812 9.48738 443.707 9.44742 443.618 9.3875C443.528 9.32756 443.453 9.25265 443.388 9.16276C443.328 9.07286 443.283 8.97298 443.263 8.8681L443.123 8.24383C443.103 8.13895 443.098 8.02908 443.118 7.92421C443.138 7.81933 443.178 7.71445 443.238 7.62455C443.298 7.53466 443.373 7.45475 443.463 7.39482C443.553 7.33489 443.653 7.28995 443.757 7.26997C443.862 7.245 443.972 7.245 444.077 7.25998C444.182 7.27996 444.287 7.31991 444.377 7.37984C444.467 7.43977 444.547 7.51468 444.606 7.60458C444.666 7.68948 444.711 7.79436 444.731 7.89923L444.871 8.52351C444.916 8.73825 444.876 8.963 444.756 9.14279C444.636 9.32757 444.452 9.45242 444.237 9.50237Z" fill="#4085BC"/>
<path d="M438.026 10.8458C437.921 10.8658 437.811 10.8708 437.701 10.8508C437.596 10.8308 437.496 10.7909 437.401 10.7309C437.317 10.671 437.237 10.5961 437.172 10.5062C437.112 10.4163 437.072 10.3164 437.047 10.2115L436.912 9.58727C436.887 9.48239 436.887 9.37252 436.907 9.26764C436.922 9.15777 436.967 9.05788 437.022 8.96799C437.082 8.8731 437.162 8.79818 437.247 8.73825C437.337 8.67832 437.436 8.63338 437.541 8.60841C437.651 8.58843 437.756 8.58344 437.861 8.60342C437.971 8.62339 438.071 8.66334 438.161 8.72327C438.255 8.77821 438.33 8.85812 438.39 8.94802C438.455 9.03292 438.495 9.1328 438.52 9.24267L438.655 9.86694C438.705 10.0767 438.66 10.3014 438.54 10.4862C438.425 10.671 438.24 10.7959 438.026 10.8458Z" fill="#4085BC"/>
<path d="M435.078 11.48C434.973 11.505 434.868 11.505 434.758 11.485C434.653 11.465 434.553 11.4251 434.459 11.3652C434.369 11.3102 434.294 11.2303 434.229 11.1454C434.169 11.0555 434.124 10.9556 434.104 10.8508L433.964 10.2215C433.944 10.1166 433.939 10.0067 433.964 9.90187C433.979 9.79699 434.019 9.69711 434.079 9.60222C434.139 9.51233 434.214 9.43242 434.304 9.37249C434.394 9.31256 434.494 9.26761 434.598 9.24763C434.703 9.22266 434.813 9.22266 434.918 9.23764C435.028 9.26261 435.128 9.30257 435.218 9.3625C435.313 9.41743 435.387 9.49235 435.447 9.58224C435.507 9.67214 435.552 9.77202 435.577 9.8769L435.712 10.5012C435.757 10.7159 435.717 10.9407 435.597 11.1254C435.477 11.3052 435.293 11.4351 435.078 11.48Z" fill="#4085BC"/>
<path d="M432.137 12.1142C432.032 12.1392 431.922 12.1442 431.812 12.1192C431.707 12.1043 431.608 12.0593 431.513 12.0044C431.428 11.9444 431.348 11.8695 431.283 11.7796C431.223 11.6897 431.183 11.5898 431.158 11.485L431.023 10.8607C430.998 10.7558 430.998 10.646 431.018 10.5411C431.033 10.4312 431.078 10.3313 431.133 10.2414C431.193 10.1465 431.273 10.0716 431.358 10.0067C431.448 9.94677 431.548 9.90682 431.653 9.88185C431.762 9.86187 431.867 9.85688 431.972 9.87685C432.082 9.89683 432.182 9.93678 432.272 9.99671C432.367 10.0516 432.442 10.1316 432.502 10.2214C432.566 10.3063 432.606 10.4062 432.631 10.5161L432.766 11.1404C432.816 11.3501 432.771 11.5749 432.651 11.7597C432.537 11.9444 432.352 12.0693 432.137 12.1142Z" fill="#4085BC"/>
<path d="M429.19 12.7535C429.085 12.7735 428.975 12.7785 428.87 12.7585C428.76 12.7385 428.661 12.6986 428.571 12.6387C428.481 12.5787 428.401 12.5038 428.341 12.4139C428.276 12.324 428.236 12.2241 428.211 12.1193L428.076 11.495C428.056 11.3901 428.051 11.2802 428.071 11.1754C428.091 11.0655 428.131 10.9656 428.191 10.8757C428.251 10.7858 428.326 10.7059 428.411 10.646C428.501 10.586 428.601 10.5411 428.706 10.5161C428.815 10.4962 428.925 10.4912 429.03 10.5111C429.135 10.5311 429.235 10.5711 429.33 10.631C429.42 10.6909 429.5 10.7658 429.56 10.8557C429.619 10.9406 429.664 11.0405 429.684 11.1504L429.819 11.7747C429.869 11.9894 429.824 12.2091 429.709 12.3939C429.59 12.5787 429.405 12.7036 429.19 12.7535Z" fill="#4085BC"/>
<path d="M426.248 13.3878C426.143 13.4128 426.034 13.4128 425.924 13.3928C425.819 13.3728 425.719 13.3329 425.624 13.2729C425.539 13.218 425.459 13.1381 425.399 13.0532C425.334 12.9633 425.294 12.8634 425.269 12.7585L425.135 12.1343C425.11 12.0294 425.11 11.9145 425.13 11.8096C425.145 11.7048 425.19 11.6049 425.244 11.51C425.304 11.4201 425.384 11.3402 425.469 11.2803C425.559 11.2203 425.659 11.1804 425.764 11.1554C425.874 11.1354 425.979 11.1304 426.084 11.1504C426.193 11.1704 426.293 11.2103 426.383 11.2703C426.478 11.3252 426.553 11.4001 426.613 11.49C426.678 11.5799 426.718 11.6798 426.743 11.7847L426.878 12.4139C426.923 12.6237 426.883 12.8484 426.763 13.0282C426.648 13.213 426.463 13.3429 426.248 13.3878Z" fill="#4085BC"/>
<path d="M423.301 14.0221C423.196 14.047 423.087 14.052 422.982 14.0271C422.872 14.0121 422.772 13.9721 422.682 13.9122C422.592 13.8523 422.512 13.7774 422.452 13.6875C422.387 13.5976 422.347 13.4977 422.322 13.3928L422.188 12.7685C422.168 12.6587 422.163 12.5538 422.183 12.4489C422.203 12.339 422.243 12.2392 422.302 12.1493C422.362 12.0544 422.437 11.9795 422.522 11.9195C422.612 11.8596 422.712 11.8147 422.817 11.7897C422.927 11.7697 423.037 11.7647 423.142 11.7847C423.246 11.8047 423.346 11.8446 423.441 11.9046C423.531 11.9595 423.611 12.0394 423.671 12.1293C423.731 12.2142 423.776 12.3141 423.796 12.4239L423.931 13.0482C423.981 13.258 423.936 13.4827 423.821 13.6675C423.701 13.8523 423.516 13.9771 423.301 14.0221Z" fill="#4085BC"/>
<path d="M420.356 14.6613C420.251 14.6813 420.141 14.6863 420.036 14.6663C419.927 14.6464 419.827 14.6064 419.737 14.5465C419.647 14.4865 419.567 14.4116 419.507 14.3217C419.447 14.2318 419.402 14.132 419.377 14.0271L419.242 13.4028C419.222 13.2979 419.217 13.1881 419.237 13.0832C419.257 12.9783 419.297 12.8734 419.357 12.7835C419.417 12.6936 419.492 12.6137 419.582 12.5538C419.672 12.4939 419.772 12.4489 419.877 12.429C419.981 12.404 420.091 12.404 420.196 12.424C420.301 12.4389 420.401 12.4789 420.496 12.5388C420.586 12.5987 420.666 12.6737 420.726 12.7636C420.786 12.8485 420.831 12.9533 420.85 13.0582L420.99 13.6825C421.035 13.8972 420.995 14.122 420.875 14.3018C420.756 14.4866 420.571 14.6114 420.356 14.6613Z" fill="#4085BC"/>
<path d="M417.408 15.2956C417.303 15.3205 417.198 15.3206 417.088 15.3006C416.983 15.2806 416.884 15.2406 416.789 15.1807C416.699 15.1258 416.624 15.0459 416.559 14.961C416.499 14.8711 416.454 14.7712 416.434 14.6663L416.294 14.042C416.274 13.9322 416.269 13.8223 416.294 13.7174C416.309 13.6125 416.349 13.5127 416.409 13.4178C416.469 13.3279 416.544 13.248 416.634 13.188C416.724 13.1281 416.824 13.0881 416.928 13.0632C417.033 13.0382 417.143 13.0382 417.248 13.0532C417.358 13.0782 417.458 13.1181 417.548 13.1781C417.643 13.233 417.718 13.3079 417.778 13.3978C417.837 13.4877 417.882 13.5876 417.907 13.6924L418.042 14.3167C418.087 14.5315 418.047 14.7562 417.927 14.941C417.807 15.1208 417.623 15.2506 417.408 15.2956Z" fill="#4085BC"/>
<path d="M414.467 15.9299C414.362 15.9548 414.253 15.9548 414.148 15.9348C414.043 15.9149 413.938 15.8749 413.848 15.815C413.758 15.7601 413.683 15.6801 413.618 15.5952C413.558 15.5054 413.513 15.4055 413.493 15.3006L413.354 14.6763C413.334 14.5714 413.329 14.4566 413.349 14.3517C413.369 14.2468 413.409 14.1469 413.469 14.0521C413.528 13.9622 413.603 13.8822 413.693 13.8223C413.783 13.7624 413.883 13.7224 413.988 13.6975C414.093 13.6725 414.203 13.6725 414.307 13.6875C414.412 13.7124 414.517 13.7524 414.607 13.8123C414.697 13.8673 414.777 13.9422 414.837 14.0321C414.897 14.122 414.942 14.2218 414.962 14.3267L415.102 14.951C415.147 15.1657 415.107 15.3905 414.987 15.5753C414.867 15.7551 414.682 15.8849 414.467 15.9299Z" fill="#4085BC"/>
<path d="M411.526 16.5641C411.421 16.589 411.311 16.594 411.201 16.5691C411.096 16.5541 410.996 16.5141 410.906 16.4542C410.817 16.3943 410.737 16.3194 410.677 16.2295C410.612 16.1396 410.567 16.0397 410.547 15.9348L410.412 15.3105C410.387 15.2007 410.387 15.0958 410.407 14.9909C410.422 14.881 410.462 14.7812 410.522 14.6913C410.582 14.5964 410.662 14.5215 410.747 14.4615C410.836 14.3966 410.936 14.3566 411.041 14.3317C411.151 14.3117 411.256 14.3067 411.366 14.3267C411.471 14.3467 411.571 14.3866 411.661 14.4465C411.755 14.5015 411.83 14.5814 411.89 14.6713C411.955 14.7562 411.995 14.8561 412.02 14.9659L412.155 15.5902C412.205 15.8 412.16 16.0247 412.04 16.2095C411.92 16.3943 411.74 16.5191 411.526 16.5641Z" fill="#4085BC"/>
<path d="M408.58 17.2033C408.475 17.2233 408.366 17.2283 408.261 17.2083C408.151 17.1883 408.051 17.1484 407.961 17.0884C407.871 17.0285 407.791 16.9536 407.726 16.8637C407.666 16.7738 407.626 16.6739 407.602 16.569L407.467 15.9448C407.442 15.8399 407.442 15.73 407.462 15.6251C407.482 15.5203 407.522 15.4154 407.582 15.3255C407.636 15.2356 407.716 15.1557 407.801 15.0958C407.891 15.0358 407.991 14.9909 408.096 14.9709C408.206 14.9459 408.316 14.9459 408.421 14.9609C408.525 14.9809 408.625 15.0208 408.715 15.0808C408.81 15.1407 408.89 15.2156 408.95 15.3055C409.01 15.3904 409.055 15.4953 409.075 15.6002L409.21 16.2244C409.26 16.4392 409.215 16.6639 409.095 16.8437C408.98 17.0285 408.795 17.1534 408.58 17.2033Z" fill="#4085BC"/>
<path d="M401.657 18.6966C401.552 18.7216 401.442 18.7216 401.337 18.7016C401.227 18.6817 401.127 18.6417 401.037 18.5818C400.947 18.5268 400.867 18.4469 400.803 18.362C400.743 18.2721 400.703 18.1723 400.678 18.0674L400.543 17.4431C400.518 17.3382 400.518 17.2234 400.538 17.1235C400.558 17.0136 400.598 16.9137 400.658 16.8238C400.713 16.7289 400.793 16.654 400.877 16.5891C400.967 16.5292 401.067 16.4892 401.172 16.4642C401.282 16.4443 401.392 16.4393 401.492 16.4593C401.602 16.4792 401.701 16.5192 401.791 16.5791C401.886 16.6341 401.966 16.709 402.026 16.7989C402.086 16.8888 402.126 16.9886 402.151 17.0935L402.286 17.7228C402.336 17.9325 402.291 18.1573 402.171 18.3421C402.056 18.5218 401.871 18.6517 401.657 18.6966Z" fill="#4085BC"/>
<path d="M453.317 8.83315C453.322 8.82816 453.327 8.83315 453.327 8.83315C453.332 8.83315 453.337 8.83815 453.337 8.83815C453.477 9.1378 453.547 9.45743 453.542 9.78704C453.537 10.1117 453.457 10.4313 453.317 10.7259C453.168 11.0206 452.958 11.2753 452.698 11.4751C452.443 11.6798 452.144 11.8147 451.824 11.8846L425.799 17.508L407.85 38.5834C407.596 38.8881 407.246 39.0978 406.862 39.1778L403.715 39.857C403.61 39.8819 403.5 39.8719 403.396 39.837C403.296 39.792 403.206 39.7271 403.146 39.6372C403.081 39.5473 403.046 39.4424 403.041 39.3326C403.036 39.2227 403.066 39.1178 403.116 39.0229L414.603 19.9302L404.135 22.1876C402.372 22.5721 400.559 22.687 398.756 22.5272L392.528 21.9828C392.528 21.9828 392.528 21.9828 392.523 21.9828C392.523 21.9828 392.518 21.9778 392.523 21.9778C392.518 21.9728 392.518 21.9728 392.523 21.9728C392.523 21.9678 392.528 21.9678 392.528 21.9678L453.317 8.83315Z" fill="#4085BC"/>
<path d="M485.099 245.882H442.754V325.529H485.099V245.882Z" fill="#DEDEDE"/>
<path d="M473.893 384.854V245.882" stroke="#A2A2A2" stroke-width="3" stroke-linecap="round" stroke-linejoin="round"/>
<path d="M463.928 384.854V245.882" stroke="#A2A2A2" stroke-width="3" stroke-linecap="round" stroke-linejoin="round"/>
<path d="M453.961 384.854V245.882" stroke="#A2A2A2" stroke-width="3" stroke-linecap="round" stroke-linejoin="round"/>
<path d="M533.612 320.435H392.477V334.853H539.92V320.435H533.612Z" fill="#99BED2"/>
<path d="M122.182 295.614H66.6816V325.459H122.182V295.614Z" fill="#99BED2"/>
<path d="M0 312.384H166.461V384.854H33.0165L0 368.354V312.384Z" fill="#DEDEDE"/>
<path d="M417.598 330.807H540V384.854H429.279L417.598 363.834V330.807Z" fill="#DEDEDE"/>
<path d="M188.406 384.854H146.061V109.476L188.406 136.439V384.854Z" fill="#DEDEDE"/>
<path d="M157.271 118.171V384.854" stroke="#A2A2A2" stroke-width="3" stroke-linecap="round" stroke-linejoin="round"/>
<path d="M167.234 124.458V384.854" stroke="#A2A2A2" stroke-width="3" stroke-linecap="round" stroke-linejoin="round"/>
<path d="M177.199 130.436V384.854" stroke="#A2A2A2" stroke-width="3" stroke-linecap="round" stroke-linejoin="round"/>
<path d="M397.84 290.5H429.278V384.854H410.74L397.84 290.5Z" fill="#F3F3F3"/>
<path d="M258.084 188.958H169.537V384.854H258.084V188.958Z" fill="#99BED2"/>
<path d="M341.082 247.929H410.741V384.854H350.995L341.082 315.371V247.929Z" fill="#A2A2A2"/>
<path d="M285.012 148.765H351.155V384.854H295.739L285.012 365.642V148.765Z" fill="#99BED2"/>
<path d="M351.156 179.284H295.74" stroke="#79A58E" stroke-width="3" stroke-linecap="round" stroke-linejoin="round"/>
<path d="M351.156 214.288H295.74" stroke="#79A58E" stroke-width="3" stroke-linecap="round" stroke-linejoin="round"/>
<path d="M351.156 249.303H295.74" stroke="#79A58E" stroke-width="3" stroke-linecap="round" stroke-linejoin="round"/>
<path d="M351.156 284.317H295.74" stroke="#79A58E" stroke-width="3" stroke-linecap="round" stroke-linejoin="round"/>
<path d="M351.156 319.331H295.74" stroke="#79A58E" stroke-width="3" stroke-linecap="round" stroke-linejoin="round"/>
<path d="M351.156 354.34H295.74" stroke="#79A58E" stroke-width="3" stroke-linecap="round" stroke-linejoin="round"/>
<path d="M238.223 384.854H295.741V80.9441C295.741 80.8692 295.721 80.7992 295.686 80.7343C295.651 80.6694 295.601 80.6144 295.536 80.5745C295.476 80.5395 295.401 80.5196 295.331 80.5196C295.261 80.5146 295.191 80.5345 295.126 80.5695L238.223 113.331V384.854Z" fill="#F3F3F3"/>
<path d="M199.384 204.814H192.467V219.133H199.384V204.814Z" fill="#79A58E"/>
<path d="M212.017 204.814H205.1V219.133H212.017V204.814Z" fill="#79A58E"/>
<path d="M225.987 240.458H219.07V254.776H225.987V240.458Z" fill="#79A58E"/>
<path d="M199.292 260.265H192.375V274.583H199.292V260.265Z" fill="#79A58E"/>
<path d="M181.932 188.958H167.234V384.854H181.932V188.958Z" fill="#86B2C9"/>
<path d="M540 320.435H501.535V334.853H540V320.435Z" fill="#86B2C9"/>
<path d="M373.03 247.934H350.996V384.854H373.03V247.934Z" fill="#8D8D8D"/>
<path d="M258.084 113.346H238.223V384.854H258.084V113.346Z" fill="#DEDEDE"/>
<path d="M272.451 105.89C288.033 95.7318 298.211 83.4511 295.175 78.4569C292.138 73.4577 277.041 77.6379 261.454 87.796C245.867 97.9542 235.689 110.245 238.731 115.239C241.762 120.233 256.86 116.048 272.451 105.89Z" fill="#A2A2A2"/>
<path d="M290.072 337.659H162.766V384.849H290.072V337.659Z" fill="#79A58E"/>
<path d="M540 330.807H473.967V384.854H540V330.807Z" fill="#79A58E"/>
<path d="M33.0165 325.459H0V384.854H33.0165V325.459Z" fill="#79A58E"/>
<path d="M410.751 247.934H350.891V260.754H410.751V247.934Z" fill="#F3F3F3"/>
<path d="M373.03 247.934H350.996V260.679H373.03V247.934Z" fill="#DEDEDE"/>
<path d="M86.4397 213.799H65.0547V286.969H86.4397V213.799Z" stroke="#FF4900" stroke-width="3" stroke-linecap="round" stroke-linejoin="round"/>
<path d="M93.2615 283.398H58.2324C56.3995 283.398 54.5866 283.752 52.9086 284.451C51.2055 285.156 49.6723 286.174 48.3788 287.468C47.0854 288.761 46.0666 290.295 45.3624 291.998C44.6632 293.676 44.3086 295.489 44.3086 297.321V382.562C44.3086 384.39 44.6632 386.203 45.3624 387.886C46.0666 389.569 47.0854 391.122 48.3788 392.396C49.6723 393.689 51.2055 394.723 52.9086 395.427C54.5866 396.111 56.3995 396.481 58.2324 396.481H93.2615C95.0943 396.481 96.9022 396.111 98.5853 395.427C100.268 394.723 101.802 393.689 103.095 392.396C104.393 391.122 105.427 389.569 106.131 387.886C106.811 386.203 107.185 384.39 107.185 382.562V297.321C107.185 295.489 106.811 293.676 106.131 291.998C105.427 290.295 104.393 288.761 103.095 287.468C101.802 286.174 100.268 285.156 98.5853 284.451C96.9022 283.752 95.0943 283.398 93.2615 283.398Z" fill="#A14A40"/>
<path d="M60.8743 409.291C63.3164 409.291 65.3091 407.298 65.3091 404.856C65.3091 402.399 63.3164 400.421 60.8743 400.421C58.4171 400.421 56.4395 402.399 56.4395 404.856C56.4395 407.298 58.4171 409.291 60.8743 409.291Z" fill="#CC7F64"/>
<path d="M90.641 409.291C93.0781 409.291 95.0758 407.298 95.0758 404.856C95.0758 402.399 93.0781 400.421 90.641 400.421C88.1789 400.421 86.2012 402.399 86.2012 404.856C86.2012 407.298 88.1789 409.291 90.641 409.291Z" fill="#CC7F64"/>
<path d="M62.6119 305.677C65.4786 305.677 67.8059 303.345 67.8059 300.483C67.8059 297.616 65.4786 295.284 62.6119 295.284C59.7453 295.284 57.418 297.616 57.418 300.483C57.418 303.345 59.7453 305.677 62.6119 305.677Z" fill="white"/>
<path d="M91.0432 306.321L84.6456 296.562L71.2812 312.629L91.0432 306.321Z" fill="#CC7F64"/>
<path d="M75.7563 320.375H57.4727V328.19H75.7563V320.375Z" fill="#F7D6CA"/>
<path d="M61.373 213.799H90.1395" stroke="#CC7F64" stroke-width="3" stroke-linecap="round" stroke-linejoin="round"/>
<path d="M115.806 191.24C114.422 184.154 109.952 179.379 102.102 177.531C109.183 175.224 113.803 170.754 115.806 163.827C117.653 169.985 122.273 174.605 129.515 177.531C126.323 178.595 123.417 180.398 121.044 182.77C118.672 185.142 116.869 188.054 115.806 191.24Z" fill="white"/>
<path d="M377.779 101.645C376.396 94.588 371.951 89.8336 364.125 87.9957C371.182 85.6934 375.781 81.2436 377.779 74.3417C379.617 80.4795 384.222 85.0791 391.428 87.9957C388.252 89.0495 385.355 90.8474 382.993 93.2097C380.631 95.5719 378.838 98.4685 377.779 101.645Z" fill="white"/>
<path d="M287.015 76.9336C286.366 77.3681 286.201 81.8379 285.547 82.1625C284.792 82.602 284.008 82.9615 283.204 83.2562C280.937 84.1052 278.53 84.4848 276.108 84.3999C273.69 84.3 271.313 83.7356 269.126 82.7218C266.923 81.708 264.951 80.2697 263.308 78.4918C261.674 76.7138 260.396 74.6363 259.557 72.3589C258.303 69.0678 258.009 65.4919 258.688 62.0509C258.753 60.7874 258.938 59.5339 259.232 58.3003C260.975 54.3799 264.896 56.013 269.036 54.0503C269.585 53.8355 272.851 56.4475 273.396 56.2327C282.985 52.7418 278.625 51.9827 282.116 61.4616C285.057 69.4173 293.552 72.249 287.015 76.9336Z" fill="#A14A40"/>
<path d="M259.961 58.63C261.075 64.8078 264.176 70.4512 268.796 74.7012C273.42 78.9513 279.304 81.5782 285.546 82.1625C289.632 79.9401 292.713 76.2494 294.186 71.8346C295.659 67.4197 295.405 62.6153 293.487 58.3753C291.559 54.1502 288.108 50.7941 283.813 49.0062C279.533 47.2083 274.714 47.1134 270.344 48.7116L268.711 49.3658C267.522 49.9551 266.399 50.6543 265.335 51.4384C264.701 50.6293 263.882 49.9751 262.968 49.5306C262.044 49.0711 261.03 48.8314 259.996 48.8214C258.328 48.8014 256.715 49.4107 255.461 50.5194C254.218 51.6331 253.434 53.1714 253.269 54.8344C253.109 56.4925 253.579 58.1605 254.577 59.499C255.581 60.8274 257.05 61.7463 258.688 62.051C259.122 60.9623 259.447 59.7187 259.886 58.63H259.961Z" fill="#2E2B28"/>
<path d="M268.822 92.4056C267.993 94.6729 266.719 96.7555 265.071 98.5284C263.428 100.306 261.455 101.745 259.263 102.759C257.065 103.772 254.688 104.337 252.271 104.437C249.864 104.521 247.452 104.142 245.174 103.303C243.606 102.769 242.138 101.974 240.819 100.961C234.282 96.2761 239.076 88.6999 242.018 80.7492C245.504 71.1604 247.901 66.9103 257.49 70.3963C258.034 70.616 259.013 69.1427 259.558 69.3625C263.678 71.3901 266.904 74.8661 268.612 79.1111C270.315 83.3611 270.4 88.1006 268.822 92.4056Z" fill="#FDC7B3"/>
<path d="M258.579 84.6696C257.141 88.615 254.778 92.1458 251.682 94.9775C248.596 97.8092 244.87 99.8718 240.82 100.961C237.199 98.3686 234.642 94.5331 233.613 90.1931C232.604 85.8482 233.189 81.2835 235.271 77.3381C237.364 73.4027 240.805 70.3413 244.97 68.7531C249.145 67.15 253.74 67.1151 257.925 68.6533C258.469 68.873 259.013 69.1427 259.558 69.3624C260.701 74.4615 260.367 79.7653 258.579 84.6696Z" fill="#A14A40"/>
<path d="M257.544 393.25L255.416 395.212H243.975L241.907 393.25L243.87 305.971C243.87 305.757 243.43 305.647 243.43 305.971L234.496 393.25L232.533 396.086L221.421 397.175L218.804 393.2C218.804 393.2 215.318 294.53 213.031 248.548C212.626 241.477 212.661 234.375 213.141 227.303C215.103 197.338 224.637 186.201 224.637 186.201L231.884 180.123L278.519 186.116C279.933 245.282 257.544 393.25 257.544 393.25Z" fill="#4083BA"/>
<path d="M264.242 186.221C264.242 186.221 223.495 186.77 213.796 224.362C213.686 224.686 213.361 224.576 213.361 224.252C215.759 196.684 224.638 186.201 224.638 186.201L264.242 186.221Z" fill="#40627E"/>
<path d="M261.195 409.705H219.459L218.915 396.845L218.805 393.2L234.496 393.25L234.716 396.845C234.826 398.613 235.53 400.291 236.719 401.6C237.917 402.903 239.511 403.767 241.254 404.037C245.504 404.691 250.952 405.565 254.004 405.78C256.071 406 257.814 406.11 258.688 406.329C261.844 407.198 261.195 409.705 261.195 409.705Z" fill="#FF4900"/>
<path d="M284.292 409.705H242.56L242.016 396.845L241.906 393.25H257.543L257.813 396.845C257.923 398.613 258.632 400.291 259.82 401.6C261.019 402.903 262.607 403.767 264.35 404.037C268.6 404.691 274.049 405.565 277.1 405.78C279.173 406 280.916 406.11 281.785 406.329C284.946 407.198 284.292 409.705 284.292 409.705Z" fill="#FF4900"/>
<path d="M270.564 409.705H312.295L312.84 396.845L313.114 393.25L309.898 391.402L300.854 390.528L297.368 393.25L297.043 396.845C296.933 398.613 296.224 400.291 295.035 401.6C293.847 402.903 292.249 403.767 290.506 404.037C286.256 404.691 280.807 405.565 277.755 405.78C275.683 406 273.94 406.11 273.071 406.329C269.91 407.198 270.564 409.705 270.564 409.705Z" fill="#F8C364"/>
<path d="M278.41 186.221H325.81C325.81 186.221 331.473 205.619 330.494 224.252C329.511 242.885 313.115 393.25 313.115 393.25H297.368L278.41 186.221Z" fill="#FF4900"/>
<path d="M325.81 186.221L326.898 130.107C326.993 124.583 325.914 119.104 323.727 114.025C321.55 108.936 318.298 104.382 314.223 100.656C310.138 96.9303 305.313 94.1086 300.06 92.3856C294.806 90.6626 289.252 90.0733 283.749 90.6626L213.251 98.1838C210.724 98.4535 208.377 99.6721 206.699 101.59C205.035 103.508 204.142 105.995 204.206 108.532C204.271 111.104 205.305 113.546 207.103 115.364C208.911 117.197 211.343 118.25 213.905 118.34L221.202 118.665L224.907 122.151L260.975 124.443L255.202 183.175L263.917 187.42L278.844 190.691L325.81 186.221Z" fill="white"/>
<path d="M262.284 149.614C265.006 149.719 304.015 151.681 325.046 140.784C325.261 140.679 325.156 140.35 324.936 140.24L261.41 134.576L262.174 149.394C262.064 149.614 262.174 149.614 262.284 149.614Z" fill="#F5F5F5"/>
<path d="M278.844 190.691C278.844 190.691 325.045 186.256 324.891 186.311L279.933 201.259C279.823 201.259 279.718 201.259 279.718 201.149L278.734 191.016C278.734 190.691 278.844 190.691 278.844 190.691Z" fill="#C93A00"/>
<path d="M309.898 142.857C307.6 142.857 305.388 141.973 303.72 140.395C302.052 138.811 301.053 136.654 300.933 134.357C300.798 132.069 301.562 129.812 303.046 128.059C304.539 126.306 306.632 125.192 308.919 124.933C314.268 124.323 319.586 123.394 324.825 122.151C325.969 121.891 327.158 121.861 328.311 122.046C329.48 122.241 330.579 122.665 331.582 123.285C332.571 123.909 333.445 124.723 334.12 125.672C334.809 126.631 335.298 127.709 335.558 128.853C335.823 129.997 335.862 131.185 335.668 132.354C335.473 133.508 335.058 134.616 334.439 135.61C333.805 136.614 333.001 137.473 332.042 138.162C331.083 138.836 330.004 139.326 328.856 139.585C322.918 141.039 316.895 142.103 310.827 142.802C310.522 142.792 310.202 142.812 309.898 142.857Z" fill="#FDC7B3"/>
<path d="M310.826 142.802L308.919 124.933C287.454 127.33 271.327 123.899 260.755 120.193L221.201 118.665C219.982 121.981 219.458 125.497 219.678 129.018L224.637 186.201L278.734 191.015L275.762 145.254C284.327 145.144 282.31 144.675 295.624 143.726C300.419 143.621 305.488 143.346 310.826 142.802Z" fill="#F8C364"/>
<path d="M313.169 108.642C317.983 108.642 321.884 104.741 321.884 99.9269C321.884 95.1175 317.983 91.207 313.169 91.207C308.35 91.207 304.449 95.1175 304.449 99.9269C304.449 104.741 308.35 108.642 313.169 108.642Z" fill="#FFDFD3"/>
</svg>
