<svg width="24" height="25" viewBox="0 0 24 25" fill="none" xmlns="http://www.w3.org/2000/svg">
<path d="M22.1621 6.12224C21.3986 6.45993 20.589 6.68171 19.7601 6.78024C20.6338 6.25767 21.2878 5.43525 21.6001 4.46624C20.7801 4.95424 19.8811 5.29624 18.9441 5.48124C18.3147 4.80781 17.4804 4.3612 16.571 4.21082C15.6616 4.06044 14.728 4.21473 13.9153 4.64969C13.1026 5.08465 12.4564 5.77592 12.0772 6.61603C11.6979 7.45614 11.6068 8.39802 11.8181 9.29524C10.1552 9.21189 8.52838 8.77976 7.04334 8.0269C5.55829 7.27404 4.24818 6.21728 3.19805 4.92524C2.82634 5.56369 2.63101 6.28946 2.63205 7.02823C2.63205 8.47824 3.37005 9.75924 4.49205 10.5092C3.82806 10.4883 3.17869 10.309 2.59805 9.98624V10.0382C2.59825 11.0039 2.93242 11.9399 3.5439 12.6873C4.15538 13.4347 5.00653 13.9477 5.95305 14.1392C5.33667 14.3063 4.69036 14.3309 4.06305 14.2112C4.32992 15.0425 4.85006 15.7694 5.55064 16.2903C6.25123 16.8113 7.09718 17.1 7.97005 17.1162C7.10253 17.7976 6.10923 18.3012 5.04693 18.5984C3.98464 18.8956 2.87418 18.9805 1.77905 18.8482C3.69075 20.0777 5.91615 20.7304 8.18905 20.7282C15.8821 20.7282 20.0891 14.3552 20.0891 8.82824C20.0891 8.64824 20.0841 8.46624 20.0761 8.28824C20.8949 7.6964 21.6017 6.96325 22.1631 6.12324L22.1621 6.12224Z" fill="white"/>
</svg>
