<svg width="212" height="40" viewBox="0 0 212 40" fill="none" xmlns="http://www.w3.org/2000/svg">
<circle cx="20" cy="20" r="20" fill="#2FBF71"/>
<g clip-path="url(#clip0_322_624)">
<path d="M18.1667 22.9077L26.5927 14.4807L27.8898 15.7769L18.1667 25.5L12.333 19.6663L13.6292 18.3702L18.1667 22.9077Z" fill="white"/>
</g>
<circle cx="106" cy="20" r="20" fill="#2FBF71"/>
<g clip-path="url(#clip1_322_624)">
<path d="M104.167 22.9077L112.593 14.4807L113.89 15.7769L104.167 25.5L98.333 19.6663L99.6292 18.3702L104.167 22.9077Z" fill="white"/>
</g>
<circle cx="192" cy="20" r="19" stroke="#2FBF71" stroke-width="2"/>
<path d="M192.499 26.1591C191.681 26.1591 190.954 26.0189 190.317 25.7386C189.685 25.4583 189.185 25.0682 188.817 24.5682C188.45 24.0682 188.255 23.4905 188.232 22.8352H190.369C190.388 23.1496 190.492 23.4242 190.681 23.6591C190.871 23.8902 191.122 24.0701 191.437 24.1989C191.751 24.3277 192.103 24.392 192.494 24.392C192.91 24.392 193.28 24.3201 193.602 24.1761C193.924 24.0284 194.175 23.8239 194.357 23.5625C194.539 23.3011 194.628 23 194.624 22.6591C194.628 22.3068 194.537 21.9962 194.352 21.7273C194.166 21.4583 193.897 21.2481 193.545 21.0966C193.196 20.9451 192.776 20.8693 192.283 20.8693H191.255V19.2443H192.283C192.689 19.2443 193.043 19.1742 193.346 19.0341C193.653 18.8939 193.893 18.697 194.067 18.4432C194.242 18.1856 194.327 17.8883 194.323 17.5511C194.327 17.2216 194.253 16.9356 194.102 16.6932C193.954 16.447 193.744 16.2557 193.471 16.1193C193.202 15.983 192.886 15.9148 192.522 15.9148C192.166 15.9148 191.836 15.9792 191.533 16.108C191.23 16.2367 190.986 16.4205 190.8 16.6591C190.615 16.8939 190.516 17.1742 190.505 17.5H188.477C188.492 16.8485 188.679 16.2765 189.039 15.7841C189.403 15.2879 189.888 14.9015 190.494 14.625C191.1 14.3447 191.78 14.2045 192.533 14.2045C193.31 14.2045 193.984 14.3504 194.556 14.642C195.132 14.9299 195.577 15.3182 195.891 15.8068C196.206 16.2955 196.363 16.8352 196.363 17.4261C196.367 18.0814 196.174 18.6307 195.783 19.0739C195.397 19.517 194.889 19.8068 194.261 19.9432V20.0341C195.079 20.1477 195.706 20.4508 196.141 20.9432C196.581 21.4318 196.799 22.0398 196.795 22.767C196.795 23.4186 196.609 24.0019 196.238 24.517C195.871 25.0284 195.363 25.4299 194.715 25.7216C194.071 26.0133 193.333 26.1591 192.499 26.1591Z" fill="#2FBF71"/>
<line x1="38" y1="21" x2="86" y2="21" stroke="#2FBF71" stroke-width="2"/>
<line x1="125" y1="21" x2="173" y2="21" stroke="#2FBF71" stroke-width="2" stroke-dasharray="3 3"/>
<defs>
<clipPath id="clip0_322_624">
<rect width="22" height="22" fill="white" transform="translate(9 9)"/>
</clipPath>
<clipPath id="clip1_322_624">
<rect width="22" height="22" fill="white" transform="translate(95 9)"/>
</clipPath>
</defs>
</svg>
