<svg width="540" height="334" viewBox="0 0 540 334" fill="none" xmlns="http://www.w3.org/2000/svg">
<path d="M192.693 333.02H21.7626C9.74942 333.02 0 323.281 0 311.252V283.667C0 271.648 76.6381 245.317 104.488 245.14C133.617 244.964 214.456 271.638 214.456 283.667V311.252C214.456 323.27 204.722 333.02 192.693 333.02Z" fill="#6EA59E"/>
<path d="M198.365 307.766H16.1051C7.21044 307.766 0.00976562 300.565 0.00976562 291.676V17.0704C0.00976562 8.18091 7.21044 0.980225 16.1051 0.980225H198.376C207.27 0.980225 214.466 8.18091 214.466 17.0704V291.676C214.455 300.565 207.255 307.766 198.365 307.766Z" fill="#86CCC2"/>
<path d="M36.4956 32.8808H177.986V75.2457H36.4956V32.8808Z" fill="#2E2B28"/>
<path d="M36.4956 93.579H70.028" stroke="white" stroke-width="3" stroke-linecap="round" stroke-linejoin="round"/>
<path d="M36.4956 105.116H92.4382" stroke="white" stroke-width="3" stroke-linecap="round" stroke-linejoin="round"/>
<path d="M49.7052 133.162C47.9481 133.127 46.2017 133.443 44.5682 134.092C42.9348 134.74 41.447 135.708 40.1921 136.938C38.9371 138.168 37.9402 139.637 37.2596 141.257C36.5791 142.877 36.2285 144.617 36.2285 146.374C36.2285 148.132 36.5791 149.872 37.2596 151.492C37.9402 153.112 38.9371 154.581 40.1921 155.811C41.447 157.041 42.9348 158.009 44.5682 158.657C46.2017 159.306 47.9481 159.622 49.7052 159.587C51.4623 159.622 53.2087 159.306 54.8422 158.657C56.4757 158.009 57.9634 157.041 59.2183 155.811C60.4733 154.581 61.4702 153.112 62.1508 151.492C62.8314 149.872 63.1819 148.132 63.1819 146.374C63.1819 144.617 62.8314 142.877 62.1508 141.257C61.4702 139.637 60.4733 138.168 59.2183 136.938C57.9634 135.708 56.4757 134.74 54.8422 134.092C53.2087 133.443 51.4623 133.127 49.7052 133.162Z" fill="white"/>
<path d="M88.0558 133.162C86.2987 133.127 84.5523 133.443 82.9188 134.092C81.2854 134.74 79.7976 135.708 78.5427 136.938C77.2877 138.168 76.2908 139.637 75.6102 141.257C74.9296 142.877 74.5791 144.617 74.5791 146.374C74.5791 148.132 74.9296 149.872 75.6102 151.492C76.2908 153.112 77.2877 154.581 78.5427 155.811C79.7976 157.041 81.2854 158.009 82.9188 158.657C84.5523 159.306 86.2987 159.622 88.0558 159.587C89.8129 159.622 91.5593 159.306 93.1928 158.657C94.8262 158.009 96.314 157.041 97.5689 155.811C98.8239 154.581 99.8208 153.112 100.501 151.492C101.182 149.872 101.532 148.132 101.532 146.374C101.532 144.617 101.182 142.877 100.501 141.257C99.8208 139.637 98.8239 138.168 97.5689 136.938C96.314 135.708 94.8262 134.74 93.1928 134.092C91.5593 133.443 89.8129 133.127 88.0558 133.162Z" fill="white"/>
<path d="M126.416 133.162C124.659 133.127 122.912 133.443 121.279 134.092C119.645 134.74 118.157 135.708 116.903 136.938C115.648 138.168 114.651 139.637 113.97 141.257C113.289 142.877 112.939 144.617 112.939 146.374C112.939 148.132 113.289 149.872 113.97 151.492C114.651 153.112 115.648 154.581 116.903 155.811C118.157 157.041 119.645 158.009 121.279 158.657C122.912 159.306 124.659 159.622 126.416 159.587C128.173 159.622 129.919 159.306 131.553 158.657C133.186 158.009 134.674 157.041 135.929 155.811C137.184 154.581 138.181 153.112 138.861 151.492C139.542 149.872 139.892 148.132 139.892 146.374C139.892 144.617 139.542 142.877 138.861 141.257C138.181 139.637 137.184 138.168 135.929 136.938C134.674 135.708 133.186 134.74 131.553 134.092C129.919 133.443 128.173 133.127 126.416 133.162Z" fill="white"/>
<path d="M164.761 133.162C163.004 133.127 161.258 133.443 159.624 134.092C157.991 134.74 156.503 135.708 155.248 136.938C153.993 138.168 152.996 139.637 152.316 141.257C151.635 142.877 151.285 144.617 151.285 146.374C151.285 148.132 151.635 149.872 152.316 151.492C152.996 153.112 153.993 154.581 155.248 155.811C156.503 157.041 157.991 158.009 159.624 158.657C161.258 159.306 163.004 159.622 164.761 159.587C166.518 159.622 168.265 159.306 169.898 158.657C171.532 158.009 173.02 157.041 174.275 155.811C175.529 154.581 176.526 153.112 177.207 151.492C177.888 149.872 178.238 148.132 178.238 146.374C178.238 144.617 177.888 142.877 177.207 141.257C176.526 139.637 175.529 138.168 174.275 136.938C173.02 135.708 171.532 134.74 169.898 134.092C168.265 133.443 166.518 133.127 164.761 133.162Z" fill="white"/>
<path d="M49.7052 174.517C47.9481 174.482 46.2017 174.798 44.5682 175.446C42.9348 176.095 41.447 177.062 40.1921 178.293C38.9371 179.523 37.9402 180.991 37.2596 182.612C36.5791 184.232 36.2285 185.972 36.2285 187.729C36.2285 189.487 36.5791 191.226 37.2596 192.847C37.9402 194.467 38.9371 195.935 40.1921 197.166C41.447 198.396 42.9348 199.364 44.5682 200.012C46.2017 200.66 47.9481 200.977 49.7052 200.942C51.4623 200.977 53.2087 200.66 54.8422 200.012C56.4757 199.364 57.9634 198.396 59.2183 197.166C60.4733 195.935 61.4702 194.467 62.1508 192.847C62.8314 191.226 63.1819 189.487 63.1819 187.729C63.1819 185.972 62.8314 184.232 62.1508 182.612C61.4702 180.991 60.4733 179.523 59.2183 178.293C57.9634 177.062 56.4757 176.095 54.8422 175.446C53.2087 174.798 51.4623 174.482 49.7052 174.517Z" fill="white"/>
<path d="M88.0558 174.517C86.2987 174.482 84.5523 174.798 82.9188 175.446C81.2854 176.095 79.7976 177.062 78.5427 178.293C77.2877 179.523 76.2908 180.991 75.6102 182.612C74.9296 184.232 74.5791 185.972 74.5791 187.729C74.5791 189.487 74.9296 191.226 75.6102 192.847C76.2908 194.467 77.2877 195.935 78.5427 197.166C79.7976 198.396 81.2854 199.364 82.9188 200.012C84.5523 200.66 86.2987 200.977 88.0558 200.942C89.8129 200.977 91.5593 200.66 93.1928 200.012C94.8262 199.364 96.314 198.396 97.5689 197.166C98.8239 195.935 99.8208 194.467 100.501 192.847C101.182 191.226 101.532 189.487 101.532 187.729C101.532 185.972 101.182 184.232 100.501 182.612C99.8208 180.991 98.8239 179.523 97.5689 178.293C96.314 177.062 94.8262 176.095 93.1928 175.446C91.5593 174.798 89.8129 174.482 88.0558 174.517Z" fill="white"/>
<path d="M126.416 174.517C124.659 174.482 122.912 174.798 121.279 175.446C119.645 176.095 118.157 177.062 116.903 178.293C115.648 179.523 114.651 180.991 113.97 182.612C113.289 184.232 112.939 185.972 112.939 187.729C112.939 189.487 113.289 191.226 113.97 192.847C114.651 194.467 115.648 195.935 116.903 197.166C118.157 198.396 119.645 199.364 121.279 200.012C122.912 200.66 124.659 200.977 126.416 200.942C128.173 200.977 129.919 200.66 131.553 200.012C133.186 199.364 134.674 198.396 135.929 197.166C137.184 195.935 138.181 194.467 138.861 192.847C139.542 191.226 139.892 189.487 139.892 187.729C139.892 185.972 139.542 184.232 138.861 182.612C138.181 180.991 137.184 179.523 135.929 178.293C134.674 177.062 133.186 176.095 131.553 175.446C129.919 174.798 128.173 174.482 126.416 174.517Z" fill="white"/>
<path d="M164.761 174.517C163.004 174.482 161.258 174.798 159.624 175.446C157.991 176.095 156.503 177.062 155.248 178.293C153.993 179.523 152.996 180.991 152.316 182.612C151.635 184.232 151.285 185.972 151.285 187.729C151.285 189.487 151.635 191.226 152.316 192.847C152.996 194.467 153.993 195.935 155.248 197.166C156.503 198.396 157.991 199.364 159.624 200.012C161.258 200.66 163.004 200.977 164.761 200.942C166.518 200.977 168.265 200.66 169.898 200.012C171.532 199.364 173.02 198.396 174.275 197.166C175.529 195.935 176.526 194.467 177.207 192.847C177.888 191.226 178.238 189.487 178.238 187.729C178.238 185.972 177.888 184.232 177.207 182.612C176.526 180.991 175.529 179.523 174.275 178.293C173.02 177.062 171.532 176.095 169.898 175.446C168.265 174.798 166.518 174.482 164.761 174.517Z" fill="white"/>
<path d="M49.7052 215.871C47.9481 215.837 46.2017 216.153 44.5682 216.801C42.9348 217.449 41.447 218.417 40.1921 219.647C38.9371 220.878 37.9402 222.346 37.2596 223.966C36.5791 225.587 36.2285 227.327 36.2285 229.084C36.2285 230.841 36.5791 232.581 37.2596 234.202C37.9402 235.822 38.9371 237.29 40.1921 238.52C41.447 239.751 42.9348 240.718 44.5682 241.367C46.2017 242.015 47.9481 242.331 49.7052 242.296C51.4623 242.331 53.2087 242.015 54.8422 241.367C56.4757 240.718 57.9634 239.751 59.2183 238.52C60.4733 237.29 61.4702 235.822 62.1508 234.202C62.8314 232.581 63.1819 230.841 63.1819 229.084C63.1819 227.327 62.8314 225.587 62.1508 223.966C61.4702 222.346 60.4733 220.878 59.2183 219.647C57.9634 218.417 56.4757 217.449 54.8422 216.801C53.2087 216.153 51.4623 215.837 49.7052 215.871Z" fill="white"/>
<path d="M88.0558 215.871C86.2987 215.837 84.5523 216.153 82.9188 216.801C81.2854 217.449 79.7976 218.417 78.5427 219.647C77.2877 220.878 76.2908 222.346 75.6102 223.966C74.9296 225.587 74.5791 227.327 74.5791 229.084C74.5791 230.841 74.9296 232.581 75.6102 234.202C76.2908 235.822 77.2877 237.29 78.5427 238.52C79.7976 239.751 81.2854 240.718 82.9188 241.367C84.5523 242.015 86.2987 242.331 88.0558 242.296C89.8129 242.331 91.5593 242.015 93.1928 241.367C94.8262 240.718 96.314 239.751 97.5689 238.52C98.8239 237.29 99.8208 235.822 100.501 234.202C101.182 232.581 101.532 230.841 101.532 229.084C101.532 227.327 101.182 225.587 100.501 223.966C99.8208 222.346 98.8239 220.878 97.5689 219.647C96.314 218.417 94.8262 217.449 93.1928 216.801C91.5593 216.153 89.8129 215.837 88.0558 215.871Z" fill="white"/>
<path d="M126.416 215.871C124.659 215.837 122.912 216.153 121.279 216.801C119.645 217.449 118.157 218.417 116.903 219.647C115.648 220.878 114.651 222.346 113.97 223.966C113.289 225.587 112.939 227.327 112.939 229.084C112.939 230.841 113.289 232.581 113.97 234.202C114.651 235.822 115.648 237.29 116.903 238.52C118.157 239.751 119.645 240.718 121.279 241.367C122.912 242.015 124.659 242.331 126.416 242.296C128.173 242.331 129.919 242.015 131.553 241.367C133.186 240.718 134.674 239.751 135.929 238.52C137.184 237.29 138.181 235.822 138.861 234.202C139.542 232.581 139.892 230.841 139.892 229.084C139.892 227.327 139.542 225.587 138.861 223.966C138.181 222.346 137.184 220.878 135.929 219.647C134.674 218.417 133.186 217.449 131.553 216.801C129.919 216.153 128.173 215.837 126.416 215.871Z" fill="white"/>
<path d="M164.761 215.871C163.004 215.837 161.258 216.153 159.624 216.801C157.991 217.449 156.503 218.417 155.248 219.647C153.993 220.878 152.996 222.346 152.316 223.966C151.635 225.587 151.285 227.327 151.285 229.084C151.285 230.841 151.635 232.581 152.316 234.202C152.996 235.822 153.993 237.29 155.248 238.52C156.503 239.751 157.991 240.718 159.624 241.367C161.258 242.015 163.004 242.331 164.761 242.296C166.518 242.331 168.265 242.015 169.898 241.367C171.532 240.718 173.02 239.751 174.275 238.52C175.529 237.29 176.526 235.822 177.207 234.202C177.888 232.581 178.238 230.841 178.238 229.084C178.238 227.327 177.888 225.587 177.207 223.966C176.526 222.346 175.529 220.878 174.275 219.647C173.02 218.417 171.532 217.449 169.898 216.801C168.265 216.153 166.518 215.837 164.761 215.871Z" fill="white"/>
<path d="M49.7058 257.237C46.2009 257.237 42.8396 258.629 40.3613 261.107C37.883 263.585 36.4907 266.947 36.4907 270.452C36.4907 273.956 37.883 277.318 40.3613 279.796C42.8396 282.274 46.2009 283.667 49.7058 283.667C53.2107 283.667 56.572 282.274 59.0503 279.796C61.5286 277.318 62.9209 273.956 62.9209 270.452C62.9209 266.947 61.5286 263.585 59.0503 261.107C56.572 258.629 53.2107 257.237 49.7058 257.237Z" fill="white"/>
<path d="M88.0554 257.237C84.5506 257.237 81.1892 258.629 78.7109 261.107C76.2326 263.585 74.8403 266.947 74.8403 270.452C74.8403 273.956 76.2326 277.318 78.7109 279.796C81.1892 282.274 84.5506 283.667 88.0554 283.667C91.5603 283.667 94.9216 282.274 97.3999 279.796C99.8782 277.318 101.27 273.956 101.27 270.452C101.27 266.947 99.8782 263.585 97.3999 261.107C94.9216 258.629 91.5603 257.237 88.0554 257.237Z" fill="white"/>
<path d="M126.416 257.237C122.911 257.237 119.55 258.629 117.071 261.107C114.593 263.585 113.201 266.947 113.201 270.452C113.201 273.956 114.593 277.318 117.071 279.796C119.55 282.274 122.911 283.667 126.416 283.667C129.921 283.667 133.282 282.274 135.76 279.796C138.239 277.318 139.631 273.956 139.631 270.452C139.631 266.947 138.239 263.585 135.76 261.107C133.282 258.629 129.921 257.237 126.416 257.237Z" fill="white"/>
<path d="M164.761 257.237C161.256 257.237 157.895 258.629 155.416 261.107C152.938 263.585 151.546 266.947 151.546 270.452C151.546 273.956 152.938 277.318 155.416 279.796C157.895 282.274 161.256 283.667 164.761 283.667C168.266 283.667 171.627 282.274 174.105 279.796C176.584 277.318 177.976 273.956 177.976 270.452C177.976 266.947 176.584 263.585 174.105 261.107C171.627 258.629 168.266 257.237 164.761 257.237Z" fill="#267199"/>
<path d="M148.847 32.8808H106.482L65.6196 75.2457H107.985L148.847 32.8808Z" fill="#1F160D"/>
<path d="M416.2 81.7211H215.876H169.953C156.106 81.7211 144.9 92.9521 144.9 106.773V306.973C144.9 320.82 156.121 332.036 169.953 332.036L215.876 332.051L416.2 332.036C430.047 332.036 441.268 320.805 441.268 306.983V106.799C441.268 92.9521 430.037 81.7211 416.2 81.7211Z" fill="#184646"/>
<path d="M215.876 332.051L167.974 332.771C154.152 332.771 143.03 320.836 143.03 306.999V106.784C143.03 92.9521 154.334 81.1357 168.165 81.1357L215.876 81.7211C202.029 81.7211 190.824 92.9521 190.824 106.773V306.999C190.824 320.836 202.029 332.051 215.876 332.051Z" fill="#022626"/>
<path d="M191.352 310.641H402.684C414.345 310.641 423.789 301.181 423.789 289.536V124.247C423.789 112.601 414.345 103.142 402.684 103.142H191.352" stroke="#022626" stroke-width="3" stroke-linecap="round" stroke-linejoin="round" stroke-dasharray="3.37 8.42"/>
<path d="M191.353 103.142C179.702 103.142 170.243 112.601 170.243 124.247V289.536C170.243 301.181 179.702 310.641 191.353 310.641" stroke="#121212" stroke-width="3" stroke-linecap="round" stroke-linejoin="round" stroke-dasharray="3.37 8.42"/>
<path d="M435.673 244.607H364.5C343.675 244.607 326.777 227.714 326.777 206.884C326.777 186.059 343.675 169.16 364.5 169.16H435.673C445.267 169.16 453.038 176.931 453.038 186.525V227.227C453.038 236.826 445.267 244.607 435.673 244.607Z" fill="#022626"/>
<path d="M364.391 188.732C369.613 188.732 374.348 190.85 377.783 194.269C381.217 197.704 383.336 202.423 383.336 207.676C383.336 218.13 374.845 226.621 364.391 226.621C359.144 226.621 354.409 224.486 350.974 221.052C347.55 217.617 345.447 212.898 345.447 207.676C345.447 197.207 353.922 188.732 364.391 188.732Z" fill="#F8C364"/>
<path d="M383.6 207.676C383.6 218.146 374.845 226.761 364.391 226.761C359.128 226.761 354.103 224.652 350.974 221.052L377.782 194.269C381.538 197.58 383.6 202.413 383.6 207.676Z" fill="#E8AB3E"/>
<path d="M540 276.057C540 307.284 514.668 332.605 483.446 332.605C480.053 332.605 476.727 332.305 473.484 331.725C469.247 330.968 465.16 329.756 461.311 328.098C455.923 325.804 450.95 322.69 446.572 318.903C440.719 313.899 435.911 307.709 432.518 300.684C428.913 293.24 426.872 284.879 426.872 276.031C426.872 244.804 452.203 219.482 483.425 219.482C492.263 219.482 500.635 221.518 508.079 225.123C515.077 228.517 521.289 233.329 526.298 239.173C530.08 243.555 533.198 248.518 535.493 253.905C537.151 257.77 538.363 261.852 539.119 266.095C539.71 269.333 540 272.648 540 276.057Z" fill="#005370"/>
<path d="M530.26 276.057C530.26 307.294 504.929 332.605 473.707 332.605C470.303 332.605 467.355 332.383 463.745 331.74C461.144 331.305 459.564 331.046 457.238 330.357C455.399 329.792 453.866 329.254 451.638 328.098C446.007 325.949 441.143 322.758 436.823 318.872C433.486 315.666 431.191 313.407 428.643 310.247C426.239 307.165 424.794 305.046 422.779 300.684C418.961 293.25 417.137 284.879 417.137 276.046C417.137 244.804 442.469 219.482 473.686 219.482C482.524 219.482 490.771 221.119 498.339 225.123C502.266 227.227 504.385 228.475 507.845 231.003C511.005 233.417 513.43 235.722 516.558 239.25C520.578 243.457 522.915 248.021 525.754 253.983C526.945 256.687 527.297 257.501 528.157 259.982C528.712 261.909 528.934 263.209 529.38 266.136C529.924 269.877 530.26 272.658 530.26 276.057Z" fill="#00B5FD"/>
<path d="M516.606 239.173L436.87 318.914C430.68 313.816 425.841 307.709 422.811 300.684L498.371 225.123C505.831 228.216 511.954 233.329 516.606 239.173Z" fill="#0083B2"/>
<path d="M529.427 266.095L463.782 331.74C460.062 331.424 455.343 330.202 451.603 328.098L525.785 253.905C528.002 257.822 529.178 262.018 529.427 266.095Z" fill="#0083B2"/>
<path d="M473.743 233.448C475.189 233.448 476.623 233.516 478.048 233.661C499.562 235.821 516.357 253.983 516.357 276.067C516.357 298.146 499.562 316.303 478.048 318.458C476.623 318.603 475.199 318.681 473.743 318.681C450.204 318.681 431.125 299.607 431.125 276.067C431.125 252.528 450.204 233.448 473.743 233.448Z" fill="#0083B2"/>
<path d="M478.048 318.458C476.447 318.681 475.189 318.795 473.733 318.795C448.51 318.795 430.757 299.596 430.757 276.046C430.757 252.502 448.51 233.381 473.743 233.381C475.199 233.381 476.65 233.428 478.048 233.661C456.513 235.811 439.719 253.983 439.719 276.057C439.719 298.146 456.513 316.313 478.048 318.458Z" fill="#005370"/>
<path d="M505.82 262.412C504.55 255.475 500.385 252.191 494.532 251.077C494.299 251.036 494.299 250.699 494.521 250.647C500.318 249.321 504.291 245.783 505.783 239.224C505.84 238.991 506.161 238.991 506.218 239.224C507.679 245 511.062 249.031 517.149 250.569C517.382 250.621 517.361 250.958 517.113 250.989C510.917 251.745 507.819 256.19 506.255 262.422C506.187 262.655 505.861 262.645 505.82 262.412Z" fill="white"/>
<path d="M486.285 253.662V245.291C486.285 245.171 486.176 245.068 486.052 245.068C473.054 245.156 461.968 253.315 457.472 264.758C457.435 264.836 457.358 264.893 457.27 264.893H450.426C450.302 264.893 450.204 264.991 450.204 265.116V273.482C450.204 273.606 450.302 273.705 450.426 273.705H455.187C455.322 273.705 455.42 273.819 455.41 273.953C455.353 274.653 455.311 275.342 455.311 276.067C455.311 276.932 455.368 277.802 455.436 278.657C455.446 278.792 455.343 278.906 455.223 278.906H450.447C450.323 278.906 450.224 279.004 450.224 279.129V287.495C450.224 287.619 450.323 287.718 450.447 287.718H457.472C457.56 287.718 457.637 287.775 457.669 287.852C462.289 299.037 473.261 306.963 486.083 307.051C486.207 307.051 486.305 306.952 486.305 306.828V298.446C486.305 298.337 486.217 298.239 486.098 298.239C478.385 298.161 471.604 294.105 467.698 288.054C467.61 287.899 467.718 287.697 467.9 287.697H480.353C480.478 287.697 480.576 287.598 480.576 287.474V279.103C480.576 278.983 480.478 278.88 480.353 278.88H464.548C464.439 278.88 464.336 278.802 464.325 278.693C464.216 277.823 464.139 276.948 464.139 276.057C464.139 275.321 464.18 274.606 464.248 273.896C464.268 273.782 464.362 273.694 464.481 273.694H480.343C480.462 273.694 480.566 273.596 480.566 273.472V265.105C480.566 264.981 480.462 264.883 480.343 264.883H467.589C467.408 264.883 467.299 264.681 467.387 264.536C471.225 258.226 478.136 253.962 486.062 253.885C486.186 253.885 486.285 253.786 486.285 253.662Z" fill="#00B5FD"/>
</svg>
