<svg width="24" height="25" viewBox="0 0 24 25" fill="none" xmlns="http://www.w3.org/2000/svg">
<g clip-path="url(#clip0_657_6490)">
<path d="M21.543 6.96431C22 8.74631 22 12.4663 22 12.4663C22 12.4663 22 16.1863 21.543 17.9683C21.289 18.9533 20.546 19.7283 19.605 19.9903C17.896 20.4663 12 20.4663 12 20.4663C12 20.4663 6.107 20.4663 4.395 19.9903C3.45 19.7243 2.708 18.9503 2.457 17.9683C2 16.1863 2 12.4663 2 12.4663C2 12.4663 2 8.74631 2.457 6.96431C2.711 5.97931 3.454 5.20431 4.395 4.94231C6.107 4.46631 12 4.46631 12 4.46631C12 4.46631 17.896 4.46631 19.605 4.94231C20.55 5.20831 21.292 5.98231 21.543 6.96431ZM10 15.9663L16 12.4663L10 8.96631V15.9663Z" fill="white"/>
</g>
<defs>
<clipPath id="clip0_657_6490">
<rect width="24" height="24" fill="white" transform="translate(0 0.466309)"/>
</clipPath>
</defs>
</svg>
